<svg xmlns="http://www.w3.org/2000/svg" width="64" height="64" style="width:100%;height:100%;transform:translate3d(0,0,0);content-visibility:visible"><defs><clipPath id="a"><path d="M0 0h64v64H0z"/></clipPath><clipPath id="b"><path d="M0 0h2400v2400H0z"/></clipPath><clipPath id="c"><path fill="#fff" d="M1206.818 631.818c-317.564 0-575 257.436-575 575s257.436 575 575 575 575-257.436 575-575-257.436-575-575-575"/></clipPath></defs><g clip-path="url(#a)"><g clip-path="url(#b)" style="display:block" transform="matrix(.055 0 0 .055 -34 -34)"><g clip-path="url(#c)"><path fill-opacity=".2" d="M244.341 0c0 17.767-109.396 32.171-244.341 32.171S-244.34 17.767-244.34 0c0-17.768 109.395-32.171 244.34-32.171S244.341-17.768 244.341 0z" style="display:block" transform="matrix(1.1 0 0 2.26257 1188.204 2313.193)"/><g style="display:block"><path fill="none" stroke="#000" stroke-linecap="round" stroke-linejoin="round" stroke-width="19.8" d="M1064.63 2092.817s-2.247 190.98 4.494 195.472c6.739 4.494 53.922 33.702 53.922 33.702M1224.154 2074.843s-2.246 190.977 4.494 195.472c6.739 4.494 53.922 33.702 53.922 33.702"/></g><g style="display:block"><path fill="#46BFDF" d="M1498.829 1429.63c27.756 24.55 50.15 141.748 60.437 337.48 13.956 265.518 18.647 404.91-20.543 431.278-23.358 15.715-34.837-151.33-34.837-151.33s-37.644 77.447-51.855 70.345c-22.469-11.231-4.994-127.176-4.994-127.176s-55.034 101.467-66.773 93.792c-36.951-24.152 18.45-161.999 18.45-161.999s-45.96 71.693-74.596 39.09c-28.635-32.604 84.516-232.348 84.516-232.348s-49.806 68.449-84.543 47.616c-34.737-20.83 14.777-136.745 41.184-187.577 52.803-101.654 105.798-183.722 133.554-159.171z"/><path fill="none" stroke="#000" stroke-linecap="round" stroke-linejoin="round" stroke-width="17.6" d="M1498.829 1429.63c27.756 24.55 50.15 141.748 60.437 337.48 13.956 265.518 18.647 404.91-20.543 431.278-23.358 15.715-34.837-151.33-34.837-151.33s-37.644 77.447-51.855 70.345c-22.469-11.231-4.994-127.176-4.994-127.176s-55.034 101.467-66.773 93.792c-36.951-24.152 18.45-161.999 18.45-161.999s-45.96 71.693-74.596 39.09c-28.635-32.604 84.516-232.348 84.516-232.348s-49.806 68.449-84.543 47.616c-34.737-20.83 14.777-136.745 41.184-187.577 52.803-101.654 105.798-183.722 133.554-159.171z"/></g><g style="display:block"><path fill="#46BFDF" d="M1320.681 1001.069c-66.464-50.14-196.3-45.283-253.095-15.422-56.795 29.86-104.326 108.9-126.152 157.073-53.227 117.478-90.618 370.623-90.618 370.623l51.088-37.86s-43.381 185.504-47.913 259.53c-10.112 165.139 50.556 306.691 112.904 363.983 65.056 59.783 141.548 64.034 230.857 48.867 89.31-15.165 222.435-67.402 278.042-212.32 55.61-144.92 44.79-353.621 14.37-481.369-30.419-127.745-74.19-381.216-169.483-453.105z"/><path fill="#FFF" d="M1296.88 992.251s29.888 14.533 11.331 36.29c-18.559 21.757-65.258 23.6-99.059 29.831-48.314 8.904-121.106 50.18-124.177 118.039-2.29 50.613 14.448 96.899 81.427 110.178 66.979 13.28 151.582-9.997 180.888-21.111 43.212-16.388 75.084-54.98 67.382-88.176-7.703-33.196-33.192-98.789-51.857-120.976-18.662-22.185-55.723-63.195-65.936-64.075z"/><path fill="none" stroke="#000" stroke-linecap="round" stroke-linejoin="round" stroke-width="22" d="M1257.07 1115.473s-66.924-4.27-66.057 59.334M1277.757 1159.614c4.992 6.897 18.722 37.112 18.722 37.112"/><path fill="none" stroke="#000" stroke-miterlimit="10" stroke-width="17.6" d="M1320.681 1001.069c-66.464-50.14-196.3-45.283-253.095-15.422-56.795 29.86-104.326 108.9-126.152 157.073-53.227 117.478-90.618 370.623-90.618 370.623l51.088-37.86s-43.381 185.504-47.913 259.53c-10.112 165.139 50.556 306.691 112.904 363.983 65.056 59.783 141.548 64.034 230.857 48.867 89.31-15.165 222.435-67.402 278.042-212.32 55.61-144.92 44.79-353.621 14.37-481.369-30.419-127.745-74.19-381.216-169.483-453.105z"/><path fill="#FFF" d="M1392.306 1499.125s-10.83 264.596-85.02 369.01c-60.664 85.38-179.745 164.017-179.745 164.017s157.067-77.225 206.707-134.808c56.17-65.157 72.125-135.634 78.745-251.105 3.216-56.125-20.687-147.114-20.687-147.114z"/></g><g style="display:block"><path fill="#46BFDF" d="M976.661 1450.263c-31.856 18.927-50.894 141.46-97.598 331.815-63.358 258.225-58.259 424.5-24.687 457.733 20.006 19.806 41.382-190.658 41.382-190.658s37.404 124.832 82.602 111.289c45.198-13.543-7.038-187.876-7.038-187.876s47.325 56.186 77.676 40.055c30.349-16.13-24.033-213.276-24.033-213.276s54.42 79.857 88.647 53.183c34.227-26.675-40.17-220.168-40.17-220.168s44.955 63.931 77.674 40.054c32.719-23.875-27.932-132.36-66.44-174.77-28.094-30.939-76.159-66.307-108.015-47.38z"/><path fill="none" stroke="#000" stroke-linecap="round" stroke-linejoin="round" stroke-width="17.6" d="M976.661 1450.263c-31.856 18.927-50.894 141.46-97.598 331.815-63.358 258.225-58.259 424.5-24.687 457.733 20.006 19.806 41.382-190.658 41.382-190.658s37.404 124.832 82.602 111.289c45.198-13.543-7.038-187.876-7.038-187.876s47.325 56.186 77.676 40.055c30.349-16.13-24.033-213.276-24.033-213.276s54.42 79.857 88.647 53.183c34.227-26.675-40.17-220.168-40.17-220.168s44.955 63.931 77.674 40.054c32.719-23.875-27.932-132.36-66.44-174.77-28.094-30.939-76.159-66.307-108.015-47.38z"/></g><g style="display:block"><path fill="#FFD441" d="M1361.445 1064.266s-9.306-18.828 79.371-26.033c88.678-7.205 154.592 19.319 154.592 19.319s-75.321 105.919-119.851 143.594c-48.15 40.737-84.238 51.55-84.238 51.55s60.05-22.037 86.814-53.662c26.763-31.625 108.673-129.624 108.673-129.624s-30.182 86.935-66.979 144.12c-36.8 57.184-124.647 99.074-124.647 99.074s-42.302-54.107-48.715-126.977c-6.77-76.914 14.98-121.361 14.98-121.361z"/><path fill="none" stroke="#000" stroke-linecap="round" stroke-linejoin="round" stroke-width="17.6" d="M1361.445 1064.266s-9.306-18.828 79.371-26.033c88.678-7.205 154.592 19.319 154.592 19.319s-75.321 105.919-119.851 143.594c-48.15 40.737-84.238 51.55-84.238 51.55s60.05-22.037 86.814-53.662c26.763-31.625 108.673-129.624 108.673-129.624s-30.182 86.935-66.979 144.12c-36.8 57.184-124.647 99.074-124.647 99.074s-42.302-54.107-48.715-126.977c-6.77-76.914 14.98-121.361 14.98-121.361z"/><path fill="#FFF" d="m1375.604 1077.495-4.778 30.6s-7.093-4.669 52.652-24.665c59.746-19.996 92.968-26.637 92.968-26.637s-33.412-6.512-82.843 3.082c-49.43 9.594-57.999 17.62-57.999 17.62z"/></g></g></g></g></svg>