<svg xmlns="http://www.w3.org/2000/svg" width="64" height="64" style="width:100%;height:100%;transform:translate3d(0,0,0);content-visibility:visible"><defs><clipPath id="a"><path d="M0 0h64v64H0z"/></clipPath><clipPath id="b"><path d="M0 0h2400v2400H0z"/></clipPath><clipPath id="c"><path fill="#fff" d="M1206.818 631.818c-320.074 0-579.545 259.472-579.545 579.546 0 320.074 259.471 579.545 579.545 579.545 320.074 0 579.546-259.471 579.546-579.545 0-320.074-259.472-579.546-579.546-579.546"/></clipPath></defs><g clip-path="url(#a)"><g clip-path="url(#b)" style="display:block" transform="matrix(.055 0 0 .055 -34 -34)"><g clip-path="url(#c)"><g opacity=".2" style="display:block"><path d="M1521.674 2389.463s213.303 33.876 289.223 72.27c75.923 38.392 90.385 54.201-28.92 72.268-119.305 18.068-289.225-31.617-357.917-15.808-68.69 15.808-216.918 58.718-357.917 40.65-140.996-18.066-169.92-106.145-206.072-110.662-36.154-4.517-155.46 18.068-213.306-27.1-57.846-45.169 25.307-101.63 166.305-92.596 140.997 9.034 249.459 13.55 289.227 11.293 39.769-2.26 278.379 22.583 419.377 49.685z" opacity="1"/></g><g style="display:block"><path fill="none" stroke="#000" stroke-linecap="round" stroke-linejoin="round" stroke-width="17.7" d="M1064.718 2080.828s12.001 67.63 13.695 134.202c2.726 107.083-.673 152.692-5.391 161.494-9.328 17.398-57.127 14.491-70.377 11.613"/><path fill="#FFD544" d="M1015.81 1960.682s-99.685 63.046-81.912 106.259c13.422 32.635 89.847-10.702 89.847-10.702s-91.65 61.582-31.58 81.53c47.873 15.898 73.313-58.576 73.313-58.576s-14.89 82.745 40.03 58.342c54.92-24.403 46.286-89.406 47.995-83.93 1.71 5.477-4.315 62.809 37.025 32.213 41.34-30.596 9.406-99.552-9.988-110.62"/><path fill="none" stroke="#000" stroke-linecap="round" stroke-linejoin="round" stroke-width="17.7" d="M1015.81 1960.682s-99.685 63.046-81.912 106.259c13.422 32.635 89.847-10.702 89.847-10.702s-91.65 61.582-31.58 81.53c47.873 15.898 73.313-58.576 73.313-58.576s-14.89 82.745 40.03 58.342c54.92-24.403 46.286-89.406 47.995-83.93 1.71 5.477-4.315 62.809 37.025 32.213 41.34-30.596 9.406-99.552-9.988-110.62"/></g><g style="display:block"><path fill="#FFD544" d="M1246.189 1389.344c-8.029 42.721-3.89 141.595-17.9 254.612-14.012 113.016-58.003 181.336-88.538 251.321-30.534 69.986-26.374 190.719-8.56 179.265 17.812-11.452 29.822-108.322 29.822-108.322s5.825 107.276 31.043 102.207c25.219-5.07-10.204-116.02-10.204-116.02s52.594 126.739 69.05 104.189c16.457-22.55-37.471-138.526-37.471-138.526s54.595 110.596 72.052 79.973c17.458-30.623-25.662-101.542-25.662-101.542s67.36 95.782 71.697 60.8c4.337-34.982-74.455-126.716-74.455-126.716s112.06 65.806 124.137 34.516c12.076-31.29-79.46-86.356-79.46-86.356s83.463 54.064 88.8 11.009c5.338-43.053-81.148-94.76-81.148-94.76s104.632 37.564 103.922-.776c-.711-38.34-88.198-81.975-88.198-81.975s81.104 51.039 86.441 7.986c5.338-43.055-92.224-71.544-92.224-71.544s96.582 58.422 104.944 13.01c8.362-45.41-105.012-78.593-105.012-78.593s96.562 36.565 100.899 1.583c4.336-34.982-86.466-29.846-86.466-29.846s66.917-10.831 60.49-47.148c-6.426-36.316-86.418 13.879-86.418 13.879s77.947-77.768 44.967-98.251c-32.98-20.482-98.52 23.304-106.548 66.025z"/><path fill="none" stroke="#000" stroke-linecap="round" stroke-linejoin="round" stroke-width="17.7" d="M1246.189 1389.344c-8.029 42.721-3.89 141.595-17.9 254.612-14.012 113.016-58.003 181.336-88.538 251.321-30.534 69.986-26.374 190.719-8.56 179.265 17.812-11.452 29.822-108.322 29.822-108.322s5.825 107.276 31.043 102.207c25.219-5.07-10.204-116.02-10.204-116.02s52.594 126.739 69.05 104.189c16.457-22.55-37.471-138.526-37.471-138.526s54.595 110.596 72.052 79.973c17.458-30.623-25.662-101.542-25.662-101.542s67.36 95.782 71.697 60.8c4.337-34.982-74.455-126.716-74.455-126.716s112.06 65.806 124.137 34.516c12.076-31.29-79.46-86.356-79.46-86.356s83.463 54.064 88.8 11.009c5.338-43.053-81.148-94.76-81.148-94.76s104.632 37.564 103.922-.776c-.711-38.34-88.198-81.975-88.198-81.975s81.104 51.039 86.441 7.986c5.338-43.055-92.224-71.544-92.224-71.544s96.582 58.422 104.944 13.01c8.362-45.41-105.012-78.593-105.012-78.593s96.562 36.565 100.899 1.583c4.336-34.982-86.466-29.846-86.466-29.846s66.917-10.831 60.49-47.148c-6.426-36.316-86.418 13.879-86.418 13.879s77.947-77.768 44.967-98.251c-32.98-20.482-98.52 23.304-106.548 66.025z"/><path fill="none" stroke="#FFF" stroke-linecap="round" stroke-linejoin="round" stroke-width="14.16" d="M1273.192 1445.477s3.693 102.461-9.666 195.524"/></g><g style="display:block"><path fill="#FFD544" d="M1327.943 1933.677s99.453 103.324 171.795 165.285c74.963 64.204 180.741 106.742 198.307 87.951 17.567-18.793-126.408-114.643-126.408-114.643s154.556 85.788 161.854 50.356c7.298-35.432-151.777-111.36-151.777-111.36s199.233 79.426 201.602 41.736c2.368-37.693-162.877-80.654-162.877-80.654s218.761 10.823 195.557-29.647c-23.205-40.47-367.677-37.349-414.82-32.118-47.142 5.23-73.233 23.094-73.233 23.094z"/><path fill="none" stroke="#000" stroke-linecap="round" stroke-linejoin="round" stroke-width="17.7" d="M1327.943 1933.677s99.453 103.324 171.795 165.285c74.963 64.204 180.741 106.742 198.307 87.951 17.567-18.793-126.408-114.643-126.408-114.643s154.556 85.788 161.854 50.356c7.298-35.432-151.777-111.36-151.777-111.36s199.233 79.426 201.602 41.736c2.368-37.693-162.877-80.654-162.877-80.654s218.761 10.823 195.557-29.647c-23.205-40.47-367.677-37.349-414.82-32.118-47.142 5.23-73.233 23.094-73.233 23.094z"/></g><g style="display:block"><path fill="#FFD544" d="M1171.779 1282.992c-4.043 4.043-155.46 168.113-206.563 261.847-61.587 112.963-75.432 175.607-80.855 242.49-6.29 77.56 29.412 164.758 103.037 209.686 65.392 39.905 189.804 103.037 341.647 83.153s233.189-56.036 269.34-126.534c36.155-70.499 83.154-189.804 56.039-327.186-13.67-69.257-81.62-212.053-119.305-278.38-45.192-79.537-244.035-184.381-363.34-65.076z"/><path fill="none" stroke="#000" stroke-linecap="round" stroke-linejoin="round" stroke-width="17.7" d="M1171.779 1282.992c-4.043 4.043-155.46 168.113-206.563 261.847-61.587 112.963-75.432 175.607-80.855 242.49-6.29 77.56 29.412 164.758 103.037 209.686 65.392 39.905 189.804 103.037 341.647 83.153s233.189-56.036 269.34-126.534c36.155-70.499 83.154-189.804 56.039-327.186-13.67-69.257-81.62-212.053-119.305-278.38-45.192-79.537-244.035-184.381-363.34-65.076z"/></g><g style="display:block"><path fill="none" stroke="#010101" stroke-linecap="round" stroke-linejoin="round" stroke-width="17.7" d="M1246.868 2442.661s54.223 6.03 65.57-1.766c13.327-9.154 1.393-89.425 3.916-175.14 2.117-71.911-16.312-219.807-16.312-219.807"/><path fill="#FFD544" d="M1258.974 2007.033s-128.35 80.508-108.896 126.173c19.454 45.667 110.738-43.236 110.738-43.236s-64.427 84.76-6.191 88.43c58.236 3.67 64.05-69.86 64.05-69.86s-11.295 82.162 35.158 66.237c46.453-15.924 24.826-79.626 24.826-79.626s25.739 57.23 55.715 33.869c29.977-23.36-24.022-107.619-45.996-123.088"/><path fill="none" stroke="#000" stroke-linecap="round" stroke-linejoin="round" stroke-width="17.7" d="M1258.974 2007.033s-128.35 80.508-108.896 126.173c19.454 45.667 110.738-43.236 110.738-43.236s-64.427 84.76-6.191 88.43c58.236 3.67 64.05-69.86 64.05-69.86s-11.295 82.162 35.158 66.237c46.453-15.924 24.826-79.626 24.826-79.626s25.739 57.23 55.715 33.869c29.977-23.36-24.022-107.619-45.996-123.088"/></g><g style="display:block"><path fill="#FFD544" d="M1337.67 1574.406c17.828 63.572 38.74 86.526 20.95 165.684-10.77 47.93-19.21 82.833-60.47 100.6-60.928 26.238-92.06 63.954-102.27 86.245-14.024 30.616 7.705 104.73 87.518 120.3 51.819 10.109 21.424-55.843 35.425-47.448 19.87 11.913 38.634 17.463 55.006 19.305 45.049 5.07 24.678-76.406 24.678-76.406s34.786 36.434 64.386 13.568c29.6-22.867-12.203-80.322-12.203-80.322s63.727 40.668 71.215 7.65c8.052-35.503-16.85-69.121-16.85-69.121s36.317 52.106 57.738 16.937c23.598-38.744-24.347-85.891-38.705-86.058 0 0 41.915 44.785 52.365 2.457 9.016-36.519-56.827-65.567-56.827-65.567s38.289 17.16 27.959-14.663c-10.33-31.823-59.47-46.537-59.47-46.537s40.673-.69 21.401-30.507c-19.27-29.818-56.826-29.688-56.826-29.688s30.586-20.798.364-40.981c-79.504-53.092-136.501-20.754-115.384 54.552z"/><path fill="none" stroke="#000" stroke-linecap="round" stroke-linejoin="round" stroke-width="17.7" d="M1337.67 1574.406c17.828 63.572 38.74 86.526 20.95 165.684-10.77 47.93-19.21 82.833-60.47 100.6-60.928 26.238-92.06 63.954-102.27 86.245-14.024 30.616 7.705 104.73 87.518 120.3 51.819 10.109 21.424-55.843 35.425-47.448 19.87 11.913 38.634 17.463 55.006 19.305 45.049 5.07 24.678-76.406 24.678-76.406s34.786 36.434 64.386 13.568c29.6-22.867-12.203-80.322-12.203-80.322s63.727 40.668 71.215 7.65c8.052-35.503-16.85-69.121-16.85-69.121s36.317 52.106 57.738 16.937c23.598-38.744-24.347-85.891-38.705-86.058 0 0 41.915 44.785 52.365 2.457 9.016-36.519-56.827-65.567-56.827-65.567s38.289 17.16 27.959-14.663c-10.33-31.823-59.47-46.537-59.47-46.537s40.673-.69 21.401-30.507c-19.27-29.818-56.826-29.688-56.826-29.688s30.586-20.798.364-40.981c-79.504-53.092-136.501-20.754-115.384 54.552z"/><path fill="none" stroke="#FFF" stroke-linecap="round" stroke-linejoin="round" stroke-width="14.16" d="M1365.81 1557.194s40.078 102.72 35.792 162.738c-6.008 84.149-59.283 130.321-59.283 130.321"/></g><g style="display:block"><path fill="#FFD544" d="M1469.698 1294.146s35.25 105.749 65.076 98.97c29.826-6.78-21.692-176.248-21.692-176.248s70.496 14.914 105.745-35.248c-32.537-4.067-75.92 5.875-90.834-25.307 82.248 4.067 96.71-38.866 112.53-73.662-84.803 33.711-97.76 33.228-112.53 23.047 81.345-22.596 103.039-73.21 111.174-104.393-24.403 12.203-84.058 39.317-146.422 21.693-16.268-23.049-61.01-44.74-116.595-52.875-143.593-21.013-168.111 59.653-203.36 108.46-36.488 50.521-39.316 47.45-14.913 73.211 24.403 25.759-25.759 105.747-51.518 120.661-25.76 14.912 43.383 9.489 66.43-21.693 23.05-31.182-67.711 65.925-54.229 77.278 25.759 21.691 97.614-59.652 104.393-75.922 6.779-16.268-73.211 89.48-44.74 93.546 28.47 4.067 82.701-85.411 82.701-85.411s-75.922 143.71-44.74 151.843c31.182 8.135 77.276-109.815 77.276-109.815s-31.18 123.373 8.135 123.373c21.736 0 48.808-109.816 48.808-105.749 0 4.068 13.556 113.884 42.027 107.105 28.472-6.78 17.625-138.287 18.981-134.22 1.356 4.068 5.423 111.172 40.673 105.75 35.25-5.424 17.624-104.394 17.624-104.394z"/><path fill="none" stroke="#000" stroke-linecap="round" stroke-linejoin="round" stroke-width="17.7" d="M1469.698 1294.146s35.25 105.749 65.076 98.97c29.826-6.78-21.692-176.248-21.692-176.248s70.496 14.914 105.745-35.248c-32.537-4.067-75.92 5.875-90.834-25.307 82.248 4.067 96.71-38.866 112.53-73.662-84.803 33.711-97.76 33.228-112.53 23.047 81.345-22.596 103.039-73.21 111.174-104.393-24.403 12.203-84.058 39.317-146.422 21.693-16.268-23.049-61.01-44.74-116.595-52.875-143.593-21.013-168.111 59.653-203.36 108.46-36.488 50.521-39.316 47.45-14.913 73.211 24.403 25.759-25.759 105.747-51.518 120.661-25.76 14.912 43.383 9.489 66.43-21.693 23.05-31.182-67.711 65.925-54.229 77.278 25.759 21.691 97.614-59.652 104.393-75.922 6.779-16.268-73.211 89.48-44.74 93.546 28.47 4.067 82.701-85.411 82.701-85.411s-75.922 143.71-44.74 151.843c31.182 8.135 77.276-109.815 77.276-109.815s-31.18 123.373 8.135 123.373c21.736 0 48.808-109.816 48.808-105.749 0 4.068 13.556 113.884 42.027 107.105 28.472-6.78 17.625-138.287 18.981-134.22 1.356 4.068 5.423 111.172 40.673 105.75 35.25-5.424 17.624-104.394 17.624-104.394z"/><path fill="#FFF" d="M1369.374 1024.354c-62.92-10.068-109.818-1.356-128.797 36.605-18.98 37.962-1.356 71.854 55.585 82.7 56.94 10.847 113.883-6.779 127.44-39.317 13.558-32.538 13.56-69.141-54.228-79.988z"/><path fill="none" stroke="#000" stroke-linecap="round" stroke-linejoin="round" stroke-width="17.7" d="M1275.129 1087.217c-.22-3.1 6.58-9.204 9.71-13.39 2.48-3.317 7.958-9.65 7.958-9.65"/></g><g style="display:block"><path d="M1170.48 1113.067s-152.947-22.408-200.707-22.073c-47.758.333-228.354-2.332-212.072 53.052 16.283 55.383 143.25 52.07 184.273 55.479 164.223 13.64 228.619-2.305 228.619-2.305s10.304 24.274-185.139 14.383c-106.167-5.372-181.127-20.348-189.098-22.46-7.971-2.112-38.48 18.157-9.985 48.081 28.496 29.925 135.072 65.464 228.488 89.654 82.35 21.325 222.542 22.526 320.007-52.125 36.18-27.711 93.503-96.02 68.99-106.703-24.512-10.681-83.319 22.404-127.857 15.517-44.539-6.884-88.381-19.318-105.52-70.5z"/><path fill="#FFF" d="M1156.615 1133.869c10.239 5.586 16.073 19.9 7.997 20.88-8.075.98-90.257-12.26-173.99-15.756-83.73-3.493-201.924-9.633-201.924-9.633s120.964-16.047 197.965-11.737c77.003 4.313 159.714 10.66 169.952 16.246z"/></g></g></g></g></svg>