<svg xmlns="http://www.w3.org/2000/svg" width="64" height="64" style="width:100%;height:100%;transform:translate3d(0,0,0);content-visibility:visible"><defs><clipPath id="a"><path d="M0 0h64v64H0z"/></clipPath><clipPath id="b"><path d="M0 0h2400v2400H0z"/></clipPath><clipPath id="c"><path fill="#fff" d="M1209.09 640.909c-318.818 0-577.272 258.454-577.272 577.273s258.454 577.273 577.273 577.273 577.273-258.454 577.273-577.273-258.454-577.273-577.273-577.273"/></clipPath></defs><g clip-path="url(#a)"><g clip-path="url(#b)" style="display:block" transform="matrix(.055 0 0 .055 -34 -34)"><g clip-path="url(#c)"><g style="display:block"><path fill-opacity=".2" d="M1165.708 2089.212c140.493 0 254.563 28.456 254.563 63.504s-114.07 63.504-254.563 63.504c-140.494 0-254.563-28.456-254.563-63.504s114.07-63.504 254.563-63.504z"/><path fill="none" d="M1165.708 2089.212c140.493 0 254.563 28.456 254.563 63.504s-114.07 63.504-254.563 63.504c-140.494 0-254.563-28.456-254.563-63.504s114.07-63.504 254.563-63.504z"/></g><g style="display:block"><path fill="#C9C5C3" d="M1340.643 1623.62s33.803 81.654 69.927 120.043c36.124 38.386 85.519 104.388 73.527 117.63-11.993 13.243-54.752-38.953-54.752-38.953s43.978 61.809 18.148 66.063c-25.829 4.255-66.207-59.962-66.207-59.962s28.359 61.835-1.071 68.5c-29.43 6.664-48.773-53.387-48.773-53.387s21.722 48.031-11.933 44.49c-33.657-3.543-24.162-67.253-24.162-67.253s-4.792 8.42-33.06-6.548c-28.27-14.969-24.786-79.868-24.786-79.868l13.095-66.121s-46.839 15.711-30.084-21.575c16.753-37.285 48.505-87.216 70.138-86.054 21.634 1.16 49.993 62.995 49.993 62.995z"/><path fill="none" stroke="#000" stroke-linecap="round" stroke-linejoin="round" stroke-width="18" d="M1340.643 1623.62s33.803 81.654 69.927 120.043c36.124 38.386 85.519 104.388 73.527 117.63-11.993 13.243-54.752-38.953-54.752-38.953s43.978 61.809 18.148 66.063c-25.829 4.255-66.207-59.962-66.207-59.962s28.359 61.835-1.071 68.5c-29.43 6.664-48.773-53.387-48.773-53.387s21.722 48.031-11.933 44.49c-33.657-3.543-24.162-67.253-24.162-67.253s-4.792 8.42-33.06-6.548c-28.27-14.969-24.786-79.868-24.786-79.868l13.095-66.121s-46.839 15.711-30.084-21.575c16.753-37.285 48.505-87.216 70.138-86.054 21.634 1.16 49.993 62.995 49.993 62.995z"/></g><path fill="none" stroke="#000" stroke-linecap="round" stroke-linejoin="round" stroke-width="12" d="M-60.187-46.057S-7.15 27.575 7.148 27.575c14.298 0 25.085-18.395 25.085-18.395" style="display:block" transform="rotate(42.536 -2090.36 2620.137) scale(1.5)"/><path fill="none" stroke="#000" stroke-linecap="round" stroke-linejoin="round" stroke-width="12" d="M-50.627-72.521S2.042 29.617 12.255 33.702c10.213 4.085 30.638-14.298 30.638-14.298" style="display:block" transform="rotate(32.259 -3109.284 2944.362) scale(1.5)"/><g style="display:block"><path fill="#C9C5C3" d="M864.077 1924.488s-75.062-19.32-83.163-3.399c-8.101 15.923 65.68 16.907 65.68 16.907s-52.174.578-57.218 16.286c-5.044 15.71 64.4-1.432 64.4-1.432s-47.836 18.702-46.767 33.984c1.068 15.281 60.274-16.5 60.274-16.5s-52.666 37.466-36.956 42.51c15.71 5.046 47.192-27.87 47.192-27.87s-39.368 51.894-24.3 47.769c15.069-4.124 43.493-36.826 43.493-36.826s-24.088 50.826-6.178 43.43c17.912-7.394 25.37-32.487 30.415-48.195 5.044-15.71-56.872-66.664-56.872-66.664z"/><path fill="none" stroke="#000" stroke-linecap="round" stroke-linejoin="round" stroke-width="18" d="M864.077 1924.488s-75.062-19.32-83.163-3.399c-8.101 15.923 65.68 16.907 65.68 16.907s-52.174.578-57.218 16.286c-5.044 15.71 64.4-1.432 64.4-1.432s-47.836 18.702-46.767 33.984c1.068 15.281 60.274-16.5 60.274-16.5s-52.666 37.466-36.956 42.51c15.71 5.046 47.192-27.87 47.192-27.87s-39.368 51.894-24.3 47.769c15.069-4.124 43.493-36.826 43.493-36.826s-24.088 50.826-6.178 43.43c17.912-7.394 25.37-32.487 30.415-48.195 5.044-15.71-56.872-66.664-56.872-66.664z"/></g><g style="display:block"><path fill="#C9C5C3" d="M1376.527 1172.347s-59.08-84.34-108.416-115.374c-36.084-22.697-100.323-16.293-152.818-.026-47.637 21.744-224.751 51.668-272.41 502.836-32.427 306.971 8.411 445.454 127.545 480.122 119.134 34.667 193.886 4.37 250.622-17.525 77.757-30.009 131.062-58.306 144.056-135.998 12.995-77.691 6.712-115.462-5.214-162.414-18.013-70.916-39.196-157.685-40.765-247.523-1.153-66.044-23.585-183.243-1.962-223.45 25.441-47.308 59.362-80.648 59.362-80.648z"/><path fill="#FFF" d="M1279.146 1084.113c-30.928-19.456-50.778-19.35-82.04-13.115-31.26 6.235-68.216 39.825-61.647 90.002 6.567 50.176 45.062 87.339 68.26 101.93 23.197 14.593 68.59 31.635 98.646 18.166 30.055-13.47 71.647-76.157 68.072-89.917-3.576-13.76-10.933-36.376-22.657-45.189-11.723-8.812-37.705-42.422-68.634-61.877z"/><path fill="none" stroke="#000" stroke-linecap="round" stroke-linejoin="round" stroke-width="18" d="M1376.527 1172.347s-58.37-80.318-107.32-114.279c-26.652-23.214-99.226-18.293-153.914-1.12-48.665 20.875-224.751 51.667-272.41 502.835-32.427 306.971 8.411 445.454 127.545 480.122 119.134 34.667 193.886 4.37 250.622-17.525 77.757-30.009 131.062-58.306 144.056-135.998 12.995-77.691 6.712-115.462-5.214-162.414-18.013-70.916-39.196-157.685-40.765-247.523-1.153-66.044-23.585-183.243-1.962-223.45 25.441-47.308 59.362-80.648 59.362-80.648z"/><path fill="none" stroke="#000" stroke-linecap="round" stroke-linejoin="round" stroke-width="21" d="M1257.026 1174.878s.11-1.062.507-10.624c.312-7.557-1.57-12.56-1.57-12.56"/><path fill="none" stroke="#000" stroke-linecap="round" stroke-linejoin="round" stroke-width="18" d="M1207.433 1100.858s29.633-19.954 58.124-3.04"/></g><g style="display:block"><path fill="#C9C5C3" d="M999.703 1529.748c-33.834-.706-84.36 67.325-133.391 156.751-39.66 72.336-53.007 120.417-44.544 153.609 8.464 33.192 19.558 60.058 39.243 34.11 19.684-25.946 41.42-110.391 41.42-110.391s-13.699 111.525 17.078 112.444c30.778.92 32.53-149.697 32.53-149.697s12.739 94.32 36.762 86.497c24.024-7.822 11.136-148.202 11.136-148.202s15.58 91.05 42.018 73.845c26.439-17.206 10.218-117.425.409-125.953-9.811-8.527 27.227 38.024 35.114 19.044 7.886-18.98-43.942-101.351-77.775-102.057z"/><path fill="none" stroke="#000" stroke-linecap="round" stroke-linejoin="round" stroke-width="18" d="M999.703 1529.748c-33.834-.706-84.36 67.325-133.391 156.751-39.66 72.336-53.007 120.417-44.544 153.609 8.464 33.192 19.558 60.058 39.243 34.11 19.684-25.946 41.42-110.391 41.42-110.391s-13.699 111.525 17.078 112.444c30.778.92 32.53-149.697 32.53-149.697s12.739 94.32 36.762 86.497c24.024-7.822 11.136-148.202 11.136-148.202s15.58 91.05 42.018 73.845c26.439-17.206 10.218-117.425.409-125.953-9.811-8.527 27.227 38.024 35.114 19.044 7.886-18.98-43.942-101.351-77.775-102.057z"/></g><g style="display:block"><path fill="#F59C49" d="M1320.997 1215.855c-18.004 8.647-26.148 16.043-39.884 34.029-11.501 15.057-20.379 42.565 1.775 67.118 12.314 13.649 54.784 43.877 88.7 63.243 60.92 34.786 108.127 50.88 146.643 54.265 38.515 3.386 42.34-.41 33.604-18.371-14.089-28.962-96.478-131.934-135.268-173.968-51.403-55.7-69.297-38.934-95.57-26.316z"/><path fill="none" stroke="#000" stroke-linecap="round" stroke-linejoin="round" stroke-width="18" d="M1320.997 1215.855c-18.004 8.647-26.148 16.043-39.884 34.029-11.501 15.057-20.379 42.565 1.775 67.118 12.314 13.649 54.784 43.877 88.7 63.243 60.92 34.786 108.127 50.88 146.643 54.265 38.515 3.386 42.34-.41 33.604-18.371-14.089-28.962-96.478-131.934-135.268-173.968-51.403-55.7-69.297-38.934-95.57-26.316z"/><path fill="#F57449" d="M1333.534 1221.222c-19.364 14.08-40.746 29.26 1.462 58.562 46.43 32.232 203.28 149.878 206.936 137.404 3.656-12.475-86.256-127.434-113.06-157.301-26.803-29.867-58.728-65.282-95.338-38.665z"/></g><g style="display:block"><path fill="#F59C49" d="M1572.678 1426.367c23.906-1.051-64.388-120.819-99.853-166.98-43.184-56.212-76.525-93.306-93.65-100.814-25.87-11.345-49.325 10.298-68.555 43.524-19.23 33.226-12.231 59.455 8.365 75.612 20.596 16.158 69.786 51.582 110.32 78.113 59.624 39.028 108.44 72.082 143.373 70.545z"/><path fill="none" stroke="#000" stroke-linecap="round" stroke-linejoin="round" stroke-width="18" d="M1572.678 1426.367c23.906-1.051-64.388-120.819-99.853-166.98-43.184-56.212-76.525-93.306-93.65-100.814-25.87-11.345-49.325 10.298-68.555 43.524-19.23 33.226-12.231 59.455 8.365 75.612 20.596 16.158 69.786 51.582 110.32 78.113 59.624 39.028 108.44 72.082 143.373 70.545z"/><path fill="#FFF" d="M1355.277 1222.392c1.992 14.578 36.016 28.268 67.543 54.036 35.98 29.412 99.676 88.125 99.676 88.125s-52.372-75.92-91.077-116.267c-18.138-18.906-38.103-43.539-52.774-44.644-14.672-1.106-25.457 3.478-23.368 18.75z"/></g></g></g></g></svg>