<svg xmlns="http://www.w3.org/2000/svg" width="64" height="64" style="width:100%;height:100%;transform:translate3d(0,0,0);content-visibility:visible"><defs><clipPath id="a"><path d="M0 0h64v64H0z"/></clipPath><clipPath id="b"><path d="M0 0h2048v2048H0z"/></clipPath><clipPath id="c"><path fill="#fff" d="M1035.364 83.091c-320.074 0-579.546 259.471-579.546 579.545 0 320.074 259.472 579.546 579.546 579.546 320.074 0 579.545-259.472 579.545-579.546 0-320.074-259.471-579.545-579.545-579.545"/></clipPath></defs><g clip-path="url(#a)"><g clip-path="url(#b)" style="display:block" transform="matrix(.055 0 0 .055 -24.32 -3.82)"><g clip-path="url(#c)"><path fill="none" stroke="#000" stroke-linecap="round" stroke-linejoin="round" stroke-width="8" d="M15.358-43.98c1.396 11.169 2.792 80.978-5.585 83.77-8.377 2.793-27.923 4.19-27.923 4.19" style="display:block" transform="matrix(2.05 0 0 2.05 1165.42 1791)"/><path fill="none" stroke="#000" stroke-linecap="round" stroke-linejoin="round" stroke-width="8" d="M15.358-43.98c1.396 11.169 2.792 80.978-5.585 83.77-8.377 2.793-27.923 4.19-27.923 4.19" style="display:block" transform="matrix(2.05 0 0 2.05 919.532 1791)"/><g style="display:block"><path fill="none" stroke="#000" stroke-linecap="round" stroke-linejoin="round" stroke-width="16.4" d="M1034.166 320.363c58.49-22.544 49.72-57.63 42.701-85.698M1092.06 320.365c34.091-13.139 45.332-30.54 47.388-48.327M1132.814 331.898c12.784-4.926 32.51-13.755 40.2-32.21"/></g><g style="display:block"><path fill="#FFD641" d="M1336.881 1544.1c-37.359 86.565-93.324 216.365-344.513 201.443-332.06-19.727-285.124-427.82-236.854-570.4 75.204-209.967 210.553-373.184 187.54-425.787-23.016-52.603-36.166-134.798-46.029-269.595-9.865-134.798 108.109-161.102 164.387-161.102 98.632 0 157.812 92.06 167.674 256.447 4.932 82.193 7.302 172.895 18.292 257.685 7.915 61.051 25.293 213.436 42.396 361.153 17.274 149.168 111.485 200.986 47.107 350.156z"/><path fill="none" stroke="#000" stroke-linecap="round" stroke-linejoin="round" stroke-width="16.4" d="M1336.881 1544.1c-37.359 86.565-93.324 216.365-344.513 201.443-332.06-19.727-285.124-427.82-236.854-570.4 75.204-209.967 210.553-373.184 187.54-425.787-23.016-52.603-36.166-134.798-46.029-269.595-9.865-134.798 108.109-161.102 164.387-161.102 98.632 0 157.812 92.06 167.674 256.447 4.932 82.193 7.302 172.895 18.292 257.685 7.915 61.051 25.293 213.436 42.396 361.153 17.274 149.168 111.485 200.986 47.107 350.156z"/><path fill="none" stroke="#000" stroke-dasharray="51.24999999999999 59.449999999999996" stroke-linecap="round" stroke-linejoin="round" stroke-width="16.4" d="M999.025 795.543s-200.988 326.606-221.4 488.338M1025.718 822.236s-185.287 345.45-199.42 549.576M1022.577 922.73s-113.055 241.813-127.186 445.941M1088.528 828.517s-191.569 482.055-84.794 808.66"/><path fill="none" stroke="#000" stroke-dasharray="51.24999999999999 59.449999999999996" stroke-linecap="round" stroke-linejoin="round" stroke-width="16.4" d="M1123.07 848.93s-141.318 441.23-45.536 808.66"/><path fill="none" stroke="#000" stroke-dasharray="51.24999999999999 59.449999999999996" stroke-linecap="round" stroke-linejoin="round" stroke-width="16.4" d="M1127.781 979.257s-73.8 364.29 6.281 664.2"/></g><g style="display:block"><path fill="none" stroke="#000" stroke-linecap="round" stroke-linejoin="round" stroke-width="16.4" d="M1054.244 488.916s-.574 15.582 5.457 26.133M933.736 479.22s-.574 15.581 5.458 26.133"/></g><g style="display:block"><path fill="#F69B48" d="M962.038 620.474c11.933 4.228 91.638 8.798 91.638 8.798s-8.523 59.289-166.426 178.503c-49.887 37.664-152.898 89.355-164.001 77.124-11.102-12.233 158.624-243.443 180.883-264.277 22.258-20.836 45.973-4.376 57.906-.148z"/><path fill="none" stroke="#000" stroke-linecap="round" stroke-linejoin="round" stroke-width="16.4" d="M962.038 620.474c11.933 4.228 91.638 8.798 91.638 8.798s-8.523 59.289-166.426 178.503c-49.887 37.664-152.898 89.355-164.001 77.124-11.102-12.233 158.624-243.443 180.883-264.277 22.258-20.836 45.973-4.376 57.906-.148z"/><path fill="#E58D45" d="M967.312 618.419c-11.933-4.228-35.65-20.687-57.908.15-17.722 16.587-128.924 166.536-167.913 233.14 35.094-16.245 77.55-40.682 104.5-61.031C963.803 701.73 998.45 646.155 1008.453 623.66c-18.423-1.552-36.021-3.428-41.14-5.242z"/><path fill="none" stroke="#000" stroke-linecap="round" stroke-linejoin="round" stroke-width="16.4" d="M967.312 618.419c-11.933-4.228-35.65-20.687-57.908.15-17.722 16.587-128.924 166.536-167.913 233.14 35.094-16.245 77.55-40.682 104.5-61.031C963.803 701.73 998.45 646.155 1008.453 623.66c-18.423-1.552-36.021-3.428-41.14-5.242z"/></g><g style="display:block"><path fill="#F69B48" d="M922.8 518.124C858.866 526.68 738.902 711.216 722.77 749.2c-16.13 37.987-64.525 155.107-41.94 158.272 22.583 3.166 335.103-226.609 370.593-283.586-19.574 25.783-37.663.369-50.568-37.618-12.904-37.984-7.078-77.64-78.055-68.144z"/><path fill="none" stroke="#000" stroke-linecap="round" stroke-linejoin="round" stroke-width="16.4" d="M922.8 518.124C858.866 526.68 738.902 711.216 722.77 749.2c-16.13 37.987-64.525 155.107-41.94 158.272 22.583 3.166 335.103-226.609 370.593-283.586-19.574 25.783-37.663.369-50.568-37.618-12.904-37.984-7.078-77.64-78.055-68.144z"/></g><g style="display:block"><path fill="#FFD641" d="M1242.091 953.686c45.457 84.062 62.173 181.69 62.041 243.568-.262 123.76-23.45 116.073 7.94 215.183 15.695 49.558-6.94 109.531-42.39 73.86-35.453-35.675-64.33-125.801-65.532-177.773-1.201-51.97-5.878-200.789-5.878-200.789"/><path fill="none" stroke="#000" stroke-linecap="round" stroke-linejoin="round" stroke-width="16.4" d="M1242.091 953.686c45.457 84.062 62.173 181.69 62.041 243.568-.262 123.76-23.45 116.073 7.94 215.183 15.695 49.558-6.94 109.531-42.39 73.86-35.453-35.675-64.33-125.801-65.532-177.773-1.201-51.97-5.878-200.789-5.878-200.789"/></g></g></g></g></svg>