<svg xmlns="http://www.w3.org/2000/svg" width="64" height="64" style="width:100%;height:100%;transform:translate3d(0,0,0);content-visibility:visible"><defs><clipPath id="a"><path d="M0 0h64v64H0z"/></clipPath><clipPath id="b"><path d="M0 0h2400v2400H0z"/></clipPath><clipPath id="c"><path fill="#fff" d="M1203.41 294.318c-316.309 0-572.728 256.419-572.728 572.728 0 316.31 256.419 572.728 572.727 572.728s572.727-256.418 572.727-572.728c0-316.309-256.419-572.728-572.727-572.728"/></clipPath></defs><g clip-path="url(#a)"><g clip-path="url(#b)" style="display:block" transform="matrix(.055 0 0 .055 -34.25 -14.75)"><g clip-path="url(#c)"><path fill-opacity=".2" d="M244.341 0c0 17.767-109.396 32.171-244.341 32.171S-244.34 17.767-244.34 0c0-17.768 109.395-32.171 244.34-32.171S244.341-17.768 244.341 0z" style="display:block" transform="matrix(1.5501 0 0 1.54025 1177.759 2231.805)"/><g style="display:block"><path fill="none" stroke="#000" stroke-linecap="round" stroke-linejoin="round" stroke-width="18.799999999999997" d="M982.538 1989.612s-41.807 226.68-52.29 230.89c-10.484 4.21-55.833 1.653-55.833 1.653"/><path fill="#46BEDE" d="M969.779 1944.247c-26.864 20.584-84.692 71.813-70.063 84.514 14.629 12.7 66.162-41.482 66.162-41.482s-34.214 74.906-13.023 76.242c21.19 1.336 47.46-67.77 47.46-67.77s9.5 56.387 23.742 53.541c14.24-2.847 19.01-85.725 10.52-101.69-8.489-15.965-20.843-37.038-64.798-3.355z"/><path fill="none" stroke="#000" stroke-linecap="round" stroke-linejoin="round" stroke-width="18.799999999999997" d="M969.779 1944.247c-26.864 20.584-84.692 71.813-70.063 84.514 14.629 12.7 66.162-41.482 66.162-41.482s-34.214 74.906-13.023 76.242c21.19 1.336 47.46-67.77 47.46-67.77s9.5 56.387 23.742 53.541c14.24-2.847 19.01-85.725 10.52-101.69-8.489-15.965-20.843-37.038-64.798-3.355z"/></g><g style="display:block"><path fill="none" stroke="#000" stroke-linecap="round" stroke-linejoin="round" stroke-width="18.799999999999997" d="M1397.891 1979.876s38.075 223.84 46.512 236.85c8.438 13.012 68.49 15.508 68.49 15.508"/><path fill="#46BEDE" d="M1418.27 1940.566c24.154 23.705 75.308 81.6 59.24 92.423-16.067 10.823-60.613-49.236-60.613-49.236s24.83 78.517 3.634 77.26c-21.195-1.256-38.847-73.049-38.847-73.049s-16.301 54.81-30.09 50.25c-13.787-4.561-8.42-87.403 1.951-102.215 10.371-14.811 25.202-34.221 64.724 4.567z"/><path fill="none" stroke="#000" stroke-linecap="round" stroke-linejoin="round" stroke-width="18.799999999999997" d="M1418.27 1940.566c24.154 23.705 75.308 81.6 59.24 92.423-16.067 10.823-60.613-49.236-60.613-49.236s24.83 78.517 3.634 77.26c-21.195-1.256-38.847-73.049-38.847-73.049s-16.301 54.81-30.09 50.25c-13.787-4.561-8.42-87.403 1.951-102.215 10.371-14.811 25.202-34.221 64.724 4.567z"/></g><g style="display:block"><path fill="#46BEDE" d="M1006.456 1391.79s-40.614 52.027-34.695 77.265c5.916 25.236 60.352 5.074 60.352 5.074s-56.307 54.397-47.344 86.311c8.963 31.919 53.474-12.418 53.474-12.418s-66.198 98.767-34.758 141.066c16.322 21.96 61.415-32.058 61.415-32.058s9.087 73.21 31.267 80.077c22.181 6.867 38.363-50.609 38.363-50.609s24.497 34.087 47.608 44.006c23.108 9.918 6.921-46.14 6.921-46.14s9.423 69.255 44.813 77.532c35.39 8.278 9.38-62.12 9.38-62.12s41.335 57.35 74.156 46.146c28.457-9.713 10.233-40.549-10.905-60.111-43.188-39.967-124.361-44.919-154.558-107.36-27.489-56.842-15.805-117.711 12.632-157.567 41.85-58.652 36.286-94.878 36.286-94.878s-31.577-91.883-80.814-70.94c-30.605 13.019-71.325 72.133-89.461 97.176-15.319 21.154-24.132 39.549-24.132 39.549z"/><path fill="none" stroke="#000" stroke-linecap="round" stroke-linejoin="round" stroke-width="18.799999999999997" d="M1006.456 1391.79s-40.614 52.027-34.695 77.265c5.916 25.236 60.352 5.074 60.352 5.074s-56.307 54.397-47.344 86.311c8.963 31.919 53.474-12.418 53.474-12.418s-66.198 98.767-34.758 141.066c16.322 21.96 61.415-32.058 61.415-32.058s9.087 73.21 31.267 80.077c22.181 6.867 38.363-50.609 38.363-50.609s24.497 34.087 47.608 44.006c23.108 9.918 6.921-46.14 6.921-46.14s9.423 69.255 44.813 77.532c35.39 8.278 9.38-62.12 9.38-62.12s41.335 57.35 74.156 46.146c28.457-9.713 10.233-40.549-10.905-60.111-43.188-39.967-124.361-44.919-154.558-107.36-27.489-56.842-15.805-117.711 12.632-157.567 41.85-58.652 36.286-94.878 36.286-94.878s-31.577-91.883-80.814-70.94c-30.605 13.019-71.325 72.133-89.461 97.176-15.319 21.154-24.132 39.549-24.132 39.549z"/></g><g style="display:block"><path fill="#46BEDE" d="M1297.761 667.56c-109.933-4.997-210.24 75.842-230.401 170.881-20.16 95.04 17.28 149.76-21.12 245.76-33.57 83.923-218.061 411.088-181.439 640.32 25.92 162.24 95.038 288 311.037 290.88 216 2.88 366.635-160.171 374.404-316.802 11.518-232.319-67.203-516.479-75.843-637.438-8.64-120.961 34.131-130.077 19.2-224.64-17.279-109.44-132.478-166.08-195.838-168.96z"/><path fill="none" stroke="#000" stroke-linecap="round" stroke-linejoin="round" stroke-width="18.799999999999997" d="M1297.761 667.56c-109.933-4.997-210.24 75.842-230.401 170.881-20.16 95.04 17.28 149.76-21.12 245.76-33.57 83.923-218.061 411.088-181.439 640.32 25.92 162.24 95.038 288 311.037 290.88 216 2.88 366.635-160.171 374.404-316.802 11.518-232.319-67.203-516.479-75.843-637.438-8.64-120.961 34.131-130.077 19.2-224.64-17.279-109.44-132.478-166.08-195.838-168.96z"/><path fill="none" stroke="#000" stroke-dasharray="65.57252 68.7704" stroke-linecap="round" stroke-linejoin="round" stroke-width="15.04" d="M1125.39 1035.26c-28.102 103.505-155.764 547.674-193.76 642.827"/><path fill="none" stroke="#000" stroke-dasharray="69.98111999999999 73.39332" stroke-linecap="round" stroke-linejoin="round" stroke-width="15.04" d="M1173.967 1004.033c-32.46 176.207-138.727 697.849-198.411 816.627"/><path fill="none" stroke="#000" stroke-dasharray="80.62756 84.56052" stroke-linecap="round" stroke-linejoin="round" stroke-width="15.04" d="M1245.792 966.964c-19.75 207.424-132.222 774.97-174.975 949.138"/><path fill="none" stroke="#000" stroke-dasharray="74.00056 77.61016" stroke-linecap="round" stroke-linejoin="round" stroke-width="15.04" d="M1399.616 778.815c52.42 273.82-1.536 819.667 41.665 1013.798"/><path fill="none" stroke="#000" stroke-dasharray="75.97268 79.67815999999999" stroke-linecap="round" stroke-linejoin="round" stroke-width="15.04" d="M1344.45 838.477c36.71 273.085-29.942 870.594 3.197 1058.466"/><path fill="none" stroke="#000" stroke-dasharray="73.87648 77.48044" stroke-linecap="round" stroke-linejoin="round" stroke-width="15.04" d="M1300.192 874.402c2.008 259.718-97.67 887.42-80.306 1074.205"/><path fill="none" stroke="#FFF" stroke-linecap="round" stroke-linejoin="round" stroke-width="15.04" d="M1463.52 1064.36c-8.64-120.958 34.13-130.073 19.2-224.637-3.242-20.52-9.921-39.185-19.06-55.986"/></g><g style="display:block"><path fill="#46BEDE" d="M1558.757 1356.714s42.357 50.617 37.3 76.042c-5.057 25.422-60.146 7.12-60.146 7.12s58.122 52.453 50.248 84.654c-7.874 32.204-53.865-10.596-53.865-10.596s69.514 96.462 39.528 139.804c-15.567 22.502-62.469-29.953-62.469-29.953s-6.595 73.475-28.529 81.092c-21.935 7.617-40.06-49.277-40.06-49.277s-23.325 34.9-46.085 45.597c-22.759 10.697-8.484-45.877-8.484-45.877s-7.066 69.534-42.155 79.008c-35.089 9.475-11.484-61.766-11.484-61.766s-39.364 58.72-72.546 48.638c-28.77-8.741-11.604-40.178 8.858-60.447 41.805-41.41 122.764-49.115 150.822-112.547 25.543-57.742 11.8-118.18-17.975-157.046-43.817-57.197-39.486-93.592-39.486-93.592s28.439-92.902 78.358-73.642c31.03 11.972 73.733 69.669 92.71 94.082 16.027 20.621 25.46 38.706 25.46 38.706z"/><path fill="none" stroke="#000" stroke-linecap="round" stroke-linejoin="round" stroke-width="18.799999999999997" d="M1558.757 1356.714s42.357 50.617 37.3 76.042c-5.057 25.422-60.146 7.12-60.146 7.12s58.122 52.453 50.248 84.654c-7.874 32.204-53.865-10.596-53.865-10.596s69.514 96.462 39.528 139.804c-15.567 22.502-62.469-29.953-62.469-29.953s-6.595 73.475-28.529 81.092c-21.935 7.617-40.06-49.277-40.06-49.277s-23.325 34.9-46.085 45.597c-22.759 10.697-8.484-45.877-8.484-45.877s-7.066 69.534-42.155 79.008c-35.089 9.475-11.484-61.766-11.484-61.766s-39.364 58.72-72.546 48.638c-28.77-8.741-11.604-40.178 8.858-60.447 41.805-41.41 122.764-49.115 150.822-112.547 25.543-57.742 11.8-118.18-17.975-157.046-43.817-57.197-39.486-93.592-39.486-93.592s28.439-92.902 78.358-73.642c31.03 11.972 73.733 69.669 92.71 94.082 16.027 20.621 25.46 38.706 25.46 38.706z"/><path fill="none" stroke="#46BEDE" stroke-dasharray="146.64 1695.76" stroke-dashoffset="255.67999999999998" stroke-linecap="round" stroke-miterlimit="10" stroke-width="22.56" d="M1558.757 1356.714s42.357 50.617 37.3 76.042c-5.057 25.422-60.146 7.12-60.146 7.12s58.122 52.453 50.248 84.654c-7.874 32.204-53.865-10.596-53.865-10.596s69.514 96.462 39.528 139.804c-15.567 22.502-62.469-29.953-62.469-29.953s-6.595 73.475-28.529 81.092c-21.935 7.617-40.06-49.277-40.06-49.277s-23.325 34.9-46.085 45.597c-22.759 10.697-8.484-45.877-8.484-45.877s-7.066 69.534-42.155 79.008c-35.089 9.475-11.484-61.766-11.484-61.766s-39.364 58.72-72.546 48.638c-28.77-8.741-11.604-40.178 8.858-60.447 41.805-41.41 122.764-49.115 150.822-112.547 25.543-57.742 11.8-118.18-17.975-157.046-43.817-57.197-39.486-93.592-39.486-93.592s28.439-92.902 78.358-73.642c31.03 11.972 73.733 69.669 92.71 94.082 16.027 20.621 25.46 38.706 25.46 38.706z"/></g><g style="display:block"><path fill="#FFF" d="M1220.48 691.24c31.68 0 96.145 3.062 106.72 44.55 24.96 97.921-55.691 136.314-101.772 136.314-46.078 0-141.268-4.222-143.188-41.662-1.23-23.97 19.657-61.653 38.4-83.521 23.038-26.88 68.158-55.68 99.84-55.68z"/><path fill="none" stroke="#000" stroke-linecap="round" stroke-linejoin="round" stroke-width="18.799999999999997" d="M1254.783 772.835c-11.52 12-10.177 36.092-10.177 36.092m-87.852-46.835c-11.519 12-11.519 30.72-11.519 30.72"/></g><g style="display:block"><path fill="#DF9F69" d="M1088.036 816.28c-8.855-3.23-21.526 15.177-102.167 15.177-80.64 0-285.117-11.519-293.757-14.4-8.64-2.88 23.488 65.965 208.8 79.2 181.439 12.96 246.24-12.959 246.24-12.959s-107.635 30.19-182.626 25.628c-104.641-6.367-214.638-45.163-214.638-45.163s66.937 71.709 203.863 88.698c153.606 19.06 300.832-91.377 293.732-92.575-62.783-10.582-65.47-19.984-82.814-37.415-15.892-.027-40.398 7.025-76.633-6.191z"/><path fill="none" stroke="#000" stroke-linecap="round" stroke-linejoin="round" stroke-width="18.799999999999997" d="M1088.036 816.28c-8.855-3.23-21.526 15.177-102.167 15.177-80.64 0-285.117-11.519-293.757-14.4-8.64-2.88 23.488 65.965 208.8 79.2 181.439 12.96 246.24-12.959 246.24-12.959s-107.635 30.19-182.626 25.628c-104.641-6.367-214.638-45.163-214.638-45.163s66.937 71.709 203.863 88.698c153.606 19.06 300.832-91.377 293.732-92.575-62.783-10.582-65.47-19.984-82.814-37.415-15.892-.027-40.398 7.025-76.633-6.191z"/><path fill="#F9BA85" d="M1088.036 816.28c-8.855-3.23-21.526 15.177-102.167 15.177-80.64 0-285.117-11.519-293.757-14.4-8.64-2.88 23.488 65.965 208.8 79.2 181.439 12.96 246.24-12.959 246.24-12.959s-107.635 30.19-182.626 25.628c-104.641-6.367-214.638-45.163-214.638-45.163s66.937 71.709 203.863 88.698c153.606 19.06 300.832-91.377 293.732-92.575-62.783-10.582-65.47-19.984-82.814-37.415-15.892-.027-40.398 7.025-76.633-6.191z"/><path fill="none" stroke="#000" stroke-linecap="round" stroke-linejoin="round" stroke-width="18.799999999999997" d="M1088.036 816.28c-8.855-3.23-21.526 15.177-102.167 15.177-80.64 0-285.117-11.519-293.757-14.4-8.64-2.88 23.488 65.965 208.8 79.2 181.439 12.96 246.24-12.959 246.24-12.959s-107.635 30.19-182.626 25.628c-104.641-6.367-214.638-45.163-214.638-45.163s66.937 71.709 203.863 88.698c153.606 19.06 300.832-91.377 293.732-92.575-62.783-10.582-65.47-19.984-82.814-37.415-15.892-.027-40.398 7.025-76.633-6.191z"/><path fill="#FFF" d="M1076.765 833.655s-31.25 10.45-100.37 11.89c-80.675 1.681-207.446-4.727-218.966-4.727 15.839 5.76 100.602 29.331 221.593 30.343 93.042.778 135.441-26.18 135.441-26.18l-37.698-11.326z"/></g></g></g></g></svg>