<svg xmlns="http://www.w3.org/2000/svg" width="64" height="64" style="width:100%;height:100%;transform:translate3d(0,0,0);content-visibility:visible"><defs><clipPath id="a"><path d="M0 0h64v64H0z"/></clipPath><clipPath id="b"><path d="M0 0h2400v2400H0z"/></clipPath><clipPath id="c"><path fill="#fff" d="M1204.545 636.364c-316.308 0-572.727 256.418-572.727 572.727 0 316.308 256.419 572.727 572.727 572.727 316.309 0 572.728-256.419 572.728-572.727 0-316.309-256.419-572.727-572.728-572.727"/></clipPath></defs><g clip-path="url(#a)"><g clip-path="url(#b)" style="display:block" transform="matrix(.055 0 0 .055 -34 -34)"><g clip-path="url(#c)"><g opacity=".2" style="display:block"><path d="M1610.397 2327.162c0 40.949-188.267 74.144-420.505 74.144-232.24 0-420.506-33.195-420.506-74.144 0-40.949 188.266-74.144 420.506-74.144 232.238 0 420.505 33.195 420.505 74.144z" opacity="1"/></g><g style="display:block"><path fill="#FFD34D" d="M1374.334 1510.41c15.475 120.854-37.463 180.32 45.348 279.241 82.811 98.92 159.008 145.695 155.785 165.685-3.224 19.99-50.483 12.235-79.45-16.341 3.038 33.018-8.264 55.769-24.87 42.9-16.606-12.867-50.82-60.641-50.98-70.987 1.056 35.573-29.763 56.398-45.065 24.643-9.54-19.801-15.605-48.962-13.498-59.596-5.457 38.703-26.564 44.836-35.954 25.294-9.39-19.542-21.53-69.835-18.306-89.825-10.854 32.476-36.459 39.688-41.89 15.036-5.43-24.651 11.961-105.691-4.29-79.44-16.251 26.25-41.134 24.727-42.27-16.524-1-36.3-1.262-72.406 2.122-82.05-18.933 32.35-39.47 41.438-40.774 22.52-1.195-17.364 2.29-62.56 10.911-76.324-21.937 17.757-44.927 19.086-41.326-44.286 2.337-41.135 10.549-62.8 25.318-92.661 41.93-84.772 183.714-68.14 199.189 52.715z"/><path fill="none" stroke="#000" stroke-linecap="round" stroke-linejoin="round" stroke-width="11" d="M1374.334 1510.41c15.475 120.854-37.463 180.32 45.348 279.241 82.811 98.92 159.008 145.695 155.785 165.685-3.224 19.99-50.483 12.235-79.45-16.341 3.038 33.018-8.264 55.769-24.87 42.9-16.606-12.867-50.82-60.641-50.98-70.987 1.056 35.573-29.763 56.398-45.065 24.643-9.54-19.801-15.605-48.962-13.498-59.596-5.457 38.703-26.564 44.836-35.954 25.294-9.39-19.542-21.53-69.835-18.306-89.825-10.854 32.476-36.459 39.688-41.89 15.036-5.43-24.651 11.961-105.691-4.29-79.44-16.251 26.25-41.134 24.727-42.27-16.524-1-36.3-1.262-72.406 2.122-82.05-18.933 32.35-39.47 41.438-40.774 22.52-1.195-17.364 2.29-62.56 10.911-76.324-21.937 17.757-44.927 19.086-41.326-44.286 2.337-41.135 10.549-62.8 25.318-92.661 41.93-84.772 183.714-68.14 199.189 52.715z"/><path fill="none" stroke="#FFF" stroke-linecap="round" stroke-linejoin="round" stroke-width="8.8" d="M1366.064 1610.556c-17.785 86.854 9.038 157.998 70.307 212.913"/></g><g style="display:block"><path fill="#FFD34D" d="M1251.574 1036.904c36.116 18.832 66.885 50.337 85.13 94.799 19.774 48.07 24.866 111.28 6.198 189.942-6.662 42.245 129.29 275.567 143.345 386.605 12.909 101.978-38.2 208.355-98.99 284.215-90.243 122.33-191.433 154.435-252.236 157.816-60.804 3.38-154.288-15.734-182.657-46.353-391.142-369.14 110.811-547.846 33.929-799.566-11.538-37.776-17.307-70.762-17.446-99.851-.458-101.104 61.528-155.122 128.465-177.124 88.545-29.103 154.262 9.517 154.262 9.517z"/><path fill="none" stroke="#000" stroke-linecap="round" stroke-linejoin="round" stroke-width="15.400000000000002" d="M1251.574 1036.904c36.116 18.832 66.885 50.337 85.13 94.799 19.774 48.07 24.866 111.28 6.198 189.942-6.662 42.245 129.29 275.567 143.345 386.605 12.909 101.978-38.2 208.355-98.99 284.215-90.243 122.33-191.433 154.435-252.236 157.816-60.804 3.38-154.288-15.734-182.657-46.353-391.142-369.14 110.811-547.846 33.929-799.566-11.538-37.776-17.307-70.762-17.446-99.851-.458-101.104 61.528-155.122 128.465-177.124 88.545-29.103 154.262 9.517 154.262 9.517z"/></g><g style="display:block"><path fill="#FFD34D" d="M949.014 2053.063c-115.43 206.784-475.686 188.347-474.33 164.452 1.988-35.062 338.383-.716 431.093-162.728"/><path fill="none" stroke="#000" stroke-linecap="round" stroke-linejoin="round" stroke-width="15.400000000000002" d="M949.014 2053.063c-115.43 206.784-475.686 188.347-474.33 164.452 1.988-35.062 338.383-.716 431.093-162.728"/></g><g style="display:block"><path fill="#FFD34D" d="M925.327 2035.913c-171.955 183.908-550.344 68.259-543.207 43.796 10.473-35.893 359.717 89.894 496.856-53.587"/><path fill="none" stroke="#000" stroke-linecap="round" stroke-linejoin="round" stroke-width="15.400000000000002" d="M925.327 2035.913c-171.955 183.908-550.344 68.259-543.207 43.796 10.473-35.893 359.717 89.894 496.856-53.587"/></g><g style="display:block"><path fill="#FFD34D" d="M905.23 2023.82c-254.444 134.895-622.688-132.803-605.929-156.66 24.592-35.005 357.46 232.736 559.208 128.616"/><path fill="none" stroke="#000" stroke-linecap="round" stroke-linejoin="round" stroke-width="15.400000000000002" d="M905.23 2023.82c-254.444 134.895-622.688-132.803-605.929-156.66 24.592-35.005 357.46 232.736 559.208 128.616"/></g><g style="display:block"><path fill="#FFD34D" d="M887.808 2002.387c-312.9 38.52-581.16-372.258-554.58-389.884 39-25.862 271.218 371.415 518.184 343.73"/><path fill="none" stroke="#000" stroke-linecap="round" stroke-linejoin="round" stroke-width="15.400000000000002" d="M887.808 2002.387c-312.9 38.52-581.16-372.258-554.58-389.884 39-25.862 271.218 371.415 518.184 343.73"/></g><g style="display:block"><path fill="none" stroke="#000" stroke-linecap="round" stroke-linejoin="round" stroke-width="15.400000000000002" d="M1052.577 2105.792s32.017 52.237 28.648 90.995c-3.37 38.757-58.979 89.311-58.979 89.311s42.127 21.907 52.238 5.056"/><path fill="#FFD34D" d="M1000.464 2049.118s-70.774 58.98-52.238 75.83 52.238-18.536 52.238-18.536-47.184 48.869-23.592 57.293c23.592 8.426 57.294-37.072 57.294-37.072s-23.59 57.294 3.37 60.664c26.962 3.37 45.498-42.128 45.498-42.128s-11.796 43.813 11.796 43.813c23.591 0 37.07-77.516 37.07-77.516"/><path fill="none" stroke="#000" stroke-linecap="round" stroke-linejoin="round" stroke-width="15.400000000000002" d="M1000.464 2049.118s-70.774 58.98-52.238 75.83 52.238-18.536 52.238-18.536-47.184 48.869-23.592 57.293c23.592 8.426 57.294-37.072 57.294-37.072s-23.59 57.294 3.37 60.664c26.962 3.37 45.498-42.128 45.498-42.128s-11.796 43.813 11.796 43.813c23.591 0 37.07-77.516 37.07-77.516"/></g><g style="display:block"><path fill="none" stroke="#000" stroke-linecap="round" stroke-linejoin="round" stroke-width="15.400000000000002" d="M1224.583 2110.579s32.017 52.238 28.647 90.995c-3.37 38.757-58.98 89.311-58.98 89.311s42.128 21.907 52.239 5.056"/><path fill="#FFD34D" d="M1155.453 2103.797s-7.18 91.85 17.825 90.341c25.007-1.508 23.197-50.343 23.197-50.343s2.05 67.897 24.552 56.888c22.503-11.01 13.454-66.902 13.454-66.902s24.552 56.889 45.788 39.937c21.235-16.951 1.6-61.985 1.6-61.985s23.133 39.031 39.603 22.14c16.47-16.892-29.62-80.658-29.62-80.658"/><path fill="none" stroke="#000" stroke-linecap="round" stroke-linejoin="round" stroke-width="15.400000000000002" d="M1155.453 2103.797s-7.18 91.85 17.825 90.341c25.007-1.508 23.197-50.343 23.197-50.343s2.05 67.897 24.552 56.888c22.503-11.01 13.454-66.902 13.454-66.902s24.552 56.889 45.788 39.937c21.235-16.951 1.6-61.985 1.6-61.985s23.133 39.031 39.603 22.14c16.47-16.892-29.62-80.658-29.62-80.658"/></g><g style="display:block"><path fill="#FFD34D" d="M1211.5 1619.186c-8.8 121.522-72.48 169.311-10.931 282.689 61.549 113.378 126.954 174.334 119.832 193.289-7.125 18.954-51.907 1.98-74.63-31.774-3.572 32.965-19.159 53.022-32.884 37.117-13.724-15.904-37.786-69.516-35.892-79.689-6.019 35.077-40.356 49.376-49.055 15.218-5.425-21.3-5.585-51.085-1.411-61.09-13.024 36.853-34.927 38.678-40.255 17.662-5.328-21.016-7.253-72.718-.128-91.671-17.08 29.678-43.606 31.67-44.04 6.43-.435-25.239 32.682-101.22 11.548-78.714s-45.221 16.078-38.154-24.577c6.219-35.779 13.122-71.218 18.352-80-24.974 27.952-46.905 32.787-44.43 13.987 2.272-17.257 14.652-60.864 25.83-72.645-25.02 13.054-47.819 9.799-31.721-51.603 10.448-39.853 22.791-59.46 43.19-85.799 57.909-74.772 193.578-30.353 184.778 91.17z"/><path fill="none" stroke="#000" stroke-linecap="round" stroke-linejoin="round" stroke-width="15.400000000000002" d="M1211.5 1619.186c-8.8 121.522-72.48 169.311-10.931 282.689 61.549 113.378 126.954 174.334 119.832 193.289-7.125 18.954-51.907 1.98-74.63-31.774-3.572 32.965-19.159 53.022-32.884 37.117-13.724-15.904-37.786-69.516-35.892-79.689-6.019 35.077-40.356 49.376-49.055 15.218-5.425-21.3-5.585-51.085-1.411-61.09-13.024 36.853-34.927 38.678-40.255 17.662-5.328-21.016-7.253-72.718-.128-91.671-17.08 29.678-43.606 31.67-44.04 6.43-.435-25.239 32.682-101.22 11.548-78.714s-45.221 16.078-38.154-24.577c6.219-35.779 13.122-71.218 18.352-80-24.974 27.952-46.905 32.787-44.43 13.987 2.272-17.257 14.652-60.864 25.83-72.645-25.02 13.054-47.819 9.799-31.721-51.603 10.448-39.853 22.791-59.46 43.19-85.799 57.909-74.772 193.578-30.353 184.778 91.17z"/><path fill="none" stroke="#FFF" stroke-linecap="round" stroke-linejoin="round" stroke-width="8.8" d="M1183.533 1715.703c-34.657 81.602-22.475 156.652 26.687 222.626"/></g><path fill="none" d="M0-169.5c93.547 0 169.5 75.953 169.5 169.5S93.547 169.5 0 169.5-169.5 93.547-169.5 0-93.547-169.5 0-169.5z" style="display:block" transform="rotate(-5.073 14210.354 -12500.09) scale(1.1)"/><g style="display:block"><path fill="#FFD34D" d="M1254.287 1061.754c42.297 6.396 286.304-141.58 218.872-189.73-25.892-18.487-43.23 97.446-236.127 173.217"/><path fill="none" stroke="#000" stroke-linecap="round" stroke-linejoin="round" stroke-width="15.400000000000002" d="M1254.287 1061.754c42.297 6.396 286.304-141.58 218.872-189.73-25.892-18.487-43.23 97.446-236.127 173.217"/></g><g style="display:block"><path fill="#FFD34D" d="M1229.197 1057.712c42.662-3.15 247.748-201.584 171.312-233.57-29.349-12.28-20.527 104.611-191.802 221.3"/><path fill="none" stroke="#000" stroke-linecap="round" stroke-linejoin="round" stroke-width="15.400000000000002" d="M1229.197 1057.712c42.662-3.15 247.748-201.584 171.312-233.57-29.349-12.28-20.527 104.611-191.802 221.3"/></g><g style="display:block"><path fill="#FFD34D" d="M1205.952 1044.632c41.333-11.022 205.979-244.105 124.93-261.331-31.118-6.615-.734 106.602-147.344 253.08"/><path fill="none" stroke="#000" stroke-linecap="round" stroke-linejoin="round" stroke-width="15.400000000000002" d="M1205.952 1044.632c41.333-11.022 205.979-244.105 124.93-261.331-31.118-6.615-.734 106.602-147.344 253.08"/></g><g style="display:block"><path fill="#FFF" d="M1348.001 1173.052c-12.318 65.019-117.607 49.604-166.694 28.69-29.433-12.54-54.609-40.676-39.135-90.976 15.472-50.32 118.913-55.301 142.58-45.714 23.667 9.587 55.086 60.64 63.25 108z"/><path fill="none" stroke="#000" stroke-linecap="round" stroke-linejoin="round" stroke-width="15.400000000000002" d="M1348.001 1173.052c-12.318 65.019-117.607 49.604-166.694 28.69-29.433-12.54-54.609-40.676-39.135-90.976 15.472-50.32 118.913-55.301 142.58-45.714 23.667 9.587 55.086 60.64 63.25 108z"/><path fill="none" stroke="#000" stroke-linecap="round" stroke-linejoin="round" stroke-width="15.400000000000002" d="M1187.142 1126.12c-4.683-14.763 1.213-33.838 24.1-32.497M1264.142 1062.12c21.853-1.621 35.854 11.879 47.1 27.002M1297.48 1125.871s5.016 8.861 7.514 17.943M1323.48 1106.871s5.016 8.86 7.514 17.942"/></g><g style="display:block"><path fill="#F89A51" d="M1297.686 1220.308c14.48-24.842 32.227 2.09 65.597 2.072 33.37-.018 106.603-6.079 127.872 2.687 19.824 8.172-133.687 68.048-153.965 71.811-20.278 3.763-2.484-27.976-39.504-76.57z"/><path fill="none" stroke="#000" stroke-linecap="round" stroke-linejoin="round" stroke-width="15.400000000000002" d="M1297.686 1220.308c14.48-24.842 32.227 2.09 65.597 2.072 33.37-.018 106.603-6.079 127.872 2.687 19.824 8.172-133.687 68.048-153.965 71.811-20.278 3.763-2.484-27.976-39.504-76.57z"/><path fill="#F89A51" d="M1489.805 1224.682s-117.12-23.438-144.274-24.41c-27.154-.974-51.401 18.096-51.401 18.096s175.234 11.98 195.675 6.314z"/><path fill="none" stroke="#000" stroke-linecap="round" stroke-linejoin="round" stroke-width="15.400000000000002" d="M1489.805 1224.682s-117.12-23.438-144.274-24.41c-27.154-.974-51.401 18.096-51.401 18.096s175.234 11.98 195.675 6.314z"/></g><g style="display:block"><path fill="#F89A51" d="M1347.976 1148.182c45.956 3.318 163.696 59.921 157.825 77.572-5.87 17.652-176.898-8.201-232.51-16.355 57.276-13.742 74.685-61.217 74.685-61.217z"/><path fill="none" stroke="#000" stroke-linecap="round" stroke-linejoin="round" stroke-width="15.400000000000002" d="M1347.976 1148.182c45.956 3.318 163.696 59.921 157.825 77.572-5.87 17.652-176.898-8.201-232.51-16.355 57.276-13.742 74.685-61.217 74.685-61.217z"/><path fill="none" stroke="#FFF" stroke-linecap="round" stroke-linejoin="round" stroke-width="8.8" d="M1373.16 1170.124c32.825 7.74 60.57 20.08 80.822 32.133"/></g></g></g></g></svg>