<svg xmlns="http://www.w3.org/2000/svg" width="64" height="64" style="width:100%;height:100%;transform:translate3d(0,0,0);content-visibility:visible"><defs><clipPath id="a"><path d="M0 0h64v64H0z"/></clipPath><clipPath id="b"><path d="M0 0h2400v2400H0z"/></clipPath><clipPath id="c"><path fill="#fff" d="M1202.273 622.727c-320.074 0-579.546 259.472-579.546 579.546 0 320.074 259.472 579.545 579.546 579.545 320.074 0 579.545-259.471 579.545-579.545 0-320.074-259.471-579.546-579.545-579.546"/></clipPath></defs><g clip-path="url(#a)"><g clip-path="url(#b)" style="display:block" transform="matrix(.055 0 0 .055 -34 -34)"><g clip-path="url(#c)"><g style="display:block"><path fill="#AB2FA8" d="M1113.362 1453.651c-31.98 46.072-52.595 135.39-48.676 205.791 3.919 70.4 17.286 186.805 81.11 295.347 37.389 63.58 127.11 170.942 248.784 145.763 114.369-23.669 169.213-92.379 116.868-107.6-52.346-15.224-119.688 27.906-145.86 20.295-26.173-7.61 58.191-21.799 57.886-49.156-.308-27.356-74.265-15.595-99.336-17.977-25.07-2.382 81.365-2.514 67.5-29.452-13.869-26.937-79.777-41.738-105.001-57.798-25.222-16.061 106.744 27.22 100.133-4.152-6.612-31.371-91.437-58.218-99.947-72.69-8.512-14.475 105.944 49.35 90.822 3.505-15.124-45.843-129.841-88.651-147.476-126.572-28.549-61.38 83.308-155.89 8.584-192.003-74.725-36.116-93.412-59.372-125.391-13.3z"/><path fill="none" stroke="#000" stroke-linecap="round" stroke-linejoin="round" stroke-width="19.52" d="M1113.362 1453.651c-31.98 46.072-52.595 135.39-48.676 205.791 3.919 70.4 17.286 186.805 81.11 295.347 37.389 63.58 127.11 170.942 248.784 145.763 114.369-23.669 169.213-92.379 116.868-107.6-52.346-15.224-119.688 27.906-145.86 20.295-26.173-7.61 58.191-21.799 57.886-49.156-.308-27.356-74.265-15.595-99.336-17.977-25.07-2.382 81.365-2.514 67.5-29.452-13.869-26.937-79.777-41.738-105.001-57.798-25.222-16.061 106.744 27.22 100.133-4.152-6.612-31.371-91.437-58.218-99.947-72.69-8.512-14.475 105.944 49.35 90.822 3.505-15.124-45.843-129.841-88.651-147.476-126.572-28.549-61.38 83.308-155.89 8.584-192.003-74.725-36.116-93.412-59.372-125.391-13.3z"/></g><g style="display:block"><path fill="#AB2FA8" d="M1542.02 1881.443s158.836-26.494 199.123 16.75c40.285 43.24-192.957 7.556-192.957 7.556s147.66 24.629 155.542 76.092c7.882 51.46-175.74-53.725-175.74-53.725s130.443 85.91 133.873 140.224c3.432 54.317-126.45-104.164-141.516-122.763-15.064-18.596 60.04 127.908 50.461 171.728-9.579 43.82-79.893-124.596-82.408-148.1-2.514-23.509 53.622-87.762 53.622-87.762z"/><path fill="none" stroke="#000" stroke-linecap="round" stroke-linejoin="round" stroke-width="19.52" d="M1542.02 1881.443s158.836-26.494 199.123 16.75c40.285 43.24-192.957 7.556-192.957 7.556s147.66 24.629 155.542 76.092c7.882 51.46-175.74-53.725-175.74-53.725s130.443 85.91 133.873 140.224c3.432 54.317-126.45-104.164-141.516-122.763-15.064-18.596 60.04 127.908 50.461 171.728-9.579 43.82-79.893-124.596-82.408-148.1-2.514-23.509 53.622-87.762 53.622-87.762z"/></g><path fill="none" stroke="#000" stroke-linecap="round" stroke-linejoin="round" stroke-width="8" d="M19.915-65.107C4.66-48.107 2.718-17.035 2.149 7.66 1.66 28.894 21.915 71.32 21.915 71.32l-32.702 1.787" style="display:block" transform="matrix(2.44 0 0 2.44 1330.95 2226.704)"/><path fill="none" stroke="#000" stroke-linecap="round" stroke-linejoin="round" stroke-width="8" d="M2.192-71.17C-10.063-53.574-13.915-18.787-10.852 5.724c3.064 24.51 21.724 67.421 21.724 67.421l-35.617 2.263" style="display:block" transform="matrix(2.44 0 0 2.44 1181.436 2222.96)"/><g style="display:block"><path fill="#AB2EA7" d="M1036.55 1071.751c64.803-93.702 164.438-111.427 245.194-97.328 80.755 14.1 156.966 25.501 205.36 94.16 49.715 70.535 44.157 127.606 20.887 187.557-23.27 59.952-29.434 96.245-10.09 156.89 19.342 60.642 57.948 166.518 66.659 276.168 8.709 109.654-20.028 344.602-67.033 372.036-47.002 27.432-337.816 66.972-395.225 8.334-57.41-58.641-148.88-220.46-131.468-363.787 17.413-143.324 81.29-240.653 96.468-286.965 15.181-46.312 93.688-126.633 49.917-177.182-43.769-50.547-157.328-59.038-80.67-169.883z"/><path fill="#FFF" d="M1256.673 976.964c21.809 9.863 86.948 43.382 60.903 92.471-26.044 49.086-115.84 100.305-192.975 85.279-77.133-15.025-114.02-45.307-72.566-94.47 41.456-49.162 63.06-53.556 105.595-68.275 42.535-14.719 77.235-24.868 99.043-15.005z"/><path fill="none" stroke="#000" stroke-linecap="round" stroke-linejoin="round" stroke-width="24.4" d="m1157.484 1047.177-6.165 36.294M1090.992 1016.066l-47.645 43.615"/><path fill="none" stroke="#000" stroke-linecap="round" stroke-linejoin="round" stroke-width="19.52" d="M1036.55 1071.751c64.803-93.702 164.438-111.427 245.194-97.328 80.755 14.1 156.966 25.501 205.36 94.16 49.715 70.535 44.157 127.606 20.887 187.557-23.27 59.952-29.434 96.245-10.09 156.89 19.342 60.642 57.948 166.518 66.659 276.168 8.709 109.654-20.028 344.602-67.033 372.036-47.002 27.432-337.816 66.972-395.225 8.334-57.41-58.641-148.88-220.46-131.468-363.787 17.413-143.324 81.29-240.653 96.468-286.965 15.181-46.312 93.688-126.633 49.917-177.182-43.769-50.547-157.328-59.038-80.67-169.883z"/></g><g style="display:block"><path fill-opacity=".2" d="M1259.708 2359.569c195.136 0 353.572 32.619 353.572 72.794 0 40.176-158.436 72.795-353.572 72.795-195.137 0-353.573-32.62-353.573-72.795 0-40.175 158.436-72.794 353.573-72.794z"/><path fill="none" d="M1259.708 2359.569c195.136 0 353.572 32.619 353.572 72.794 0 40.176-158.436 72.795-353.572 72.795-195.137 0-353.573-32.62-353.573-72.795 0-40.175 158.436-72.794 353.573-72.794z"/></g><g style="display:block"><path fill="#FFAC73" d="M1194.733 1166.04c-1.748 60.244-49.064 144.417-113.558 176.2-64.491 31.784-117.233 45.212-169.867 54.901-52.632 9.692-108.243-6.878-133.965-22.583-25.72-15.705 68.23-31.674 136.458-63.352 68.23-31.674 79.763-42.556 136.892-78.295 57.13-35.737 99.313-71.907 114.692-86.42 15.378-14.51 30.324-14.078 29.348 19.548z"/><path fill="none" stroke="#000" stroke-linecap="round" stroke-linejoin="round" stroke-width="19.52" d="M1194.733 1166.04c-1.748 60.244-49.064 144.417-113.558 176.2-64.491 31.784-117.233 45.212-169.867 54.901-52.632 9.692-108.243-6.878-133.965-22.583-25.72-15.705 68.23-31.674 136.458-63.352 68.23-31.674 79.763-42.556 136.892-78.295 57.13-35.737 99.313-71.907 114.692-86.42 15.378-14.51 30.324-14.078 29.348 19.548z"/></g><g style="display:block"><path fill="#FFAC73" d="M1174.814 1141.935s-62.289 15.862-109.602-18.35c-47.314-34.213-16.696-75.464-16.696-75.464s-180.874 147.773-225.104 186.073c-44.231 38.298-118.125 126.607-90.925 127.376 27.2.77 112.239-13.754 185.63-43.539 76.902-31.208 178.922-115.128 197.879-131.543 18.954-16.414 58.818-44.553 58.818-44.553z"/><path fill="none" stroke="#000" stroke-linecap="round" stroke-linejoin="round" stroke-width="19.52" d="M1174.814 1141.935s-62.289 15.862-109.602-18.35c-47.314-34.213-16.696-75.464-16.696-75.464s-180.874 147.773-225.104 186.073c-44.231 38.298-118.125 126.607-90.925 127.376 27.2.77 112.239-13.754 185.63-43.539 76.902-31.208 178.922-115.128 197.879-131.543 18.954-16.414 58.818-44.553 58.818-44.553z"/><path fill="#FFF" d="M1036.833 1128.26s-171.525 144.1-200.5 151.5c-28.972 7.397 153.341-154.89 166.904-162.212 13.56-7.32 33.596 10.712 33.596 10.712z"/></g><g style="display:block"><path fill="#AB2FA8" d="M1233.836 1541.84s4.283 74.635-12.06 142.216c-16.341 67.579-47.24 181.67-17.787 303.536 17.252 71.382 99.973 228.64 214.783 219.81 114.807-8.83 165.338-41.678 120.166-72.034-45.17-30.359-121.146-10.276-143.73-25.455-22.587-15.179 61.244-2.763 68.745-28.654 7.501-25.888-65.796-37.408-88.828-47.321-23.032-9.91 77.67 22.503 72.223-7.137-5.442-29.64-63.558-63.748-82.84-86.604-19.28-22.855 93.202 58.303 95.881 26.7 2.682-31.604-69.898-82.85-73.825-99.1-3.927-16.25 86.149 78.925 84.9 31.072-1.246-47.851-83.195-144.989-103.993-181.236-20.798-36.248-4.73-69.367-1.6-106.237l4.916-57.941"/><path fill="none" stroke="#000" stroke-linecap="round" stroke-linejoin="round" stroke-width="19.52" d="M1233.836 1541.84s4.283 74.635-12.06 142.216c-16.341 67.579-47.24 181.67-17.787 303.536 17.252 71.382 99.973 228.64 214.783 219.81 114.807-8.83 165.338-41.678 120.166-72.034-45.17-30.359-121.146-10.276-143.73-25.455-22.587-15.179 61.244-2.763 68.745-28.654 7.501-25.888-65.796-37.408-88.828-47.321-23.032-9.91 77.67 22.503 72.223-7.137-5.442-29.64-63.558-63.748-82.84-86.604-19.28-22.855 93.202 58.303 95.881 26.7 2.682-31.604-69.898-82.85-73.825-99.1-3.927-16.25 86.149 78.925 84.9 31.072-1.246-47.851-83.195-144.989-103.993-181.236-20.798-36.248-4.73-69.367-1.6-106.237l4.916-57.941"/></g></g></g></g></svg>