<svg xmlns="http://www.w3.org/2000/svg" width="64" height="64" style="width:100%;height:100%;transform:translate3d(0,0,0);content-visibility:visible"><defs><clipPath id="a"><path d="M0 0h64v64H0z"/></clipPath><clipPath id="b"><path d="M0 0h2400v2400H0z"/></clipPath><clipPath id="c"><path fill="#fff" d="M1206.818 627.273c-320.074 0-579.545 259.471-579.545 579.545 0 320.074 259.471 579.546 579.545 579.546 320.074 0 579.546-259.472 579.546-579.546 0-320.074-259.472-579.545-579.546-579.545"/></clipPath></defs><g clip-path="url(#a)"><g clip-path="url(#b)" style="display:block" transform="matrix(.055 0 0 .055 -34 -34)"><g clip-path="url(#c)"><path fill-opacity=".2" d="M244.341 0c0 17.767-109.396 32.171-244.341 32.171S-244.34 17.767-244.34 0c0-17.768 109.395-32.171 244.34-32.171S244.341-17.768 244.341 0z" style="display:block" transform="matrix(2.02033 0 0 3.42 1175.226 2144.531)"/><path fill="none" stroke="#000" stroke-linecap="round" stroke-linejoin="round" stroke-width="6" d="M18.543-6.675S2.265 34.825-.798 35.336c-5.037.839-6.128-2.043-11.745-5.107" style="display:block" transform="matrix(3.42 0 0 3.42 786.174 2001.65)"/><path fill="none" stroke="#000" stroke-linecap="round" stroke-linejoin="round" stroke-width="6" d="M-11.744-17.617s8.169 35.234 10.212 35.234c2.042 0 13.276-1.532 13.276-1.532" style="display:block" transform="matrix(3.42 0 0 3.42 1534.5 2065.707)"/><g style="display:block"><path fill="#684F3A" d="M755.382 1399.65s-51.458-46.26-118.52 14.294c-67.064 60.558-72.925 125.288-72.133 170.685.793 45.4 27.037 147.995 27.037 147.995s71.36-114.78 84.962-135.977c13.603-21.195 91.942-136.097 78.654-196.996z"/><path fill="none" stroke="#000" stroke-linecap="round" stroke-linejoin="round" stroke-width="20.52" d="M755.382 1399.65s-51.458-46.26-118.52 14.294c-67.064 60.558-72.925 125.288-72.133 170.685.793 45.4 27.037 147.995 27.037 147.995s71.36-114.78 84.962-135.977c13.603-21.195 91.942-136.097 78.654-196.996z"/></g><g style="display:block"><path fill="#684F3A" d="M1585.915 1449.78c.985-43.683 93.344-55.772 134.085-23.297 40.74 32.475 71.824 112.277 74.665 175.107 2.155 47.617-7.609 164.317-7.609 164.317s-113.516-99.324-147.793-161.605c-29.896-54.333-54.333-110.838-53.348-154.521z"/><path fill="none" stroke="#000" stroke-linecap="round" stroke-linejoin="round" stroke-width="20.52" d="M1585.915 1449.78c.985-43.683 93.344-55.772 134.085-23.297 40.74 32.475 71.824 112.277 74.665 175.107 2.155 47.617-7.609 164.317-7.609 164.317s-113.516-99.324-147.793-161.605c-29.896-54.333-54.333-110.838-53.348-154.521z"/></g><g style="display:block"><path fill="#46BEDE" d="M1173.758 983.722c-70.764-1.385-194.237-51.717-258.577 64.684s-6.134 249.005-6.134 249.005-169.16 15.177-237.093 225.962c-68.04 211.119 19.56 520.16 451.43 545.807 482.545 28.66 636.798-241.672 584.127-457.337-52.67-215.664-200.41-274.217-200.41-274.217s53.117-109.22 51.928-177.32c-1.189-68.099-111.921-157.863-162.926-177.934-51.002-20.07-151.58 2.735-222.345 1.35z"/><path fill="none" stroke="#000" stroke-linecap="round" stroke-linejoin="round" stroke-width="20.52" d="M1173.758 983.722c-70.764-1.385-194.237-51.717-258.577 64.684s-6.134 249.005-6.134 249.005-169.16 15.177-237.093 225.962c-68.04 211.119 19.56 520.16 451.43 545.807 482.545 28.66 636.798-241.672 584.127-457.337-52.67-215.664-200.41-274.217-200.41-274.217s53.117-109.22 51.928-177.32c-1.189-68.099-111.921-157.863-162.926-177.934-51.002-20.07-151.58 2.735-222.345 1.35z"/><path fill="#FFF" d="M1205.268 1056.443s-53.144-51.731-136.567-18.577c-61.287 24.36-97.213 83.752-98.848 140.585-1.992 69.317 17.678 112.35 117.592 132.73 43.441 8.86 113.35-43.898 113.35-43.898s93.982 47.267 148.734 48.64c54.753 1.374 121.498-44.042 105.945-134.596-15.554-90.554-79.127-149.724-142.375-151.22-80.084-1.892-107.83 26.336-107.83 26.336z"/><path fill="none" stroke="#000" stroke-linecap="round" stroke-linejoin="round" stroke-width="20.52" d="M1205.268 1056.443s-53.144-51.731-136.567-18.577c-61.287 24.36-97.213 83.752-98.848 140.585-1.992 69.317 17.678 112.35 117.592 132.73 43.441 8.86 113.35-43.898 113.35-43.898s93.982 47.267 148.734 48.64c54.753 1.374 121.498-44.042 105.945-134.596-15.554-90.554-79.127-149.724-142.375-151.22-80.084-1.892-107.83 26.336-107.83 26.336zM1280.833 1150.444l1.834 38.394M1123.563 1146.2l-9.888 33.94"/><path fill="#684F3A" d="M914.331 1299.939s-71.012-316.572 266.955-316.437c293.439.118 329.32 171.246 336.502 249.136 5.477 59.411-3.072 90.879-3.072 90.879s313.774-436.025-311.78-450.431c-327.475-7.542-389.531 155.23-366.221 282.945 16.415 89.957 77.616 143.908 77.616 143.908z"/><path fill="none" stroke="#000" stroke-linecap="round" stroke-linejoin="round" stroke-width="20.52" d="M914.331 1299.939s-71.012-316.572 266.955-316.437c293.439.118 329.32 171.246 336.502 249.136 5.477 59.411-3.072 90.879-3.072 90.879s313.774-436.025-311.78-450.431c-327.475-7.542-389.531 155.23-366.221 282.945 16.415 89.957 77.616 143.908 77.616 143.908z"/></g><g style="display:block"><path fill="#F59B49" d="M1204.038 1236.37c-27.937.488-64.992 29.08-53.844 67.312 11.147 38.231 54.702 82.013 54.702 82.013s54.894-66.17 56.897-92.694c2.836-37.603-57.755-56.63-57.755-56.63z"/><path fill="none" stroke="#000" stroke-linecap="round" stroke-linejoin="round" stroke-width="20.52" d="M1204.038 1236.37c-27.937.488-64.992 29.08-53.844 67.312 11.147 38.231 54.702 82.013 54.702 82.013s54.894-66.17 56.897-92.694c2.836-37.603-57.755-56.63-57.755-56.63z"/></g></g></g></g></svg>