<svg xmlns="http://www.w3.org/2000/svg" width="64" height="64" style="width:100%;height:100%;transform:translate3d(0,0,0);content-visibility:visible"><defs><clipPath id="a"><path d="M0 0h64v64H0z"/></clipPath><clipPath id="b"><path d="M0 0h2400v2400H0z"/></clipPath><clipPath id="c"><path fill="#fff" d="M1215.91 631.818c-320.075 0-579.546 259.472-579.546 579.546 0 320.074 259.471 579.545 579.545 579.545 320.074 0 579.546-259.471 579.546-579.545 0-320.074-259.472-579.546-579.546-579.546"/></clipPath></defs><g clip-path="url(#a)"><g clip-path="url(#b)" style="display:block" transform="matrix(.055 0 0 .055 -34 -34)"><g clip-path="url(#c)"><g style="display:block"><path fill-opacity=".2" d="M1066.235 2763.043c200.586 0 363.447 24.906 363.447 55.582 0 30.675-162.86 55.581-363.447 55.581-200.586 0-363.447-24.906-363.447-55.581 0-30.676 162.86-55.582 363.447-55.582z"/><path fill="none" d="M1066.235 2763.043c200.586 0 363.447 24.906 363.447 55.582 0 30.675-162.86 55.581-363.447 55.581-200.586 0-363.447-24.906-363.447-55.581 0-30.676 162.86-55.582 363.447-55.582z"/></g><path fill="none" stroke="#000" stroke-linecap="round" stroke-linejoin="round" stroke-width="8" d="M-6.639-38.809s-5.106 71.49 0 74.554c5.106 3.064 18.384 1.022 18.384 1.022" style="display:block" transform="matrix(4.1 0 0 4.1 977.297 2661.392)"/><path fill="none" stroke="#000" stroke-linecap="round" stroke-linejoin="round" stroke-width="8" d="M-6.639-38.809s-5.106 71.49 0 74.554c5.106 3.064 18.384 1.021 18.384 1.021" style="display:block" transform="matrix(4.1 0 0 4.1 1136.414 2653.016)"/><g style="display:block"><path fill="#FFD641" d="M1166.917 2570.449c-105.26 6.02-301.424-77.542-361.253-194.547-59.824-117.01-23.638-679.952-10.268-776.789 22.963-166.382 80.666-351.572 127.412-428.367 46.745-76.794 123.262-193.69 268.353-199.32 161.086-6.255 208.05 94.79 229.737 150.684 21.682 55.89 62.046 212.692 73.95 294.095 11.761 80.445 32.672 216.002 46.26 267.193 13.587 51.19 61.926 217.827 50.975 393.351-10.95 175.52-53.508 319.704-168.16 409.043-114.658 89.343-257.006 84.657-257.006 84.657z"/><path fill="none" stroke="#000" stroke-linecap="round" stroke-linejoin="round" stroke-width="20.5" d="M1166.917 2570.449c-105.26 6.02-301.424-77.542-361.253-194.547-59.824-117.01-23.638-679.952-10.268-776.789 22.963-166.382 80.666-351.572 127.412-428.367 46.745-76.794 123.262-193.69 268.353-199.32 161.086-6.255 208.05 94.79 229.737 150.684 21.682 55.89 62.046 212.692 73.95 294.095 11.761 80.445 32.672 216.002 46.26 267.193 13.587 51.19 61.926 217.827 50.975 393.351-10.95 175.52-53.508 319.704-168.16 409.043-114.658 89.343-257.006 84.657-257.006 84.657z"/><path fill="none" stroke="#000" stroke-linecap="round" stroke-linejoin="round" stroke-width="20.5" d="M1149.476 1030.58s-73.647 25.348-67.323 75.544M1386.45 1066.315s-19.556-57.647-69.203-69.272"/><path fill="none" stroke="#000" stroke-linecap="round" stroke-linejoin="round" stroke-width="28.699999999999996" d="m1410.905 1114.832 5.492 46.492M1164.53 1141.161l5.492 46.492"/></g><g style="display:block"><path fill="#FFD641" d="M788.41 2248.965s-231.669 82.042-229.577 115.74c2.096 33.692 182.57-34.76 182.57-34.76s-156.966 95.088-112.04 114.676c44.928 19.584 137.644-54.346 137.644-54.346S615.79 2527.68 673.776 2539.69c57.987 12.006 198.23-151.253 198.23-151.253"/><path fill="none" stroke="#000" stroke-linecap="round" stroke-linejoin="round" stroke-width="20.5" d="M788.41 2248.965s-231.669 82.042-229.577 115.74c2.096 33.692 182.57-34.76 182.57-34.76s-156.966 95.088-112.04 114.676c44.928 19.584 137.644-54.346 137.644-54.346S615.79 2527.68 673.776 2539.69c57.987 12.006 198.23-151.253 198.23-151.253"/></g><g style="display:block"><path fill="#FFD641" d="M915.475 1693.094s-43.773 168.933-71.406 290.908c-30.21 133.333-9.65 309.402 8.744 312.924 18.394 3.518 51.318-188.464 62.902-209.123 8.44-15.063 63.682 195.22 89.624 179.21 25.942-16.004 21.698-262.768 21.698-262.768s57.098 110.07 85.314 102.127c28.212-7.947-.559-156.446-22.13-233.02-21.567-76.58-75.66-222.304-75.66-222.304"/><path fill="none" stroke="#000" stroke-linecap="round" stroke-linejoin="round" stroke-width="20.5" d="M915.475 1693.094s-43.773 168.933-71.406 290.908c-30.21 133.333-9.65 309.402 8.744 312.924 18.394 3.518 51.318-188.464 62.902-209.123 8.44-15.063 63.682 195.22 89.624 179.21 25.942-16.004 21.698-262.768 21.698-262.768s57.098 110.07 85.314 102.127c28.212-7.947-.559-156.446-22.13-233.02-21.567-76.58-75.66-222.304-75.66-222.304"/></g><g style="display:block"><path fill="#FFD641" d="M1285.27 1287.95s3.414 33.235 20.06 42.566c93.533 52.42 196.843 6.718 196.843 6.718s-149.505-60.44-173.425-78.836c94.562 62.473 207.976 43.48 207.976 43.48s-49.468-125.824-144.299-172.232c-34.272-16.774-59.975.93-59.975.93"/><path fill="none" stroke="#000" stroke-linecap="round" stroke-linejoin="round" stroke-width="20.5" d="M1285.27 1287.95s3.414 33.235 20.06 42.566c93.533 52.42 196.843 6.718 196.843 6.718s-149.505-60.44-173.425-78.836c94.562 62.473 207.976 43.48 207.976 43.48s-49.468-125.824-144.299-172.232c-34.272-16.774-59.975.93-59.975.93"/></g></g></g></g></svg>