<svg xmlns="http://www.w3.org/2000/svg" width="64" height="64" style="width:100%;height:100%;transform:translate3d(0,0,0);content-visibility:visible"><defs><clipPath id="a"><path d="M0 0h64v64H0z"/></clipPath><clipPath id="b"><path d="M0 0h2400v2400H0z"/></clipPath><clipPath id="c"><path fill="#fff" d="M1195.455 640.909c-316.309 0-572.728 256.418-572.728 572.727 0 316.309 256.419 572.728 572.728 572.728 316.308 0 572.727-256.42 572.727-572.728 0-316.309-256.42-572.727-572.727-572.727"/></clipPath></defs><g clip-path="url(#a)"><g clip-path="url(#b)" style="display:block" transform="matrix(.055 0 0 .055 -34 -34)"><g clip-path="url(#c)"><path fill-opacity=".3" d="M0-48c70.643 0 128 21.509 128 48S70.643 48 0 48-128 26.491-128 0-70.643-48 0-48z" style="display:block" transform="matrix(-2.58733 0 0 1.31383 1232.663 2331.255)"/><g style="display:block"><path fill="#E33F52" d="M1088.666 1422.041s33.003 26.843 39.395 78.362c6.391 51.519-55.794 36.862-132.99 109.844-47.92 45.304-68.722 117.742-70.544 167.044-6.328 62.266-36.27 59.004-48.966 58.812-27.643-.417-12.353-24.643-17.33-67.87-6.124-30.607-7.25-164.807 55.618-234.786 75.925-84.514 127.682-156.865 174.817-111.406z"/><path fill="none" stroke="#000" stroke-linecap="round" stroke-linejoin="round" stroke-width="17.099999999999998" d="M1088.666 1422.041s33.003 26.843 39.395 78.362c6.391 51.519-55.794 36.862-132.99 109.844-47.92 45.304-68.722 117.742-70.544 167.044-6.328 62.266-36.27 59.004-48.966 58.812-27.643-.417-12.353-24.643-17.33-67.87-6.124-30.607-7.25-164.807 55.618-234.786 75.925-84.514 127.682-156.865 174.817-111.406z"/></g><path fill="none" stroke="#000" stroke-linecap="round" stroke-linejoin="round" stroke-width="9" d="M-1.532-36.383S6.893-25.66 13.787-9.574c6.894 16.085-34.468 37.531-34.468 37.531s3.064 3.83 13.021 1.532c9.958-2.298 9.192 6.894 23.745 6.894" style="display:block" transform="matrix(-1.9 0 0 1.9 1144.981 2267.195)"/><path fill="none" stroke="#000" stroke-linecap="round" stroke-linejoin="round" stroke-width="9" d="M-1.532-36.383S6.893-25.66 13.787-9.574c6.894 16.085-34.468 37.531-34.468 37.531s3.064 3.83 13.021 1.532c9.958-2.298 9.192 6.894 23.745 6.894" style="display:block" transform="matrix(1.9 0 0 1.9 1279.881 2267.195)"/><path fill="none" d="M0-48c62.917 0 114 21.509 114 48S62.917 48 0 48-114 26.491-114 0-62.917-48 0-48z" style="display:block" transform="matrix(1.9 0 0 1.9 1237.8 2172.6)"/><g style="display:block"><path fill="#E33F52" d="M1255.487 881.482c69.14 59.35 92.652 87.574 118.435 198.95 25.416 109.792-28.592 303.144 76.192 473.9 90.367 147.27 111.545 313.445 108.662 384.205-2.496 61.317 2.4 199.827-184.34 254.195-145.104 42.247-241.543 45.71-324.05 15.523-79.559-29.106-192.903-96.987-194.043-306.585-1.062-195.174 54.41-267.577 98.233-357.523 40.022-82.147 152.5-150.883 111.234-224.048-21.785-38.626-83.81-64.099-118.138-129.487-10.433-19.872 40.74-50.204 33.463-73.494-8.698-27.84-66.221-22.918-61.167-57.715 9.131-62.867 46.138-130.822 130.635-181.23 57.267-34.163 135.745-56.042 204.884 3.309z"/><path fill="none" stroke="#000" stroke-linecap="round" stroke-linejoin="round" stroke-width="17.099999999999998" d="M1255.487 881.482c69.14 59.35 92.652 87.574 118.435 198.95 25.416 109.792-28.592 303.144 76.192 473.9 90.367 147.27 111.545 313.445 108.662 384.205-2.496 61.317 2.4 199.827-184.34 254.195-145.104 42.247-241.543 45.71-324.05 15.523-79.559-29.106-192.903-96.987-194.043-306.585-1.062-195.174 54.41-267.577 98.233-357.523 40.022-82.147 152.5-150.883 111.234-224.048-21.785-38.626-83.81-64.099-118.138-129.487-10.433-19.872 40.74-50.204 33.463-73.494-8.698-27.84-66.221-22.918-61.167-57.715 9.131-62.867 46.138-130.822 130.635-181.23 57.267-34.163 135.745-56.042 204.884 3.309z"/><path fill="none" stroke="#FFF" stroke-linecap="round" stroke-linejoin="round" stroke-width="11.399999999999999" d="M985.959 941.075c17.824-18.698 39.765-36.356 66.437-52.269 25.986-15.502 52.429-25.737 80.02-26.746"/></g><g style="display:block"><path fill="#E33F52" d="M1601.986 1946.018s108.014-18.388 151.001 2.373c42.987 20.761-108.449 16.798-126.657 25.937-18.21 9.14 153.286-13.252 212.98 55.212 36.543 41.914-193.844-25.734-209.456-19.346 58.451 12.638 226.432 65.805 226.929 95.973.319 19.38-181.443-48.606-240.314-53.433 58.905 26.521 225.278 99.046 210.632 125.504-7.212 13.027-184.487-53.23-232.677-71.38s201.566 108.14 176.646 128.452c-13.866 11.303-199.563-76.782-219.097-83.262-19.536-6.477 161.279 105.045 145.116 129.079-8.556 12.724-154.713-67.45-176.87-85.638-22.156-18.192 106.889 101.477 94.051 118.886-13.134 17.81-165.028-93.366-197.894-118.15-40.967-30.894-51.603-75.416-46.166-113.607 4.802-33.729 35.31-80.326 96.446-107.755 42.82-19.211 135.33-28.845 135.33-28.845z"/><path fill="none" stroke="#000" stroke-linecap="round" stroke-linejoin="round" stroke-width="17.099999999999998" d="M1601.986 1946.018s108.014-18.388 151.001 2.373c42.987 20.761-108.449 16.798-126.657 25.937-18.21 9.14 153.286-13.252 212.98 55.212 36.543 41.914-193.844-25.734-209.456-19.346 58.451 12.638 226.432 65.805 226.929 95.973.319 19.38-181.443-48.606-240.314-53.433 58.905 26.521 225.278 99.046 210.632 125.504-7.212 13.027-184.487-53.23-232.677-71.38s201.566 108.14 176.646 128.452c-13.866 11.303-199.563-76.782-219.097-83.262-19.536-6.477 161.279 105.045 145.116 129.079-8.556 12.724-154.713-67.45-176.87-85.638-22.156-18.192 106.889 101.477 94.051 118.886-13.134 17.81-165.028-93.366-197.894-118.15-40.967-30.894-51.603-75.416-46.166-113.607 4.802-33.729 35.31-80.326 96.446-107.755 42.82-19.211 135.33-28.845 135.33-28.845z"/><path fill="#E33F52" d="M1424.13 1972.326s46.823-23.502 36.498 33.788c-10.325 57.288-89.056 211.875-102.18 142.473-13.123-69.402-33.21-152.679 65.681-176.261z"/></g><path fill="none" d="M0-100c55.19 0 100 44.81 100 100S55.19 100 0 100-100 55.19-100 0-55.19-100 0-100z" style="display:block" transform="scale(-1.9 1.9) rotate(-3 10252.76 11628.66)"/><g style="display:block"><path fill="#E33F52" d="M1380.01 1418.033s-52.916-20.657-79.404 26.782c-26.489 47.438 33.901 108.763 76.133 152.38 62.46 64.508 53.077 156.975 53.545 215.186.537 66.716-2.135 81.767 28.869 84.293 24.262 1.978 43.963-25.415 57.695-75.111 10.676-38.636 26.707-92.819 13.467-163.096-19.294-102.414-58.225-202.355-150.306-240.434z"/><path fill="none" stroke="#000" stroke-linecap="round" stroke-linejoin="round" stroke-width="17.099999999999998" d="M1380.01 1418.033s-52.916-20.657-79.404 26.782c-26.489 47.438 33.901 108.763 76.133 152.38 62.46 64.508 53.077 156.975 53.545 215.186.537 66.716-2.135 81.767 28.869 84.293 24.262 1.978 43.963-25.415 57.695-75.111 10.676-38.636 26.707-92.819 13.467-163.096-19.294-102.414-58.225-202.355-150.306-240.434z"/><path fill="none" stroke="#FFF" stroke-linecap="round" stroke-linejoin="round" stroke-width="11.399999999999999" d="M1522.562 1647.58c-3.215-55.369-71.38-190.114-142.573-219.557 0 0-33.081-12.915-60.024 5.127"/><path fill="#E33F52" d="M1345.202 1423.106c-17.173-21.175-48.31-24.424-69.485-7.25-21.175 17.173-24.424 48.31-7.25 69.484 17.173 21.176 48.31 24.424 69.485 7.25 21.175-17.173 24.424-48.309 7.25-69.484z"/></g><g style="display:block"><path fill="#E33F52" d="M1304.849 973.12s87.912 12.268 112.61 75.853c23.113 59.504-13.084 120.092-59.175 128.057-32.354 5.592-62.188-9.088-70.458-45.955-6.809-30.355 29.517-34.886 29.517-34.886s-8.712 27.234 17.371 30.058c26.083 2.825 41.836-19.668 30.279-49.42-11.558-29.752-44.684-65.006-94.5-41.385"/><path fill="none" stroke="#000" stroke-linecap="round" stroke-linejoin="round" stroke-width="17.099999999999998" d="M1304.849 973.12s87.912 12.268 112.61 75.853c23.113 59.504-13.084 120.092-59.175 128.057-32.354 5.592-62.188-9.088-70.458-45.955-6.809-30.355 29.517-34.886 29.517-34.886s-8.712 27.234 17.371 30.058c26.083 2.825 41.836-19.668 30.279-49.42-11.558-29.752-44.684-65.006-94.5-41.385"/><path fill="#E33F52" d="M1250.743 967.37s26.812-48.142 138.496-10.228c67.356 22.866 98.099 65.377 105.074 126.95 2.86 25.254-17.951 43.121-30.355 50.871-15.067 9.41-34.034 9.876-34.034 9.876s36.866-46.522 9.08-89.877c-44.456-69.367-114.34-70.601-162.143-48.333-47.8 22.27-71.372 82.73-71.372 82.73"/><path fill="none" stroke="#000" stroke-linecap="round" stroke-linejoin="round" stroke-width="17.099999999999998" d="M1250.743 967.37s26.812-48.142 138.496-10.228c67.356 22.866 98.099 65.377 105.074 126.95 2.86 25.254-17.951 43.121-30.355 50.871-15.067 9.41-34.034 9.876-34.034 9.876s36.866-46.522 9.08-89.877c-44.456-69.367-114.34-70.601-162.143-48.333-47.8 22.27-71.372 82.73-71.372 82.73"/><path fill="#E33F52" d="M1246.45 919.538s66.637-47.998 178.321-10.084c67.357 22.866 89.576 79.353 72.692 114.564-8.181 17.06-15.355 21.403-27.76 29.15-15.066 9.413-44.056 6.436-44.056 6.436s57.296-19.223 29.51-62.577c-44.456-69.366-117.656-63-165.456-40.73-47.802 22.269-78.24 46.905-78.24 46.905"/><path fill="none" stroke="#000" stroke-linecap="round" stroke-linejoin="round" stroke-width="17.099999999999998" d="M1246.45 919.538s66.637-47.998 178.321-10.084c67.357 22.866 89.576 79.353 72.692 114.564-8.181 17.06-15.355 21.403-27.76 29.15-15.066 9.413-44.056 6.436-44.056 6.436s57.296-19.223 29.51-62.577c-44.456-69.366-117.656-63-165.456-40.73-47.802 22.269-78.24 46.905-78.24 46.905"/><path fill="#E33F52" d="M1214.414 863.454s134.696-63.881 222.505-18.942c53.931 27.6 100.36 63.378 89.439 100.87-7.108 24.4-23.781 36.644-38.39 37.335-14.61.692-37.482-7.792-37.482-7.792s55.143-23.343 11.843-59.13c-40.834-33.748-108.7-39.214-156.503-16.945-47.8 22.269-70.591 40.02-70.591 40.02"/><path fill="none" stroke="#000" stroke-linecap="round" stroke-linejoin="round" stroke-width="17.099999999999998" d="M1214.414 863.454s134.696-63.881 222.505-18.942c53.931 27.6 100.36 63.378 89.439 100.87-7.108 24.4-23.781 36.644-38.39 37.335-14.61.692-37.482-7.792-37.482-7.792s55.143-23.343 11.843-59.13c-40.834-33.748-108.7-39.214-156.503-16.945-47.8 22.269-70.591 40.02-70.591 40.02"/><path fill="none" stroke="#FFF" stroke-linecap="round" stroke-linejoin="round" stroke-width="11.399999999999999" d="M1212.734 871.066s134.696-63.882 222.506-18.942"/></g><path fill="none" stroke="#000" stroke-linecap="round" stroke-linejoin="round" stroke-width="9" d="M39.086 11.502s10.342 9.322 12.636 19.364" style="display:block" transform="scale(-1.9 1.9) rotate(-3 8890.105 10901.254)"/><path fill="none" stroke="#000" stroke-linecap="round" stroke-linejoin="round" stroke-width="9" d="M61.386 28.482s7.149-14.638 20.681-3.404" style="display:block" transform="scale(-1.9 1.9) rotate(-3 8997.325 11799.088)"/><g style="display:block"><path fill="#B3445F" d="M1024.95 1118.072s-23.468 45.767-43.949 63.4c-20.48 17.637-71.797 20.92-91.313 20.353-19.517-.57-68.43-1.435-93.977-7.508-62.38-14.833-50.121-15.088-64.093-20.097-13.97-5.009 56.5-9.859 108.663-19.846 52.162-9.986 68.648-17.102 93.15-23.768 24.502-6.668 92.436-14.243 91.519-12.534z"/><path fill="none" stroke="#000" stroke-linecap="round" stroke-linejoin="round" stroke-width="17.099999999999998" d="M1024.95 1118.072s-23.468 45.767-43.949 63.4c-20.48 17.637-71.797 20.92-91.313 20.353-19.517-.57-68.43-1.435-93.977-7.508-62.38-14.833-50.121-15.088-64.093-20.097-13.97-5.009 56.5-9.859 108.663-19.846 52.162-9.986 68.648-17.102 93.15-23.768 24.502-6.668 92.436-14.243 91.519-12.534z"/></g><g style="display:block"><path fill="#B3445F" d="M1024.95 1118.072s-23.468 45.767-43.949 63.4c-20.48 17.637-71.797 20.92-91.313 20.353-19.517-.57-68.43-1.435-93.977-7.508-62.38-14.833-50.121-15.088-64.093-20.097-13.97-5.009 56.5-9.859 108.663-19.846 52.162-9.986 68.648-17.102 93.15-23.768 24.502-6.668 92.436-14.243 91.519-12.534z"/><path fill="none" stroke="#000" stroke-linecap="round" stroke-linejoin="round" stroke-width="17.099999999999998" d="M1024.95 1118.072s-23.468 45.767-43.949 63.4c-20.48 17.637-71.797 20.92-91.313 20.353-19.517-.57-68.43-1.435-93.977-7.508-62.38-14.833-50.121-15.088-64.093-20.097-13.97-5.009 56.5-9.859 108.663-19.846 52.162-9.986 68.648-17.102 93.15-23.768 24.502-6.668 92.436-14.243 91.519-12.534z"/></g><g style="display:block"><path fill="#B3445F" d="M920.463 1027.482s-13.421 33.942 25.468 61.05c38.887 27.107 73.762 22.552 73.762 22.552s-25.753 19.519-74.313 29.021c-48.558 9.503-212.871 29.27-230.848 28.34-17.978-.93 112.826-90.293 205.93-140.963z"/><path fill="none" stroke="#000" stroke-linecap="round" stroke-linejoin="round" stroke-width="17.099999999999998" d="M920.463 1027.482s-13.421 33.942 25.468 61.05c38.887 27.107 73.762 22.552 73.762 22.552s-25.753 19.519-74.313 29.021c-48.558 9.503-212.871 29.27-230.848 28.34-17.978-.93 112.826-90.293 205.93-140.963z"/><path fill="#FFF" d="M901.747 1052.196s-.222 15.658 4.92 18.752c5.142 3.094-124.898 61.747-132.168 65.612-7.268 3.864 127.248-84.364 127.248-84.364z"/></g><path fill="none" stroke="#000" stroke-linecap="round" stroke-linejoin="round" stroke-width="9" d="M21.426-21.764s5.813 13.267 4.788 16.546" style="display:block" transform="scale(-1.9 1.9) rotate(-3 10349.897 10044.279)"/><path fill="none" stroke="#000" stroke-linecap="round" stroke-linejoin="round" stroke-width="9" d="M32.133-14.878s3.64 9.463 2.339 12.991" style="display:block" transform="scale(-1.9 1.9) rotate(-3 10300.023 10797.191)"/></g></g></g></svg>