<svg xmlns="http://www.w3.org/2000/svg" width="64" height="64" style="width:100%;height:100%;transform:translate3d(0,0,0);content-visibility:visible"><defs><clipPath id="a"><path d="M0 0h64v64H0z"/></clipPath><clipPath id="b"><path d="M0 0h2400v2400H0z"/></clipPath><clipPath id="c"><path fill="#fff" d="M1200 631.818c-318.819 0-577.273 258.454-577.273 577.273S881.181 1786.364 1200 1786.364s577.273-258.454 577.273-577.273S1518.819 631.818 1200 631.818"/></clipPath></defs><g clip-path="url(#a)"><g clip-path="url(#b)" style="display:block" transform="matrix(.055 0 0 .055 -34 -34)"><g clip-path="url(#c)"><path fill="none" d="M124.596-3.064s9.191 7.149 4.085-8.17C123.575-26.553 96-38.809 73.532-39.83c-22.468-1.021-138.893 6.128-151.149 9.192-12.255 3.063-56.17-2.043-49.021 7.148 7.149 9.192 21.447 14.298 33.702 15.32 12.255 1.021 23.489 1.021 25.532 2.042 2.043 1.021 0 8.17 5.106 10.213 5.107 2.042 9.192 1.021 12.256 1.021s3.064 7.149 21.447 12.256c18.382 5.106 42.893 7.148 51.063 8.17 8.171 1.021 8.171 11.234 22.468 13.276 14.298 2.043 51.064-4.085 66.383-9.191 15.32-5.107 17.362-10.213 18.383-16.341 1.022-6.127-5.106-16.34-5.106-16.34z" style="display:block" transform="translate(521.532 1816.511)"/><path fill="none" stroke="#000" stroke-linecap="round" stroke-linejoin="round" stroke-width="4" d="M-6.51-26.043c2.298 5.362-5.363 47.49-3.065 49.022 2.298 1.532 21.448 3.064 21.448 3.064" style="display:block" transform="rotate(-12 10851.426 -4095.74) scale(4.17)"/><path fill="none" stroke="#000" stroke-linecap="round" stroke-linejoin="round" stroke-width="4" d="M-6.51-26.043c2.298 5.362-5.363 47.49-3.065 49.022 2.298 1.532 21.448 3.064 21.448 3.064" style="display:block" transform="rotate(-12 11004.835 -3220.85) scale(4.17)"/><g style="display:block"><path fill="#00A292" d="M640.352 1824.145c-63.616 5.8-159.238 49.448-224.338 71.715-65.099 22.266-147.775 75.611-123.556 102.43 24.215 26.822 184.1-35.379 216.814-49.702 32.71-14.323 143.934-63.018 143.934-63.018s-195.365 130.755-228.563 154.648c-33.203 23.894-87.819 91.464-52.732 93.253 35.09 1.79 247.117-114.252 270.257-129.064 23.144-14.811 63.496-46.511 63.496-46.511S529.28 2077.948 497.788 2111.11c-40.559 42.704-33.108 84.659-.882 79.906 32.222-4.753 211.58-149.118 211.58-149.118s-92.836 78.418-95.114 123.075c-2.278 44.66 13.83 42.288 50.219 18.557 36.392-23.726 107.447-100.057 118.156-121.9 10.71-21.842 20.087-142.893-15.59-195.883-35.674-52.993-80.823-45.705-125.805-41.603z"/><path fill="none" stroke="#000" stroke-linecap="round" stroke-linejoin="round" stroke-width="16.68" d="M640.352 1824.145c-63.616 5.8-159.238 49.448-224.338 71.715-65.099 22.266-147.775 75.611-123.556 102.43 24.215 26.822 184.1-35.379 216.814-49.702 32.71-14.323 143.934-63.018 143.934-63.018s-195.365 130.755-228.563 154.648c-33.203 23.894-87.819 91.464-52.732 93.253 35.09 1.79 247.117-114.252 270.257-129.064 23.144-14.811 63.496-46.511 63.496-46.511S529.28 2077.948 497.788 2111.11c-40.559 42.704-33.108 84.659-.882 79.906 32.222-4.753 211.58-149.118 211.58-149.118s-92.836 78.418-95.114 123.075c-2.278 44.66 13.83 42.288 50.219 18.557 36.392-23.726 107.447-100.057 118.156-121.9 10.71-21.842 20.087-142.893-15.59-195.883-35.674-52.993-80.823-45.705-125.805-41.603z"/><path fill="none" stroke="#FFF" stroke-linecap="round" stroke-linejoin="round" stroke-width="16.68" d="M591.134 1862.504s-255.349 73.682-270.278 115.564m389.11 7.05s-195.94 134.993-220.645 173.532m233.753-96.107s-86.135 72.367-84.818 102.285m23.014-256.108s-251.876 144.93-266.806 186.811"/></g><g style="display:block"><path fill="#00A292" d="M1173.077 961.281c-34.44-15.77-113.89-41.985-190.458 9.835-88.341 59.787-134.486 147.242-138.238 218.688-5.63 107.076 7.15 178.56-40.219 262.04-47.373 83.485-145.503 241.534-157.245 348.122-7.944 72.084 6.35 170.117 88.62 268.904 48.22 57.892 193.332 97.278 304.715 45.393 111.387-51.885 239.422-116.783 297.36-312.115 31.094-104.833 2.415-148.187 9.837-264.633 7.956-124.861-19.25-232.597-45.221-300.148-20.758-53.999-10.921-113.732-31.623-177.828-15.062-46.635-63.088-82.488-97.528-98.258z"/><path fill="none" stroke="#000" stroke-linecap="round" stroke-linejoin="round" stroke-width="16.68" d="M1173.077 961.281c-34.44-15.77-113.89-41.985-190.458 9.835-88.341 59.787-134.486 147.242-138.238 218.688-5.63 107.076 7.15 178.56-40.219 262.04-47.373 83.485-145.503 241.534-157.245 348.122-7.944 72.084 6.35 170.117 88.62 268.904 48.22 57.892 193.332 97.278 304.715 45.393 111.387-51.885 239.422-116.783 297.36-312.115 31.094-104.833 2.415-148.187 9.837-264.633 7.956-124.861-19.25-232.597-45.221-300.148-20.758-53.999-10.921-113.732-31.623-177.828-15.062-46.635-63.088-82.488-97.528-98.258z"/><path fill="#FFF" d="M1170.498 982.453s-133.712-35.31-179.694 70.655-10.685 185.892 44.931 204.245c55.616 18.352 201.13 17.913 224.925 12.55 23.793-5.363 18.57-56.277 18.57-56.277s-8.564-134.25-37.146-181.12c-28.583-46.874-71.586-50.053-71.586-50.053z"/><path fill="#FFF" d="M1217.724 1254.76s68.194 208.15 53.397 322.9c-14.797 114.75 28.403 158.77 19.915 225.382-12.928 101.438-64.41 168.633-64.41 168.633s76.602-109.935 104.07-355.798c22.059-197.442-23.351-307.58-37.376-354.91-6.771-22.855-14.55-36.128-34.365-43.753-21.22-8.168-53.925-8.446-41.231 37.547z"/><path fill="none" stroke="#000" stroke-linecap="round" stroke-linejoin="round" stroke-width="25.02" d="M1090.576 1054.49s39.188 28.86 27.472 48.825M1178.012 1024.223s39.189 28.86 27.473 48.825"/></g><g style="display:block"><path fill="#00A292" d="M1075.295 1582.812s27.282 210.589-137.52 322.047c-164.807 111.46-205.66 170.037-236.183 113.92-30.523-56.115 119.513-181.353 119.513-181.353s-138.815 119.135-164.22 45.69c-25.404-73.446 138.319-133.41 138.319-133.41s-106.127 72.27-119.815 6.997c-13.689-65.277 128.082-98.757 128.082-98.757s-62.717 5.025-64.195-37.8c-1.479-42.83 115.285-55.435 115.285-55.435"/><path fill="none" stroke="#000" stroke-linecap="round" stroke-linejoin="round" stroke-width="16.68" d="M1075.295 1582.812s27.282 210.589-137.52 322.047c-164.807 111.46-205.66 170.037-236.183 113.92-30.523-56.115 119.513-181.353 119.513-181.353s-138.815 119.135-164.22 45.69c-25.404-73.446 138.319-133.41 138.319-133.41s-106.127 72.27-119.815 6.997c-13.689-65.277 128.082-98.757 128.082-98.757s-62.717 5.025-64.195-37.8c-1.479-42.83 115.285-55.435 115.285-55.435"/><path fill="none" stroke="#FFF" stroke-linecap="round" stroke-linejoin="round" stroke-width="16.68" d="M1040.344 1605.46s-18.873 146.331-67.283 203.85c-50.798 60.356-179.123 151.973-179.123 151.973"/></g><g style="display:block"><path d="M1248.18 1057.677s73.46-41 186.026-46.272c112.566-5.273 286.158 85.148 269.433 92.243-171.924 111.491-358.183 77.186-358.183 77.186s192.758 31.893 344.352 2.278c12.942 16.678-161.275 86.33-223.96 111.03-62.689 24.699-151.226 46.167-205.738 12.71-84.786-52.032-79.77-212.357-11.93-249.175z"/><path fill="none" stroke="#FFF" stroke-linecap="round" stroke-linejoin="round" stroke-width="16.68" d="M1590.459 1071.77s-198.505-47.107-273.15-2.996"/></g></g></g></g></svg>