<svg xmlns="http://www.w3.org/2000/svg" width="64" height="64" style="width:100%;height:100%;transform:translate3d(0,0,0);content-visibility:visible"><defs><clipPath id="a"><path d="M0 0h64v64H0z"/></clipPath><clipPath id="b"><path d="M0 0h2048v2048H0z"/></clipPath><clipPath id="c"><path fill="#fff" d="M1028.545 451.273c-318.819 0-577.272 258.453-577.272 577.272 0 318.819 258.453 577.273 577.272 577.273 318.819 0 577.273-258.454 577.273-577.273s-258.454-577.272-577.273-577.272"/></clipPath></defs><g clip-path="url(#a)"><g clip-path="url(#b)" style="display:block" transform="matrix(.055 0 0 .055 -24.32 -24.32)"><g clip-path="url(#c)"><g style="display:block"><path fill="#FFD641" d="M1111.39 1962.315c-9.72 35.845 2.233 63.591 45.914 87.8 43.68 24.21 170.023 60.984 172.304 57.688 2.283-3.296-22.862-40.21-20.834-41.732 2.029-1.521 43.76 2.996 43.583-.976-.177-3.97-21.673-43.34-19.847-45.976 1.826-2.637 42.338 7.863 46.073 2.47 3.737-5.395-39.781-43.946-38.361-48.813 1.421-4.867 71.698 7.715 66.476 1.172-5.223-6.542-139.14-83.048-139.14-83.048s-55.256-39.862-88.563-17.203"/><path fill="none" stroke="#000" stroke-linecap="round" stroke-linejoin="round" stroke-width="17.64" d="M1111.39 1962.315c-9.72 35.845 2.233 63.591 45.914 87.8 43.68 24.21 170.023 60.984 172.304 57.688 2.283-3.296-22.862-40.21-20.834-41.732 2.029-1.521 43.76 2.996 43.583-.976-.177-3.97-21.673-43.34-19.847-45.976 1.826-2.637 42.338 7.863 46.073 2.47 3.737-5.395-39.781-43.946-38.361-48.813 1.421-4.867 71.698 7.715 66.476 1.172-5.223-6.542-139.14-83.048-139.14-83.048s-55.256-39.862-88.563-17.203"/></g><g style="display:block"><path fill="none" stroke="#000" stroke-linecap="round" stroke-linejoin="round" stroke-width="17.64" d="M1116.864 2064.182s2.502 121.951 1.864 137.986"/><path fill="#FFD641" d="M1048.04 2254.016c-10.885-2.118-26.04-29.5-13.02-38.456 19.202-13.208 40.784-7.237 56.184-10.427 18.398-3.812 28.633-18.365 28.633-18.365s.77 12.433-.56 18.497-1.349 27.283-16.713 39.678c-15.364 12.397-43.638 11.192-54.524 9.073z"/><path fill="none" stroke="#000" stroke-linecap="round" stroke-linejoin="round" stroke-width="17.64" d="M1048.04 2254.016c-10.885-2.118-26.04-29.5-13.02-38.456 19.202-13.208 40.784-7.237 56.184-10.427 18.398-3.812 28.633-18.365 28.633-18.365s.77 12.433-.56 18.497-1.349 27.283-16.713 39.678c-15.364 12.397-43.638 11.192-54.524 9.073z"/></g><g style="display:block"><path fill="none" stroke="#000" stroke-linecap="round" stroke-linejoin="round" stroke-width="17.64" d="M878.898 2071.557s2.502 121.951 1.864 137.986"/><path fill="#FFD641" d="M810.074 2261.391c-10.886-2.118-26.041-29.5-13.02-38.456 19.201-13.208 40.784-7.237 56.183-10.427 18.399-3.812 28.633-18.365 28.633-18.365s.77 12.434-.56 18.497c-1.329 6.064-1.348 27.284-16.713 39.68-15.364 12.395-43.638 11.19-54.523 9.071z"/><path fill="none" stroke="#000" stroke-linecap="round" stroke-linejoin="round" stroke-width="17.64" d="M810.074 2261.391c-10.886-2.118-26.041-29.5-13.02-38.456 19.201-13.208 40.784-7.237 56.183-10.427 18.399-3.812 28.633-18.365 28.633-18.365s.77 12.434-.56 18.497c-1.329 6.064-1.348 27.284-16.713 39.68-15.364 12.395-43.638 11.19-54.523 9.071z"/></g><g style="display:block"><path fill="#FFD641" d="M823.727 2074.937c-7.569-3.165-88.953-33.781-114.476-110.325-25.525-76.545-10.458-170.556 10.459-255.03 20.918-84.474 87.691-246.986 101.368-268.708 13.677-21.722 63.559-148.03 69.994-163.315 6.436-15.287 28.333-94.38 28.333-94.38s73.59-38.284 162.165-24.771c88.576 13.51 145.039 56.335 144.937 87.657-.1 31.323-18.456 118.38-21.675 196.419-3.218 78.038 3.218 172.166 34.593 234.918 31.376 62.752 45.053 163.317 41.835 215.609-3.218 52.294-19.036 99.606-49.88 156.076-42.656 78.1-290.929 74.64-407.653 25.85z"/><path fill="none" stroke="#000" stroke-linecap="round" stroke-linejoin="round" stroke-width="17.64" d="M823.727 2074.937c-7.569-3.165-88.953-33.781-114.476-110.325-25.525-76.545-10.458-170.556 10.459-255.03 20.918-84.474 87.691-246.986 101.368-268.708 13.677-21.722 63.559-148.03 69.994-163.315 6.436-15.287 28.333-94.38 28.333-94.38s73.59-38.284 162.165-24.771c88.576 13.51 145.039 56.335 144.937 87.657-.1 31.323-18.456 118.38-21.675 196.419-3.218 78.038 3.218 172.166 34.593 234.918 31.376 62.752 45.053 163.317 41.835 215.609-3.218 52.294-19.036 99.606-49.88 156.076-42.656 78.1-290.929 74.64-407.653 25.85z"/><path fill="none" stroke="#000" stroke-linecap="round" stroke-linejoin="round" stroke-width="14.7" d="M926.471 1411.91s-5.631 24.137 0 28.963c5.632 4.827 28.158-14.481 28.158-14.481M866.132 1465.813s-11.263 26.55 0 31.375c11.263 4.828 24.94-15.688 24.94-15.688M1021.404 1518.106s5.631 12.068 10.459 12.873c4.826.804 13.675-6.437 13.675-6.437M965.892 1592.925s4.022 21.724 11.263 23.332c7.242 1.61 22.527-26.548 22.527-26.548M861.127 1622.693s-4.201 22.527 0 23.331c4.201.806 14.973-23.331 14.973-23.331M830.735 1719.235s-1.612 36.203 4.826 36.203c6.435 0 17.7-36.203 17.7-36.203M901.531 1710.385s-12.067 33.79 0 32.986c12.067-.804 25.744-32.986 25.744-32.986M751.891 1860.83s-3.218 33.789 10.46 32.985c13.676-.804 22.525-32.985 22.525-32.985M853.26 1815.776s-1.68 27.355 5.998 28.159c7.678.804 27.79-40.227 27.79-40.227M881.417 1907.492s-8.045 18.504 0 19.308c8.046.804 24.136-19.308 24.136-19.308M961.87 1817.385s-5.631 35.4 10.46 38.617c16.09 3.218 23.33-38.617 23.33-38.617M974.742 1926.824s-2.414 30.548 11.263 31.352c13.677.805 26.548-31.352 26.548-31.352"/><path fill="#FFD641" d="M815.392 2048.443s.415 47.137 6.921 53.603c6.506 6.465 39.577-12.2 42.773-11.81 3.194.388 4.095 32.915 12.684 35.583 8.59 2.667 28.71-9.47 35.974-15.879 0 0 11.137 29.806 19.429 28.26 8.292-1.547 19.811-56.363 19.811-56.363"/><path fill="none" stroke="#000" stroke-linecap="round" stroke-linejoin="round" stroke-width="14.7" d="M815.392 2048.443s.415 47.137 6.921 53.603c6.506 6.465 39.577-12.2 42.773-11.81 3.194.388 4.095 32.915 12.684 35.583 8.59 2.667 28.71-9.47 35.974-15.879 0 0 11.137 29.806 19.429 28.26 8.292-1.547 19.811-56.363 19.811-56.363"/><path fill="#FFD641" d="M1029.987 2083.19s20.538 42.43 29.184 45.49c8.648 3.06 30.556-27.958 33.609-28.972 3.054-1.015 17.782 28 26.69 26.737 8.904-1.264 21.898-20.841 25.723-29.742 0 0 22.815 22.178 29.651 17.233 6.834-4.945-6.206-59.42-6.206-59.42"/><path fill="none" stroke="#000" stroke-linecap="round" stroke-linejoin="round" stroke-width="14.7" d="M1029.987 2083.19s20.538 42.43 29.184 45.49c8.648 3.06 30.556-27.958 33.609-28.972 3.054-1.015 17.782 28 26.69 26.737 8.904-1.264 21.898-20.841 25.723-29.742 0 0 22.815 22.178 29.651 17.233 6.834-4.945-6.206-59.42-6.206-59.42"/></g><g style="display:block"><path fill="#FFF" d="M1226.509 741.917c118.796 30.946 140.476 111.295 134.572 165.37-5.902 54.074-21.424 100.428-81.68 153.989-60.257 53.56-52.892 184.786-52.892 184.786s-56.622 71.722-176.465 48.959c-119.843-22.763-128.835-77.747-132.851-100.512 0 0 23.633-66.505 5.618-136.314-18.015-69.81 27.023-135.115 27.023-135.115s27.023-7.882 55.065-94.796c30.589-94.808 141.937-107.122 221.61-86.367z"/><path fill="none" stroke="#000" stroke-linecap="round" stroke-linejoin="round" stroke-width="17.64" d="M1226.509 741.917c118.796 30.946 140.476 111.295 134.572 165.37-5.902 54.074-21.424 100.428-81.68 153.989-60.257 53.56-52.892 184.786-52.892 184.786s-56.622 71.722-176.465 48.959c-119.843-22.763-128.835-77.747-132.851-100.512 0 0 23.633-66.505 5.618-136.314-18.015-69.81 27.023-135.115 27.023-135.115s27.023-7.882 55.065-94.796c30.589-94.808 141.937-107.122 221.61-86.367z"/><path fill="#FFD641" d="M1092.221 832.004c-34.3 34.301-44.412 79.805-22.58 101.636 21.83 21.83 67.392 15.078 101.635-22.58 32.637-35.889 48.159-80.93 26.328-102.76-21.83-21.83-71.082-10.597-105.383 23.704z"/><path fill="none" stroke="#000" stroke-linecap="round" stroke-linejoin="round" stroke-width="17.64" d="M1110.096 875.414c0 6.238-5.424 37.1-5.424 37.1"/></g><g style="display:block"><path fill="#FFD641" d="M1074.815 1611.041c-4.835 30.276-15.6 126.295-15.6 126.295s-15.286 70.396 0 80.05c0 0 30.57-38.616 33.788-38.616 3.218 0-35.077 90.115-3.216 138.387 0 0 39.42-63.567 43.441-76.44 0 0-26.888 69.83 3.218 111.827 0 0 44.249-73.21 48.272-85.277 0 0-17.577 80.435 1.608 125.504 0 0 75.624-72.406 49.88-230.092-25.744-157.684-51.163-163.127-82.574-176.409-18.006-7.613-73.982-5.505-78.817 24.771z"/><path fill="none" stroke="#000" stroke-linecap="round" stroke-linejoin="round" stroke-width="17.64" d="M1074.815 1611.041c-4.835 30.276-15.6 126.295-15.6 126.295s-15.286 70.396 0 80.05c0 0 30.57-38.616 33.788-38.616 3.218 0-35.077 90.115-3.216 138.387 0 0 39.42-63.567 43.441-76.44 0 0-26.888 69.83 3.218 111.827 0 0 44.249-73.21 48.272-85.277 0 0-17.577 80.435 1.608 125.504 0 0 75.624-72.406 49.88-230.092-25.744-157.684-51.163-163.127-82.574-176.409-18.006-7.613-73.982-5.505-78.817 24.771z"/></g><g style="display:block"><path fill="#FFB448" d="M1059.052 997.768c6.005-10.51-58.55 26.271-60.05-15.014-.712-19.56-5.018 13.226-120.735 47.523-115.717 34.298-220.806 93.597-207.67 104.483 13.136 10.884 32.768 4.648 51.794 4.502 107.463-.817 330.656-130.985 336.661-141.494z"/><path fill="none" stroke="#000" stroke-linecap="round" stroke-linejoin="round" stroke-width="17.64" d="M1059.052 997.768c6.005-10.51-58.55 26.271-60.05-15.014-.712-19.56-5.018 13.226-120.735 47.523-115.717 34.298-220.806 93.597-207.67 104.483 13.136 10.884 32.768 4.648 51.794 4.502 107.463-.817 330.656-130.985 336.661-141.494z"/><path fill="#FFD641" d="M994.498 1077.336c47.51-32.058 41.61-45.817 63.622-83.088 0 0-61.849 36.974-160.337 64.554 0 0-201.98 74.414-230.079 74.858 0 0 18.022 18.884 37.049 18.74 107.463-.819 242.235-43.007 289.745-75.064z"/><path fill="none" stroke="#000" stroke-linecap="round" stroke-linejoin="round" stroke-width="17.64" d="M994.498 1077.336c47.51-32.058 41.61-45.817 63.622-83.088 0 0-61.849 36.974-160.337 64.554 0 0-201.98 74.414-230.079 74.858 0 0 18.022 18.884 37.049 18.74 107.463-.819 242.235-43.007 289.745-75.064z"/></g><g style="display:block"><path fill="#FFD641" d="M946.137 927.609s-119.411 46.933-156.02 66.997c-52.338 28.684-129.404 111.967-130.321 134.91-.918 22.944 187.223-55.983 252.384-75.256 65.16-19.274 133.993-47.724 152.348-65.161 0 0-37.628 21.108-51.394.917-13.767-20.19 3.67-43.998-34.876-62.407-19.685-9.402-32.121 0-32.121 0z"/><path fill="none" stroke="#000" stroke-linecap="round" stroke-linejoin="round" stroke-width="17.64" d="M946.137 927.609s-119.411 46.933-156.02 66.997c-52.338 28.684-129.404 111.967-130.321 134.91-.918 22.944 187.223-55.983 252.384-75.256 65.16-19.274 133.993-47.724 152.348-65.161 0 0-37.628 21.108-51.394.917-13.767-20.19 3.67-43.998-34.876-62.407-19.685-9.402-32.121 0-32.121 0z"/><path fill="#FFFFF7" d="M977.336 955.264s-143.619 71.81-180.633 93.28c-37.016 21.468-88.098 46.639-88.098 46.639s68.85-74.77 93.28-88.096c24.43-13.325 131.034-60.692 140.656-61.068 9.624-.378 26.651 1.842 34.795 9.245z"/></g></g></g></g></svg>