<svg xmlns="http://www.w3.org/2000/svg" width="64" height="64" style="width:100%;height:100%;transform:translate3d(0,0,0);content-visibility:visible"><defs><clipPath id="a"><path d="M0 0h64v64H0z"/></clipPath><clipPath id="b"><path d="M0 0h2048v2048H0z"/></clipPath><clipPath id="c"><path fill="#fff" d="M1037.636 460.364c-318.819 0-577.272 258.453-577.272 577.272 0 318.819 258.453 577.273 577.272 577.273 318.819 0 577.273-258.454 577.273-577.273s-258.454-577.272-577.273-577.272"/></clipPath></defs><g clip-path="url(#a)"><g clip-path="url(#b)" style="display:block" transform="matrix(.055 0 0 .055 -24.32 -24.32)"><g clip-path="url(#c)"><path fill="none" stroke="#000" stroke-linecap="round" stroke-linejoin="round" stroke-width="8" d="M5.362-25.788s4.085 44.426 1.021 48c-3.063 3.575-15.83 3.576-15.83 3.576" style="display:block" transform="matrix(2.5 0 0 2.5 1192.085 2023.152)"/><path fill="none" stroke="#000" stroke-linecap="round" stroke-linejoin="round" stroke-width="8" d="M7.14-25.532s3.574 40.851.511 45.957c-3.064 5.107-18.365 3.969-18.365 3.969" style="display:block" transform="matrix(2.5 0 0 2.5 1054.873 2011.023)"/><g style="display:block"><path fill="#E8344D" d="M1347.19 1782.51s15.32 102.127 31.915 134.042c16.595 31.915 68.935 91.915 85.532 84.255 16.595-7.66-67.66-117.447-67.66-117.447s97.02 90.64 113.618 74.042c16.595-16.595-86.81-100.85-86.81-100.85s114.895 80.425 131.49 60c16.595-20.425-117.448-94.467-117.448-94.467s120 71.49 132.768 54.892c12.765-16.595-121.278-75.317-121.278-75.317s134.043 57.445 131.49 25.53c-2.552-31.915-177.447-74.043-177.447-74.043l-56.17 29.363z"/><path fill="none" stroke="#000" stroke-linecap="round" stroke-linejoin="round" stroke-width="20" d="M1347.19 1782.51s15.32 102.127 31.915 134.042c16.595 31.915 68.935 91.915 85.532 84.255 16.595-7.66-67.66-117.447-67.66-117.447s97.02 90.64 113.618 74.042c16.595-16.595-86.81-100.85-86.81-100.85s114.895 80.425 131.49 60c16.595-20.425-117.448-94.467-117.448-94.467s120 71.49 132.768 54.892c12.765-16.595-121.278-75.317-121.278-75.317s134.043 57.445 131.49 25.53c-2.552-31.915-177.447-74.043-177.447-74.043l-56.17 29.363z"/></g><g style="display:block"><path fill="#E8344D" d="M1293.59 1372.502c-16.912 68.356-110.592 206.458-182.416 246.034-71.823 39.574-113.6 29.237-131.242 11.651-17.64-17.59 3.6-39.905 3.6-39.905s31.59-18.126 65.146-52.187c32.883-33.378 30.297-176.782 37.494-245.5 7.197-68.718 84.741-119.177 144.078-85.994 59.336 33.18 80.252 97.546 63.34 165.901z"/><path fill="none" stroke="#000" stroke-linecap="round" stroke-linejoin="round" stroke-width="20" d="M1293.59 1372.502c-16.912 68.356-110.592 206.458-182.416 246.034-71.823 39.574-113.6 29.237-131.242 11.651-17.64-17.59 3.6-39.905 3.6-39.905s31.59-18.126 65.146-52.187c32.883-33.378 30.297-176.782 37.494-245.5 7.197-68.718 84.741-119.177 144.078-85.994 59.336 33.18 80.252 97.546 63.34 165.901z"/></g><g style="display:block"><path fill="#E8344D" d="M971.658 1115.392s-51.733 93.68-78.466 166.095c-19.837 53.738-74.147 127.68-106.054 277.083-32.688 153.052-2.32 434.045 356.402 445.205 154.777 4.815 300.977-118.955 334.7-221.875 11.93-36.41 48.95-98.965 8.1-181.943-40.85-82.98-127.435-315.432-127.958-443.497-.522-128.068-42.712-253.317-99.01-288.463-56.297-35.147-166.21-35.38-216.092-9.76-49.88 25.62-94.752 84.815-100.485 97.318-5.733 12.505 28.863 159.837 28.863 159.837z"/><path fill="none" stroke="#000" stroke-linecap="round" stroke-linejoin="round" stroke-width="20" d="M971.658 1115.392s-51.733 93.68-78.466 166.095c-19.837 53.738-74.147 127.68-106.054 277.083-32.688 153.052-2.32 434.045 356.402 445.205 154.777 4.815 300.977-118.955 334.7-221.875 11.93-36.41 48.95-98.965 8.1-181.943-40.85-82.98-127.435-315.432-127.958-443.497-.522-128.068-42.712-253.317-99.01-288.463-56.297-35.147-166.21-35.38-216.092-9.76-49.88 25.62-94.752 84.815-100.485 97.318-5.733 12.505 28.863 159.837 28.863 159.837z"/><path fill="#FFF" d="M989.99 1007.497c28.368 35.823 73.373 12.885 116.803-26.435 47.65-43.14 51.417-92.962 22.067-124.292-22.327-23.835-87.567.147-124.715 34.675-48.88 45.435-65.437 51.297-14.155 116.052z"/><path fill="none" stroke="#000" stroke-linecap="round" stroke-linejoin="round" stroke-width="20" d="M1042.298 918.017c-9.49 6.963-9.46 24.64-8.038 30.915"/></g><g style="display:block"><path fill="#E8344D" d="M1175.402 1464.974s-49.496 132.52-49.626 227.142c-.176 126.451 23.555 180.062 32.641 180.5 9.087.437 48.467-115.79 52.767-148.638 0 0 .544 183.57 39.604 198.31 39.057 14.742 27.402-183.272 40.563-194.3 0 0 33.115 153.543 56.457 150.638 23.344-2.901-1.247-148.524-1.247-148.524s60.152 111.284 72.074 106.304c11.923-4.978 2.77-106.818 2.77-106.818s-95.76-252.906-129.555-301.111c-33.792-48.204-46.472-44.26-56.966-43.132-10.492 1.128-16.406-.196-31.022 12.705-10.832 9.562-28.46 66.924-28.46 66.924z"/><path fill="none" stroke="#000" stroke-linecap="round" stroke-linejoin="round" stroke-width="25" d="M1165.481 1500.643s-34.195 105.459-37.139 231.875c-2.267 97.27 12.375 140.973 30.11 141.599 22.715.798 47.67-118.931 51.971-151.778 0 0 1.304 185.206 40.364 199.948 39.058 14.743 27.4-183.27 40.564-194.298 0 0 25.908 157.632 56.513 150.061 29.457-7.286-1.303-147.948-1.303-147.948s52.648 109.992 72.075 106.306c19.428-3.686 14.526-60.18 2.882-108.586-5.406-22.487-46.952-121.55-74.652-177.693"/></g><g style="display:block"><path d="M710.207 1077.276c102.218 12.085 244.298 49.385 285.2 33.125 40.9-16.263 78.863-86.764 78.863-86.764s-253.209 10.937-397.158-7.606c0 0-113.574-16.32-125.429-25.906 0 0 59.913 75.492 158.524 87.15z"/><path fill="none" stroke="#000" stroke-linecap="round" stroke-linejoin="round" stroke-width="15" d="M710.207 1077.276c102.218 12.085 244.298 49.385 285.2 33.125 40.9-16.263 78.863-86.764 78.863-86.764s-253.209 10.937-397.158-7.606c0 0-113.574-16.32-125.429-25.906 0 0 59.913 75.492 158.524 87.15z"/><path fill="#FFFFF7" d="M1009.977 1055.656s-100.745-2.364-132.208-7.799c-31.461-5.436-109.805-6.73-109.805-6.73s46.404 13.074 56.988 14.359c10.584 1.287 42.179 2.461 50.704 5.48 8.526 3.02 71.91 5.835 78.139 5.374 6.226-.46 38.478-2.243 56.182-10.684z"/></g><g style="display:block"><path d="M954.628 941.345s-179.46 8.338-209.202 12.35c-29.741 4.008-197.523 34.491-202.427 40.069 0 0 109.382 33.194 254.871 33.905 145.493.712 249.82 2.265 267.948-4.197 0 0-40.397 8.336-72.465-19.872-32.07-28.21-18.747-46.167-38.725-62.255z"/><path fill="none" stroke="#000" stroke-linecap="round" stroke-linejoin="round" stroke-width="15" d="M954.628 941.345s-179.46 8.338-209.202 12.35c-29.741 4.008-197.523 34.491-202.427 40.069 0 0 109.382 33.194 254.871 33.905 145.493.712 249.82 2.265 267.948-4.197 0 0-40.397 8.336-72.465-19.872-32.07-28.21-18.747-46.167-38.725-62.255z"/><path fill="#FFFFF7" d="M616.844 992.294s82.995-21.764 106.693-22.202c23.696-.44 135.337-12.71 152.728-10.588 17.39 2.12 59.42-2.76 64.406 1.518 4.987 4.28 15.097 27.093 12.331 30.37-2.768 3.276-79.143-6.157-119.893-4.745-40.75 1.415-88.122 6.879-105.022 8.232-16.898 1.351-111.243-2.585-111.243-2.585z"/></g></g></g></g></svg>