<svg xmlns="http://www.w3.org/2000/svg" width="64" height="64" style="width:100%;height:100%;transform:translate3d(0,0,0);content-visibility:visible"><defs><clipPath id="a"><path d="M0 0h64v64H0z"/></clipPath><clipPath id="b"><path d="M0 0h2400v2400H0z"/></clipPath><clipPath id="c"><path fill="#fff" d="M1206.818 640.909c-320.074 0-579.545 259.472-579.545 579.546 0 320.074 259.471 579.545 579.545 579.545 320.074 0 579.546-259.47 579.546-579.545 0-320.074-259.472-579.546-579.546-579.546"/></clipPath></defs><g clip-path="url(#a)"><g clip-path="url(#b)" style="display:block" transform="matrix(.055 0 0 .055 -34 -34)"><g clip-path="url(#c)"><path fill-opacity=".2" d="M244.341 0c0 17.767-109.396 32.171-244.341 32.171S-244.34 17.767-244.34 0c0-17.768 109.395-32.171 244.34-32.171S244.341-17.768 244.341 0z" style="display:block" transform="translate(1165.718 2336.019) scale(1.248)"/><path d="M-33.702-22.979s19.751-3.476 32.681-11.234c20.425-12.255 33.702-36.766 36.766-34.723 3.064 2.042 14.298 26.553 15.319 31.659 1.021 5.107-21.447 20.426-31.66 22.468-10.212 2.043 35.745-2.042 38.809-4.085 3.064-2.042 4.085 29.617 0 34.724-4.085 5.106-38.809 3.063-45.957 1.021-7.15-2.043 31.659 16.34 37.787 16.34 6.127 0-5.107 29.617-15.319 33.702-10.213 4.086-65.362-38.808-76.596-48-11.234-9.191-20.426-34.723 8.17-41.872z" style="display:block" transform="rotate(17 -5766.93 6002.952) scale(2.4)"/><g style="display:block"><path d="M933.95 1925.865s-125.004 183.83-80.885 200.988c44.119 17.157 85.785-85.788 85.785-85.788s-41.666 88.238 0 90.689c41.67 2.45 41.67-63.728 41.67-63.728s-26.962 95.592 22.06 90.69c49.02-4.902 41.664-90.69 41.664-90.69s.002 58.827 36.77 46.57c36.766-12.254 49.018-166.67 17.156-183.83-31.865-17.156-127.455-44.117-164.22-4.901z"/><path fill="none" stroke="#000" stroke-linecap="round" stroke-linejoin="round" stroke-width="19.2" d="M999.618 2024.418S968.8 2144.8 977.913 2185.422c5.472 24.392 31.202 119.336 36.105 129.142 4.901 9.804-47.618 10.238-70.828 15.216"/></g><g style="display:block"><path d="M1230.477 1964.62s-14.707 198.535 31.865 188.731c46.57-9.804 41.666-85.785 41.666-85.785s0 83.335 34.315 75.981c34.315-7.353 19.608-95.592 19.608-95.592s4.903 112.75 51.473 88.239c46.572-24.51-51.473-242.655-68.628-252.459-17.158-9.804-110.3 80.885-110.3 80.885z"/><path fill="none" stroke="#000" stroke-linecap="round" stroke-linejoin="round" stroke-width="19.2" d="M1326.069 2023.446c17.157 26.962 17.131 133.354 7.865 156.408-9.413 23.415-9.094 93.092-16.445 110.247-7.354 17.157 17.157 22.06 49.022 34.315"/></g><g style="display:block"><path fill="#E84A5B" d="M992.605 1220.277c-38.113 12.479-72.032 45.14-87.943 65.047-15.91 19.909-58.32 82.068-75.18 151.12-16.859 69.054 16.426 121.3-3.52 171.297-17.913 44.9-14.153 115.833 27.086 107.307 32.645-6.75 22.463-57.446 22.463-57.446s15.75 45.236 43.213 11.588c24.583-30.12-9.319-56.541-9.319-56.541s32.902 14.644 42.363-31.205c6.882-33.35-26.115-52.508-26.115-52.508s43.576 2.28 50.358-29.132c8.627-39.963-27.955-44.897-27.955-44.897s37.192 4.39 44.177-21.98c7.257-27.396-35.163-37.827-35.163-37.827s37.038 13.182 46.613-13.073c11.915-32.668-25.634-47.958-25.634-47.958s43.12 24.677 54.702-8.452c6.648-19.008-26.004-37.342-26.004-37.342s19.486-24.322 10.264-39.834"/><path fill="none" stroke="#000" stroke-linecap="round" stroke-linejoin="round" stroke-width="19.2" d="M992.605 1220.277c-38.113 12.479-72.032 45.14-87.943 65.047-15.91 19.909-58.32 82.068-75.18 151.12-16.859 69.054 16.426 121.3-3.52 171.297-17.913 44.9-14.153 115.833 27.086 107.307 32.645-6.75 22.463-57.446 22.463-57.446s15.75 45.236 43.213 11.588c24.583-30.12-9.319-56.541-9.319-56.541s32.902 14.644 42.363-31.205c6.882-33.35-26.115-52.508-26.115-52.508s43.576 2.28 50.358-29.132c8.627-39.963-27.955-44.897-27.955-44.897s37.192 4.39 44.177-21.98c7.257-27.396-35.163-37.827-35.163-37.827s37.038 13.182 46.613-13.073c11.915-32.668-25.634-47.958-25.634-47.958s43.12 24.677 54.702-8.452c6.648-19.008-26.004-37.342-26.004-37.342s19.486-24.322 10.264-39.834"/><path fill="none" stroke="#FFF" stroke-linecap="round" stroke-linejoin="round" stroke-width="19.2" d="M914.028 1308.737s-84.316 89.397-78.094 157.259c6.313 68.861 3.414 143.963 3.414 143.963"/></g><g style="display:block"><path fill="#E84A5B" d="M1125.921 2041.96c96.132 29.39 240.476 10.302 283.572-38.892 28.869-32.952 98.707-239.27 134.4-422.826 28.168-144.858 31.443-294.986 19.216-362.563-16.197-89.532-133.203 83.584-353.476 49.559-178.152-27.518-206.007-168.708-209.232-158.162-25.336 82.873-73.093 216.019-116.164 415.584-33.265 154.123-42.442 348.415 11.916 413.734 54.36 65.317 152.418 79.917 229.768 103.566z"/><path fill="none" stroke="#000" stroke-linecap="round" stroke-linejoin="round" stroke-width="19.2" d="M1125.921 2041.96c96.132 29.39 240.476 10.302 283.572-38.892 28.869-32.952 98.707-239.27 134.4-422.826 28.168-144.858 31.443-294.986 19.216-362.563-16.197-89.532-133.203 83.584-353.476 49.559-178.152-27.518-206.007-168.708-209.232-158.162-25.336 82.873-73.093 216.019-116.164 415.584-33.265 154.123-42.442 348.415 11.916 413.734 54.36 65.317 152.418 79.917 229.768 103.566z"/><path fill="#FFF" d="M1098.345 1436.335s-40.41 151.042-23.167 220.39c17.244 69.349-14.068 119.368-14.068 119.368s-52.522-146.773-38.965-224.647c13.554-77.874 76.2-115.11 76.2-115.11z"/><path fill="none" stroke="#000" stroke-linecap="round" stroke-linejoin="round" stroke-width="52.8" d="M1094.06 1358.134a216.208 216.208 0 0 0-5.08 3.19"/><path fill="none" stroke="#000" stroke-dasharray="11.9088 119.088" stroke-linecap="round" stroke-linejoin="round" stroke-width="52.8" d="M1007.81 1447.019c-16.462 28.235-27.321 59.38-30.2 90.811-5.48 59.837 37.78 124.478 37.22 154.91-.498 26.992-4.53 52.495-11.608 75.302"/><path fill="none" stroke="#000" stroke-linecap="round" stroke-linejoin="round" stroke-width="52.8" d="M977.546 1821.52a148.33 148.33 0 0 1-3.564 4.829M1210.542 1396.311a341.71 341.71 0 0 0-4.793 3.61"/><path fill="none" stroke="#000" stroke-dasharray="11.4384 114.3864" stroke-linecap="round" stroke-linejoin="round" stroke-width="52.8" d="M1129.295 1484.125c-20.302 33.406-33.988 71.406-39.31 113.693-8.971 71.26 44.907 121.379 54.486 207.417 4.25 38.174-4.603 74.297-18.283 105.702"/><path fill="none" stroke="#000" stroke-linecap="round" stroke-linejoin="round" stroke-width="52.8" d="M1098.678 1960.991a365.462 365.462 0 0 1-3.35 4.98M1388.294 1435.276c.843 1.839 1.678 3.658 2.502 5.458"/><path fill="none" stroke="#000" stroke-dasharray="11.1072 111.06960000000001" stroke-linecap="round" stroke-linejoin="round" stroke-width="52.8" d="M1429.239 1544.642c6.6 33.306 6.89 70.663-1.784 123.03-11.811 71.313-29.709 113.944-96.595 198.579-23.075 29.202-35.798 50.068-50.641 69"/><path fill="none" stroke="#000" stroke-linecap="round" stroke-linejoin="round" stroke-width="52.8" d="M1241.276 1974.67a306.065 306.065 0 0 1-4.706 3.721M1281.832 1456.552a663.1 663.1 0 0 1 2.475 5.465"/><path fill="none" stroke="#000" stroke-dasharray="11.234399999999999 112.356" stroke-linecap="round" stroke-linejoin="round" stroke-width="52.8" d="M1320.959 1568.073c5.464 22.686 9.219 45.119 10.77 66.496"/><path fill="none" stroke="#000" stroke-linecap="round" stroke-linejoin="round" stroke-width="52.8" d="M1329.97 1690.593c-.315 1.99-.66 3.96-1.034 5.908M1179.132 1566.121c.82 1.79 1.656 3.606 2.505 5.45"/><path fill="none" stroke="#000" stroke-dasharray="13.905599999999998 139.0512" stroke-linecap="round" stroke-linejoin="round" stroke-width="52.8" d="M1235.808 1699.463c9.153 27.423 15.994 55.123 18.032 81.274"/><path fill="none" stroke="#000" stroke-linecap="round" stroke-linejoin="round" stroke-width="52.8" d="M1244.693 1849.08a103.165 103.165 0 0 1-2.516 5.44"/></g><g style="display:block"><path fill="#E84A5B" d="M1238.445 1279.891c190.355 31.286 322.044-47.024 323.11-101.135 1.167-59.33-3.174-88.09-7.228-110.497-16.197-89.535-30.636-201.596-250.909-235.622-178.152-27.518-231.424 77.904-270.839 206.824-25.336 82.87-28.199 201.961 205.866 240.43z"/><path fill="none" stroke="#000" stroke-linecap="round" stroke-linejoin="round" stroke-width="19.2" d="M1238.445 1279.891c190.355 31.286 322.044-47.024 323.11-101.135 1.167-59.33-3.174-88.09-7.228-110.497-16.197-89.535-30.636-201.596-250.909-235.622-178.152-27.518-231.424 77.904-270.839 206.824-25.336 82.87-28.199 201.961 205.866 240.43z"/><path fill="#FFF" d="M1213.163 1240.417s89.628 21.128 142.898-18.973c53.268-40.102 97.505-142.528 84.293-174.76-13.214-32.234-48.762-58.482-89.13-60.572-40.37-2.09-102.822 42.893-123.917 36.444-21.096-6.45-15.257-71.15-46.283-83.352-36.606-14.396-88.214-12.74-103.13 10.894-14.914 23.633-54.856 120.218-50.301 147.242 4.552 27.023 77.8 94.882 103.595 109.23 25.578 14.228 81.975 33.847 81.975 33.847z"/><path fill="none" stroke="#000" stroke-linecap="round" stroke-linejoin="round" stroke-width="24" d="m1335.974 1061.84-10.525 36.51M1114.278 994.487l-4.355 35.194"/></g><g style="display:block"><path fill="#684F3A" d="M1024.248 1049.941s39.625 188.966 217.51 202.343c177.89 13.375 325.78-118.258 325.78-118.258s-1.969 107.047-.865 120.2c1.105 13.154-231.365 111.242-370.57 63.555-139.204-47.683-205.206-175.514-205.206-175.514l33.351-92.326z"/><path fill="none" stroke="#000" stroke-linecap="round" stroke-linejoin="round" stroke-width="19.2" d="M1024.248 1049.941s39.625 188.966 217.51 202.343c177.89 13.375 325.78-118.258 325.78-118.258s-1.969 107.047-.865 120.2c1.105 13.154-231.365 111.242-370.57 63.555-139.204-47.683-205.206-175.514-205.206-175.514l33.351-92.326z"/></g><g style="display:block"><path fill="#C54366" d="M1256.9 1166.715s-67.635-81.68-118.072-69.042c-50.434 12.637-144.52 150.561-175.417 232.63-30.895 82.07-49.31 236.767-26.705 217.167 22.603-19.6 131.58-131.297 176.029-177.812 44.45-46.515 122.334-173.052 122.334-173.052s-101.021 135.102-131.097 177.66c-30.075 42.554-177.02 174.218-145.833 166.048 31.187-8.172 128.726-136.598 182.167-191.442 53.439-54.84 135.942-161.99 116.595-182.157z"/><path fill="none" stroke="#000" stroke-linecap="round" stroke-linejoin="round" stroke-width="19.2" d="M1256.9 1166.715s-67.635-81.68-118.072-69.042c-50.434 12.637-144.52 150.561-175.417 232.63-30.895 82.07-49.31 236.767-26.705 217.167 22.603-19.6 131.58-131.297 176.029-177.812 44.45-46.515 122.334-173.052 122.334-173.052s-101.021 135.102-131.097 177.66c-30.075 42.554-177.02 174.218-145.833 166.048 31.187-8.172 128.726-136.598 182.167-191.442 53.439-54.84 135.942-161.99 116.595-182.157z"/><path fill="#FFF" d="M1187.25 1155.242s-29.605-24.029-57.338-6.359c-11.723 7.466-35.58 42.166-59.134 82.342-32.179 54.881-63.8 119.984-63.16 139.836 30.583-37.68 73.26-101.259 108.462-141.885 25.074-28.932 71.17-73.934 71.17-73.934z"/></g><g style="display:block"><path fill="#E84A5B" d="M1550.286 1318.358c31.065 25.364 50.95 68.046 58.626 92.347 7.676 24.301 24.863 97.56 15.73 168.053-9.131 70.493-58.994 107.251-58.387 161.077.547 48.339-28.499 113.16-63.902 90.36-28.026-18.051-.275-61.681-.275-61.681s-30.98 36.531-44.487-4.747c-12.09-36.951 29.05-49.395 29.05-49.395s-35.967 1.816-28.287-44.364c5.586-33.592 43.268-39.585 43.268-39.585s-41.475-13.562-36.493-45.31c6.34-40.388 42.245-31.82 42.245-31.82s-36.278-9.296-33.3-36.412c3.092-28.171 46.423-22.63 46.423-22.63s-39.3-1.037-38.781-28.978c.645-34.768 41.182-35.514 41.182-35.514s-49.113 7.498-47.992-27.579c.642-20.127 37.705-25.476 37.705-25.476s-9.422-29.706 4.766-40.858"/><path fill="none" stroke="#000" stroke-linecap="round" stroke-linejoin="round" stroke-width="19.2" d="M1550.286 1318.358c31.065 25.364 50.95 68.046 58.626 92.347 7.676 24.301 24.863 97.56 15.73 168.053-9.131 70.493-58.994 107.251-58.387 161.077.547 48.339-28.499 113.16-63.902 90.36-28.026-18.051-.275-61.681-.275-61.681s-30.98 36.531-44.487-4.747c-12.09-36.951 29.05-49.395 29.05-49.395s-35.967 1.816-28.287-44.364c5.586-33.592 43.268-39.585 43.268-39.585s-41.475-13.562-36.493-45.31c6.34-40.388 42.245-31.82 42.245-31.82s-36.278-9.296-33.3-36.412c3.092-28.171 46.423-22.63 46.423-22.63s-39.3-1.037-38.781-28.978c.645-34.768 41.182-35.514 41.182-35.514s-49.113 7.498-47.992-27.579c.642-20.127 37.705-25.476 37.705-25.476s-9.422-29.706 4.766-40.858"/><path fill="none" stroke="#FFF" stroke-linecap="round" stroke-linejoin="round" stroke-width="19.2" d="M1591.745 1429.176s46.476 113.758 16.24 174.83c-30.682 61.97-55.016 133.08-55.016 133.08"/></g></g></g></g></svg>