<svg xmlns="http://www.w3.org/2000/svg" width="64" height="64" style="width:100%;height:100%;transform:translate3d(0,0,0);content-visibility:visible"><defs><clipPath id="a"><path d="M0 0h64v64H0z"/></clipPath><clipPath id="b"><path d="M0 0h2048v2048H0z"/></clipPath><clipPath id="c"><path fill="#fff" d="M1019.455 464.909c-316.309 0-572.728 256.418-572.728 572.727 0 316.309 256.419 572.728 572.728 572.728 316.308 0 572.727-256.42 572.727-572.728 0-316.309-256.42-572.727-572.727-572.727"/></clipPath></defs><g clip-path="url(#a)"><g clip-path="url(#b)" style="display:block" transform="matrix(.055 0 0 .055 -24.32 -24.32)"><g clip-path="url(#c)"><path fill="none" stroke="#000" stroke-linecap="round" stroke-linejoin="round" stroke-width="4" d="M-8.35-28.92s-1.171 54.501 1.532 56.17c2.703 1.67 16.339 1.532 16.339 1.532" style="display:block" transform="matrix(4.29 0 0 4.29 709.08 2212.64)"/><path fill="none" stroke="#000" stroke-linecap="round" stroke-linejoin="round" stroke-width="4" d="M-9.056-32.485c-.627 8.778-2.508 62.072 1.881 63.326 4.389 1.254 18.74 1.644 18.74 1.644" style="display:block" transform="matrix(4.29 0 0 4.29 531.637 2223.042)"/><g style="display:block"><path fill="#FFF" d="M292.012 1705.328c135.773 9.277 198.114 26.597 292.111-219.12 93.993-245.717-14.513-512.054 103.169-620.702 117.678-108.65 202.555-46.065 258.635 69.568 56.082 115.63 8.681 134.327 2.95 168.809-5.732 34.486 64.821 382.853 59.829 466.187-4.992 83.329-26.393 425.275-338.106 541.783-358.917 96.402-549.536-364.065-484.904-406.479 64.633-42.409 106.316-.046 106.316-.046z"/><path fill="none" stroke="#000" stroke-linecap="round" stroke-linejoin="round" stroke-width="17.16" d="M292.012 1705.328c135.773 9.277 198.114 26.597 292.111-219.12 93.993-245.717-14.513-512.054 103.169-620.702 117.678-108.65 202.555-46.065 258.635 69.568 56.082 115.63 8.681 134.327 2.95 168.809-5.732 34.486 64.821 382.853 59.829 466.187-4.992 83.329-26.393 425.275-338.106 541.783-358.917 96.402-549.536-364.065-484.904-406.479 64.633-42.409 106.316-.046 106.316-.046z"/></g><g style="display:block"><path fill="#EB9D51" d="M959.484 996.546c39.02 11.094 244.719 27.968 309.27 46.639-68.84 41.387-150.354 52.114-242.68 57.965-80.97 5.133-134.174-27.265-162.35-51.957-30.607-26.824-56.747-95.751-15.06-83.919 27.356 7.766 110.82 31.272 110.82 31.272z"/><path fill="none" stroke="#000" stroke-linecap="round" stroke-linejoin="round" stroke-width="17.16" d="M959.484 996.546c39.02 11.094 244.719 27.968 309.27 46.639-68.84 41.387-150.354 52.114-242.68 57.965-80.97 5.133-134.174-27.265-162.35-51.957-30.607-26.824-56.747-95.751-15.06-83.919 27.356 7.766 110.82 31.272 110.82 31.272z"/></g><g style="display:block"><path fill="#EB9D51" d="M834.37 953.962c9.468-58.143 52.367-45.274 82.216-45.023 138.615.092 372.426 126.517 352.517 132.79-19.903 6.273-170.01 6.382-324.646-30.117-74.788-17.653-114.697-29.338-110.088-57.65z"/><path fill="none" stroke="#000" stroke-linecap="round" stroke-linejoin="round" stroke-width="17.16" d="M834.37 953.962c9.468-58.143 52.367-45.274 82.216-45.023 138.615.092 372.426 126.517 352.517 132.79-19.903 6.273-170.01 6.382-324.646-30.117-74.788-17.653-114.697-29.338-110.088-57.65z"/></g><g style="display:block"><path fill="#FFF" d="M836.833 1443.91c-24.344 28.858-53.665 71.403-68.492 103.184-39.977 85.673-37.545 174.309-25.607 243.058 12.205 70.272 31.346 204.141 12.77 207.645-18.572 3.501-116.076-100.581-104.641-169.222-18.81 39.539-42.196 86.14-49.498 64.187-7.3-21.958 8.914-140.21-1.958-148.128-15.26 26.961-61.45 101.37-63.814 86.34-2.364-15.031-14.697-77.964 25.694-151.698-15.028 2.36-74.841 53.094-77.795 50.659-2.955-2.436 53.19-144.135 79.328-198.305 26.14-54.164 72.654-113.462 159.294-150.187"/><path fill="none" stroke="#000" stroke-linecap="round" stroke-linejoin="round" stroke-width="17.16" d="M836.833 1443.91c-24.344 28.858-53.665 71.403-68.492 103.184-39.977 85.673-37.545 174.309-25.607 243.058 12.205 70.272 31.346 204.141 12.77 207.645-18.572 3.501-116.076-100.581-104.641-169.222-18.81 39.539-42.196 86.14-49.498 64.187-7.3-21.958 8.914-140.21-1.958-148.128-15.26 26.961-61.45 101.37-63.814 86.34-2.364-15.031-14.697-77.964 25.694-151.698-15.028 2.36-74.841 53.094-77.795 50.659-2.955-2.436 53.19-144.135 79.328-198.305 26.14-54.164 72.654-113.462 159.294-150.187"/></g><path fill="none" stroke="#000" stroke-linecap="round" stroke-linejoin="round" stroke-width="4" d="M4.848-7.647C-2.326-7.644-6.645.677 1.366 8.959" style="display:block" transform="rotate(9.437 -5312.875 5089.004) scale(4.29)"/></g></g></g></svg>