<svg xmlns="http://www.w3.org/2000/svg" width="64" height="64" style="width:100%;height:100%;transform:translate3d(0,0,0);content-visibility:visible"><defs><clipPath id="a"><path d="M0 0h64v64H0z"/></clipPath><clipPath id="b"><path d="M0 0h2400v2400H0z"/></clipPath><clipPath id="c"><path fill="#fff" d="M1202.273 640.909c-315.053 0-570.455 255.402-570.455 570.455 0 315.053 255.402 570.454 570.455 570.454 315.053 0 570.454-255.401 570.454-570.454 0-315.053-255.401-570.455-570.454-570.455"/></clipPath></defs><g clip-path="url(#a)"><g clip-path="url(#b)" style="display:block" transform="matrix(.055 0 0 .055 -34 -34)"><g clip-path="url(#c)"><path fill="#797979" fill-opacity=".3" d="M244.341 0c0 17.767-109.396 32.171-244.341 32.171S-244.34 17.767-244.34 0c0-17.768 109.395-32.171 244.34-32.171S244.341-17.768 244.341 0z" style="display:block" transform="matrix(.93157 0 0 1.80031 1019.277 2217.449)"/><path fill="none" stroke="#000" stroke-linecap="round" stroke-linejoin="round" stroke-width="8" d="M-18.383-55.149S-42.364 50.303-33.172 53.367c9.191 3.064 17.33 4.096 17.33 4.096" style="display:block" transform="matrix(3.15 0 0 3.15 1057.272 2042.523)"/><path fill="none" stroke="#000" stroke-linecap="round" stroke-linejoin="round" stroke-width="8" d="M-18.383-55.149S-42.364 50.303-33.172 53.367c9.191 3.064 17.33 4.096 17.33 4.096" style="display:block" transform="matrix(3.15 0 0 3.15 1145.472 2038.324)"/><g style="display:block"><path fill="#00A193" d="M1326.227 1291.784c86.768-23.903 53.291-1.79 100.803-53.692 52.315-57.149 52.32-168.968-46.044-194.483-231.553-60.067-372.952 107.213-464.311 248.453-79.428 122.793-130.584 311.766-132.644 407.778-2.373 110.663 9.876 176.112 41.527 223.114 13.178 19.567 40.31 75.162 96.679 88.584 36.227 8.625 157.41 32.91 208.111-3.364 72.767-52.06 76.929-75.368 85.541-113.06 15.573-68.152 9.642-151.416-5.4-194.353-15.042-42.938-59.58-126.45-70.341-177.045-1.78-32.808 10.597-137.424 38.783-182.945 33.353-53.866 147.296-48.987 147.296-48.987z"/><path fill="none" stroke="#000" stroke-linecap="round" stroke-linejoin="round" stroke-width="16.8" d="M1326.227 1291.784c86.768-23.903 53.291-1.79 100.803-53.692 52.315-57.149 52.32-168.968-46.044-194.483-231.553-60.067-372.952 107.213-464.311 248.453-79.428 122.793-130.584 311.766-132.644 407.778-2.373 110.663 9.876 176.112 41.527 223.114 13.178 19.567 40.31 75.162 96.679 88.584 36.227 8.625 157.41 32.91 208.111-3.364 72.767-52.06 76.929-75.368 85.541-113.06 15.573-68.152 9.642-151.416-5.4-194.353-15.042-42.938-59.58-126.45-70.341-177.045-1.78-32.808 10.597-137.424 38.783-182.945 33.353-53.866 147.296-48.987 147.296-48.987z"/><path fill="none" stroke="#FFF" stroke-linecap="round" stroke-linejoin="round" stroke-width="16.8" d="M919.42 1314.802s-107.805 164.715-119.125 366.327"/></g><path fill="none" stroke="#000" stroke-linecap="round" stroke-linejoin="round" stroke-width="8" d="M-.452-5.335s3.332 7.045-1.08 9.42" style="display:block" transform="rotate(-27.437 2937.68 -2169.726) scale(2.1)"/><path fill="none" stroke="#000" stroke-linecap="round" stroke-linejoin="round" stroke-width="8" d="M-2.935-3.807S2.166.14 8.068 5.126" style="display:block" transform="rotate(-27.437 2808.388 -2246.866) scale(2.1)"/><g style="display:block"><path fill="#00A193" d="M994.11 1511.03s-2.86 95.73 5.841 147.394c8.383 49.781 39.145 119.945 50.017 139.164 43.947 77.675 39.744 115.474 58.24 174.33 10.327 32.863 41.095-18.622 48.061-58.97 9.043-52.386 19.393-137.971 14.681-196.534-5.638-70.052-39.414-157.114-83.342-254.528-13.487-29.907-39.236-56.957-50.731-55.824"/><path fill="none" stroke="#000" stroke-linecap="round" stroke-linejoin="round" stroke-width="16.8" d="M994.11 1511.03s-2.86 95.73 5.841 147.394c8.383 49.781 39.145 119.945 50.017 139.164 43.947 77.675 39.744 115.474 58.24 174.33 10.327 32.863 41.095-18.622 48.061-58.97 9.043-52.386 19.393-137.971 14.681-196.534-5.638-70.052-39.414-157.114-83.342-254.528-13.487-29.907-39.236-56.957-50.731-55.824"/></g><g style="display:block"><path fill="#00A193" d="M863.307 1816.26s-107.562-24.745-154.791-25.178c-32.17-.292-135.078-2.5-126.28 15.207 8.798 17.709 189.446 39.91 188.167 51.973-1.279 12.065-168.879 53.774-159.37 79.183 9.506 25.407 182.498-9.63 192.574-3.987 10.077 5.642-109.194 66.202-90.71 78.835 18.487 12.635 121.718-40.473 127.11-33.802 5.395 6.673-85.955 91.54-65.481 99.81 20.473 8.27 142.874-96.181 153.202-107.286"/><path fill="none" stroke="#000" stroke-linecap="round" stroke-linejoin="round" stroke-width="16.8" d="M863.307 1816.26s-107.562-24.745-154.791-25.178c-32.17-.292-135.078-2.5-126.28 15.207 8.798 17.709 189.446 39.91 188.167 51.973-1.279 12.065-168.879 53.774-159.37 79.183 9.506 25.407 182.498-9.63 192.574-3.987 10.077 5.642-109.194 66.202-90.71 78.835 18.487 12.635 121.718-40.473 127.11-33.802 5.395 6.673-85.955 91.54-65.481 99.81 20.473 8.27 142.874-96.181 153.202-107.286"/></g><g style="display:block"><path fill="#F9BA85" d="M1693.121 1177.693c-.06-2.524-202.941 70.23-233.339 21.946 89.322 31.89 244.086-46.043 241.595-48.03-53.81-42.924-277.915-120.979-294.94-97.585-6.425 8.827 29.148 31.769 28.665 104.844-.394 59.567-54.559 105.75-39.387 116.496 16.512 11.692 298.281-60.15 297.406-97.67z"/><path fill="none" stroke="#000" stroke-linecap="round" stroke-linejoin="round" stroke-width="16.8" d="M1693.121 1177.693c-.06-2.524-202.941 70.23-233.339 21.946 89.322 31.89 244.086-46.043 241.595-48.03-53.81-42.924-277.915-120.979-294.94-97.585-6.425 8.827 29.148 31.769 28.665 104.844-.394 59.567-54.559 105.75-39.387 116.496 16.512 11.692 298.281-60.15 297.406-97.67z"/><path fill="#FFF" d="m1474.277 1078.911 21.426 38.677 144.792 18.322s-145.356-53.69-166.218-56.999z"/></g></g></g></g></svg>