<svg xmlns="http://www.w3.org/2000/svg" width="64" height="64" style="width:100%;height:100%;transform:translate3d(0,0,0);content-visibility:visible"><defs><clipPath id="a"><path d="M0 0h64v64H0z"/></clipPath><clipPath id="b"><path d="M0 0h2400v2400H0z"/></clipPath><clipPath id="c"><path fill="#fff" d="M1218.182 209.091c-321.329 0-581.818 260.489-581.818 581.818s260.489 581.818 581.818 581.818S1800 1112.238 1800 790.91s-260.489-581.818-581.818-581.818"/></clipPath></defs><g clip-path="url(#a)"><g clip-path="url(#b)" style="display:block" transform="matrix(.055 0 0 .055 -34 -10.75)"><g clip-path="url(#c)"><path fill="#7A7A7A" fill-opacity=".3" d="M235.915 0c0 24.536-105.623 44.426-235.915 44.426-130.292 0-235.915-19.89-235.915-44.426S-130.292-44.426 0-44.426c130.292 0 235.915 19.89 235.915 44.426z" style="display:block" transform="rotate(-5.658 23009.54 -11053.713) scale(2)"/><g style="display:block"><path d="M1328.255 1116.1c75.252-37.617 100.365 73.525 186.37 163.844 86.007 90.317 224.389 113.51 246.622 140.457 26.627 32.275-81.723 26.269-107.742 1.78-26.021-24.486 54.152 45.194 22.554 57.305-31.602 12.111-113.892-53.785-113.892-53.785s52.425 61.6 13.263 69.479c-39.163 7.88-84.859-52.44-84.859-52.44s29.738 48.908-5.193 49.224c-34.932.317-97.8-86.984-97.8-86.984s24.648 71.71-9.497 79.093c-48.007 10.378-225.583-280.117-49.826-367.974z"/><path fill="none" stroke="#000" stroke-linecap="round" stroke-linejoin="round" stroke-width="8" d="M1328.255 1116.1c75.252-37.617 100.365 73.525 186.37 163.844 86.007 90.317 224.389 113.51 246.622 140.457 26.627 32.275-81.723 26.269-107.742 1.78-26.021-24.486 54.152 45.194 22.554 57.305-31.602 12.111-113.892-53.785-113.892-53.785s52.425 61.6 13.263 69.479c-39.163 7.88-84.859-52.44-84.859-52.44s29.738 48.908-5.193 49.224c-34.932.317-97.8-86.984-97.8-86.984s24.648 71.71-9.497 79.093c-48.007 10.378-225.583-280.117-49.826-367.974z"/></g><g style="display:block"><path d="M1362.311 1813.919c30.158 24.72 67.568 122.617 42.845 152.778-24.72 30.158-50.565-44.255-50.565-44.255s22.793 74.713-9.839 87.183c-32.631 12.468-45.07-50.952-45.07-50.952s20.351 81.11-15.934 87.784c-36.284 6.674-43.534-66.5-43.534-66.5s.289 74.079-28.719 67.5c-37.795-8.571-33.634-59.783-21.685-125.622 11.951-65.84 17.939-114.154 71.008-137.886 53.067-23.73 71.335 5.248 101.493 29.97z"/><path fill="none" stroke="#000" stroke-linecap="round" stroke-linejoin="round" stroke-width="20" d="M1287.515 1929.088s49.277 76.281 44.082 134.18c-5.851 65.234-47.056 115.501-47.056 115.501s4.89-12.802 23.182-14.614c18.294-1.813 28.65 9.48 46.945 7.667 18.292-1.812 21.974-26.807 21.974-26.807"/></g><g style="display:block"><path d="M1115.517 1838.37c30.159 24.72 67.568 122.617 42.846 152.777-24.722 30.159-50.566-44.254-50.566-44.254s22.793 74.713-9.838 87.183c-32.632 12.468-45.071-50.953-45.071-50.953s20.351 81.11-15.933 87.785c-36.285 6.673-43.535-66.5-43.535-66.5s.29 74.078-28.719 67.5c-37.795-8.572-33.634-59.783-21.685-125.622 11.951-65.841 17.94-114.155 71.008-137.887 53.067-23.73 71.335 5.249 101.493 29.97z"/><path fill="none" stroke="#000" stroke-linecap="round" stroke-linejoin="round" stroke-width="20" d="M1040.722 1953.538s49.276 76.282 44.081 134.18c-5.85 65.235-47.056 115.502-47.056 115.502s4.89-12.802 23.182-14.615c18.295-1.812 28.65 9.48 46.945 7.667 18.292-1.812 21.974-26.807 21.974-26.807"/></g><g style="display:block"><path d="M950.036 1754.7c-82.113-51.9-167.474-10.53-261.604 32.076-97.24 44.014-121.37 68.842-115.31 79.158 11.111 18.911 108.402-24.595 120.143-30.377 11.743-5.78-214.265 182.544-175.343 219.037 23.758 22.276 204.403-158.798 204.403-158.798s-152.203 197.074-108.118 213.913c22.4 8.558 167.651-141.3 167.651-141.3s-125.642 207.951-85.25 211.647c40.39 3.696 138.4-156.877 138.4-156.877s-34.917 175.873-14.947 175.434c39.85-.875 88.38-133.447 88.38-133.447s-2.172 164.974 22.588 134.77c62.72-76.515 110.655-387.307 19.007-445.236z"/><path fill="none" stroke="#000" stroke-linecap="round" stroke-linejoin="round" stroke-width="8" d="M950.036 1754.7c-82.113-51.9-167.474-10.53-261.604 32.076-97.24 44.014-121.37 68.842-115.31 79.158 11.111 18.911 108.402-24.595 120.143-30.377 11.743-5.78-214.265 182.544-175.343 219.037 23.758 22.276 204.403-158.798 204.403-158.798s-152.203 197.074-108.118 213.913c22.4 8.558 167.651-141.3 167.651-141.3s-125.642 207.951-85.25 211.647c40.39 3.696 138.4-156.877 138.4-156.877s-34.917 175.873-14.947 175.434c39.85-.875 88.38-133.447 88.38-133.447s-2.172 164.974 22.588 134.77c62.72-76.515 110.655-387.307 19.007-445.236z"/></g><path d="M-72.822-240.658c40.851 84.766 15.63 126.786-5.817 214.616-21.447 87.829-77.616 142.978-91.914 179.744-14.298 36.766-27.574 89.873 23.49 123.575 51.063 33.702 119.6 14.96 179.744-4.085 61.277-19.405 140.935-56.171 153.191-198.128C198.127-66.893 160.426-161.96 80.681-239.489c-73.532-71.49-194.354-85.935-153.503-1.169z" style="display:block" transform="rotate(-5.658 14356.143 -10501.79) scale(2)"/><g style="display:block"><path d="M1377.602 890.957s78.739 27.25 168.377-12.52c89.64-39.767 164.337-102.509 164.337-102.509s-238.455-18.267-327.433 2.088c-58.807 13.454-62.55 24.879-52.661 68.57 4.643 20.51 47.38 44.371 47.38 44.371z"/><path fill="none" stroke="#000" stroke-linecap="round" stroke-linejoin="round" stroke-width="10" d="M1377.602 890.957s78.739 27.25 168.377-12.52c89.64-39.767 164.337-102.509 164.337-102.509s-238.455-18.267-327.433 2.088c-58.807 13.454-62.55 24.879-52.661 68.57 4.643 20.51 47.38 44.371 47.38 44.371z"/><path fill="#D3B1A8" d="M1423.79 823.327c42.476-8.826 113.234-9.348 154.723-20.53 46.21-12.452 104.46-28.703 104.46-28.703-9.293 1.646-217.81-2.195-261.174 7.218-32.494 7.053-83.49 6.078-76.707 27.816 6.783 21.742 50.276 20.105 78.698 14.2z"/><path fill="none" stroke="#D3B1A8" stroke-linecap="round" stroke-linejoin="round" stroke-width="4" d="M1423.79 823.327c42.476-8.826 113.234-9.348 154.723-20.53 46.21-12.452 104.46-28.703 104.46-28.703-9.293 1.646-217.81-2.195-261.174 7.218-32.494 7.053-83.49 6.078-76.707 27.816 6.783 21.742 50.276 20.105 78.698 14.2z"/></g><g style="display:block"><path d="M1408.485 676.307c53.423.479 96.994 5.778 166.492 18.016 63.929 11.255 166.42 45.794 170.158 51.06 3.74 5.266-91.416 41.953-170.013 62.919-78.596 20.965-192.132 23.967-215.78-5.98-23.647-29.947-53.226-126.935 49.143-126.015z"/><path fill="none" stroke="#000" stroke-linecap="round" stroke-linejoin="round" stroke-width="10" d="M1408.485 676.307c53.423.479 96.994 5.778 166.492 18.016 63.929 11.255 166.42 45.794 170.158 51.06 3.74 5.266-91.416 41.953-170.013 62.919-78.596 20.965-192.132 23.967-215.78-5.98-23.647-29.947-53.226-126.935 49.143-126.015z"/><path fill="#FFF" d="m1402.96 692.51 1.008 15.921s49.903-4.347 81.697-.984c36.406 3.852 75.544-2.952 75.544-2.952s-120.944-35.313-158.249-11.985z"/><path fill="none" stroke="#FFF" stroke-linecap="round" stroke-linejoin="round" stroke-width="6" d="m1402.96 692.51 1.008 15.921s49.903-4.347 81.697-.984c36.406 3.852 75.544-2.952 75.544-2.952s-120.944-35.313-158.249-11.985z"/><path fill="none" stroke="#FFF" stroke-linecap="round" stroke-linejoin="round" stroke-width="16" d="M1631.266 788.63c-71.399 24.963-138.318 31.693-175.93 29.49"/></g><g style="display:block"><path fill="#C5BAB7" d="M1320.87 1105.42s6.884 111.72-19.834 117.08c-36.233 7.27-72.678-121.551-70.548-124.981 0 0 9.768 166.568-12.305 165.606-22.072-.958-77.955-163.292-77.955-163.292s1.205 167.894-21.754 161.225c-22.958-6.669-66.461-192.847-66.461-192.847s17.222 242.875-25.52 221.737c-42.744-21.139-66.242-276.193-66.242-276.193s-35.066 141.369-64.3 122.518c-29.234-18.848 18.85-198.777 18.85-198.777s-41.021 121.83-64.545 102.095 31.4-174.415 31.4-174.415-52.29 68.037-64.717 53.889c-12.425-14.15 1.308-67.43 24.78-113.463 29.135-57.14 52.64-101.766 123.308-175.523 64.153-66.957 141.322-101.66 192.798-104.455 57.975-3.15 95.65 4.158 138.957 38.363 43.545 34.391 64.866 60.09 85.338 97.837 20.473 37.747-38.167 121.39-71.854 139.772 8.932 29.306 38.486 40.796 69.86 101.699 24.713 47.974 69.412 175.173 75.518 232.368 6.447 60.387-1.232 67.425-11.764 74.906-10.532 7.48-33.464-64.966-46.013-89.326-12.55-24.362 2.737 96.781-8.22 97.742-21.632 1.893-68.777-113.566-68.777-113.566z"/><path fill="none" stroke="#FFF" stroke-linecap="round" stroke-linejoin="round" stroke-width="18" d="M1021.87 600.796c14.026-22.637 86.253-60.96 137.728-63.757 57.975-3.149 93.68 10.312 136.989 44.517"/><path fill="none" stroke="#000" stroke-linecap="round" stroke-linejoin="round" stroke-width="18" d="M1320.87 1105.42s6.884 111.72-19.834 117.08c-36.233 7.27-72.678-121.551-70.548-124.981 0 0 9.768 166.568-12.305 165.606-22.072-.958-77.955-163.292-77.955-163.292s1.205 167.894-21.754 161.225c-22.958-6.669-66.461-192.847-66.461-192.847s17.222 242.875-25.52 221.737c-42.744-21.139-66.242-276.193-66.242-276.193s-35.066 141.369-64.3 122.518c-29.234-18.848 18.85-198.777 18.85-198.777s-41.021 121.83-64.545 102.095 31.4-174.415 31.4-174.415-52.29 68.037-64.717 53.889c-12.425-14.15 1.308-67.43 24.78-113.463 29.135-57.14 52.64-101.766 123.308-175.523 64.153-66.957 141.322-101.66 192.798-104.455 57.975-3.15 95.65 4.158 138.957 38.363 43.545 34.391 64.866 60.09 85.338 97.837 20.473 37.747-38.167 121.39-71.854 139.772 8.932 29.306 38.486 40.796 69.86 101.699 24.713 47.974 69.412 175.173 75.518 232.368 6.447 60.387-1.232 67.425-11.764 74.906-10.532 7.48-33.464-64.966-46.013-89.326-12.55-24.362 2.737 96.781-8.22 97.742-21.632 1.893-68.777-113.566-68.777-113.566z"/></g><g style="display:block"><path d="M1298.837 581.935c-39.003-15.873-136.861-50.749-181.992 35.18-45.13 85.928 2.78 196.882 79.702 240.488 76.923 43.603 182.34 44.786 182.34 44.786 22.655-34.947-14.525-86.538-14.525-86.538s52.617-7.068 57.299-59.315c5.22-58.256-.92-76.59-25.836-109.995-22.116-29.653-57.985-48.733-96.988-64.606z"/><path fill="none" stroke="#000" stroke-linecap="round" stroke-linejoin="round" stroke-width="8" d="M1298.837 581.935c-39.003-15.873-136.861-50.749-181.992 35.18-45.13 85.928 2.78 196.882 79.702 240.488 76.923 43.603 182.34 44.786 182.34 44.786 22.655-34.947-14.525-86.538-14.525-86.538s52.617-7.068 57.299-59.315c5.22-58.256-.92-76.59-25.836-109.995-22.116-29.653-57.985-48.733-96.988-64.606z"/><path fill="none" stroke="#FFF" stroke-linecap="round" stroke-linejoin="round" stroke-width="16" d="M1381.628 903.548c20.854-49.275-12.157-87.757-12.157-87.757s70.398-6.294 51.414-123.928"/></g><g style="display:block"><path fill="#FFF" d="M1310.281 653.568c-21.942 6.097-9.007 40.863-.5 60.37 8.51 19.507 23.254 22.699 30.822 14.947 7.567-7.752 5.407-85.246-30.322-75.317z"/><path fill="none" stroke="#000" stroke-linecap="round" stroke-linejoin="round" stroke-width="16" d="M1311.31 674.894c3.93 4.14 8.148 13.436 6.698 21.98"/></g><path fill="none" stroke="#FFF" stroke-linecap="round" stroke-linejoin="round" stroke-width="8" d="M10.341-13.787S-10.341-.766 4.978 13.787" style="display:block" transform="rotate(36.18 -336.439 2223.317) scale(2)"/><g style="display:block"><path d="M1156.874 1327.249c82.512 16.418 34.212 119.619 46.784 243.7 12.575 124.083 107.679 227.245 108.722 262.164 1.25 41.823-80.666-29.35-86.209-64.649-5.544-35.297 15.073 68.904-17.314 59.1-32.391-9.807-57.001-112.317-57.001-112.317s3.65 80.806-32.12 63.02c-35.77-17.784-34.89-93.453-34.89-93.453s-6.49 56.87-34.28 35.704c-27.791-21.166-23.935-128.679-23.935-128.679s-24.492 71.764-55.994 56.662c-44.288-21.233-6.478-359.598 186.237-321.252z"/><path fill="none" stroke="#FFF" stroke-linecap="round" stroke-linejoin="round" stroke-width="16" d="M1156.874 1327.249c82.512 16.418 34.212 119.619 46.784 243.7 12.575 124.083 107.679 227.245 108.722 262.164 1.25 41.823-80.666-29.35-86.209-64.649-5.544-35.297 15.073 68.904-17.314 59.1-32.391-9.807-57.001-112.317-57.001-112.317s3.65 80.806-32.12 63.02c-35.77-17.784-34.89-93.453-34.89-93.453s-6.49 56.87-34.28 35.704c-27.791-21.166-23.935-128.679-23.935-128.679s-24.492 71.764-55.994 56.662c-44.288-21.233-6.478-359.598 186.237-321.252z"/><path fill="none" stroke="#FFF" stroke-linecap="round" stroke-linejoin="round" stroke-width="12" d="M964.786 1506.792c21.803-95.773 81.461-200.077 193.146-177.852 56.906 11.321 51.594 63.92 46.94 136.176"/></g></g></g></g></svg>