<svg xmlns="http://www.w3.org/2000/svg" width="64" height="64" style="width:100%;height:100%;transform:translate3d(0,0,0);content-visibility:visible"><defs><clipPath id="a"><path d="M0 0h64v64H0z"/></clipPath><clipPath id="b"><path d="M0 0h2400v2400H0z"/></clipPath><clipPath id="c"><path fill="#fff" d="M1206.818 622.727c-322.585 0-584.091 261.506-584.091 584.091 0 322.584 261.506 584.091 584.091 584.091 322.584 0 584.091-261.507 584.091-584.091 0-322.585-261.507-584.091-584.091-584.091"/></clipPath></defs><g clip-path="url(#a)"><g clip-path="url(#b)" style="display:block" transform="matrix(.055 0 0 .055 -34 -34)"><g clip-path="url(#c)"><path fill="none" stroke="#000" stroke-linecap="round" stroke-linejoin="round" stroke-width="10" d="M5.89-66.293S16.598 60.1 7.407 62.398c-15.582 3.895-24.006.341-24.006.341" style="display:block" transform="rotate(7.457 -16344.1 10494.188) scale(1.69)"/><path fill="none" stroke="#000" stroke-linecap="round" stroke-linejoin="round" stroke-width="10" d="M4.764-67.381s7.402 114.117 4.084 124.44C5.53 67.381-12.166 67.381-12.166 67.381" style="display:block" transform="rotate(7.457 -16401.504 11599.672) scale(1.69)"/><g style="display:block"><path fill="#FFF" d="M1546.65 2063.5c3.179 5.638 119.528 154.03 154.076 149.412 34.548-4.617-84.322-133.754-84.322-133.754s119.602 113.568 140.704 101.968c21.1-11.598-99.39-138.336-99.39-138.336s132.176 77.352 142.398 59.108c10.22-18.245-107.15-128.91-184.714-154.729-77.562-25.817-91.264 38.97-87.306 48.626 3.959 9.658 18.554 67.705 18.554 67.705z"/><path fill="none" stroke="#000" stroke-linecap="round" stroke-linejoin="round" stroke-width="16.9" d="M1546.65 2063.5c3.179 5.638 119.528 154.03 154.076 149.412 34.548-4.617-84.322-133.754-84.322-133.754s119.602 113.568 140.704 101.968c21.1-11.598-99.39-138.336-99.39-138.336s132.176 77.352 142.398 59.108c10.22-18.245-107.15-128.91-184.714-154.729-77.562-25.817-91.264 38.97-87.306 48.626 3.959 9.658 18.554 67.705 18.554 67.705z"/></g><g style="display:block"><path fill="#D3DF83" d="M1170.677 1405.023s31.615 153.997.044 287.144c-31.572 133.148-80.679 328.895 10.844 406.601 99.989 84.897 289.073 105.23 406.893-25.78s30.78-349.571 8.04-398.306c-22.741-48.737-121.782-241.298-135.815-355.512-14.031-114.212-290.006 85.853-290.006 85.853z"/><path fill="none" stroke="#000" stroke-linecap="round" stroke-linejoin="round" stroke-width="16.9" d="M1170.677 1405.023s31.615 153.997.044 287.144c-31.572 133.148-80.679 328.895 10.844 406.601 99.989 84.897 289.073 105.23 406.893-25.78s30.78-349.571 8.04-398.306c-22.741-48.737-121.782-241.298-135.815-355.512-14.031-114.212-290.006 85.853-290.006 85.853z"/><path fill="none" stroke="#000" stroke-dasharray="49.01" stroke-linecap="round" stroke-linejoin="round" stroke-width="13.52" d="M1248.972 1554.99s32.157 139.982-29.73 253.728c-61.886 113.747-16.835 208.418 19.005 267.071"/><path fill="none" stroke="#000" stroke-dasharray="49.01" stroke-linecap="round" stroke-linejoin="round" stroke-width="13.52" d="M1294.444 1540.052s36.537 159.703-25.349 273.45c-61.887 113.746-19.569 162.802 16.271 221.455"/><path fill="none" stroke="#000" stroke-dasharray="49.01" stroke-linecap="round" stroke-linejoin="round" stroke-width="13.52" d="M1329.792 1535.974s58.5 138.208-3.386 251.955c-61.887 113.746-41.532 184.298-5.691 242.95M1419.07 1493.721s12.532 72.998 46.42 138.595M1462.405 1552.062s22.86 86.073 98.793 114.868"/><path fill="#FFF" d="M1465.808 1481.239s-7.284-197.727-5.596-219.062c1.687-21.336 30.311-236.072-182.507-261.01-91.474-10.718-121.28 36.045-170.152 58.429-48.214 22.081-56.279 24.58-63.64 38.596-7.363 14.016-17.058 138.77 27.492 170.026 44.547 31.257 98.094 128.913 99.272 136.805 1.177 7.893 19.176 22.41 26.357 26.664 7.181 4.257 28.212 105.396 39.934 100.298 11.723-5.1 7.006-129.529 15.324-133.966 8.32-4.438 49.858 100.49 55.861 96.853 6.004-3.635-10.578-121.88-2.828-121.971 7.75-.09 54.217 75.636 63.481 72.427 9.265-3.21-6.008-89.223-11.534-97.685-5.526-8.463 36.93 55.684 43.878 53.278 6.948-2.408 1.78-72.728 7.073-70.93 5.292 1.798 49.032 149.022 57.585 151.248z"/><path fill="none" stroke="#000" stroke-linecap="round" stroke-linejoin="round" stroke-width="16.9" d="M1465.808 1481.239s-7.284-197.727-5.596-219.062c1.687-21.336 30.311-236.072-182.507-261.01-91.474-10.718-121.28 36.045-170.152 58.429-48.214 22.081-56.279 24.58-63.64 38.596-7.363 14.016-17.058 138.77 27.492 170.026 44.547 31.257 98.094 128.913 99.272 136.805 1.177 7.893 19.176 22.41 26.357 26.664 7.181 4.257 28.212 105.396 39.934 100.298 11.723-5.1 7.006-129.529 15.324-133.966 8.32-4.438 49.858 100.49 55.861 96.853 6.004-3.635-10.578-121.88-2.828-121.971 7.75-.09 54.217 75.636 63.481 72.427 9.265-3.21-6.008-89.223-11.534-97.685-5.526-8.463 36.93 55.684 43.878 53.278 6.948-2.408 1.78-72.728 7.073-70.93 5.292 1.798 49.032 149.022 57.585 151.248z"/></g><g style="display:block"><path fill="#FFF" d="M1443.732 1654.75s16.882 92.36-40.493 190.332c-57.377 97.971-91.085 111.57-75.357 131.035 15.73 19.467 98.884-56.294 101.262-55.503 1.427.475-75.787 87.833-58.848 104.274 16.938 16.44 84.227-65.018 101.063-74.38 16.838-9.36-61.995 98.465-42.448 113.445 19.547 14.98 85.59-101.718 100.025-101.563 14.434.155-17.023 76.074-4.265 85.594 12.755 9.52 28.333 1.713 48.17-37.703 31.43-62.445 30.481-262.812-129.11-355.53z"/><path fill="none" stroke="#000" stroke-linecap="round" stroke-linejoin="round" stroke-width="16.9" d="M1443.732 1654.75s16.882 92.36-40.493 190.332c-57.377 97.971-91.085 111.57-75.357 131.035 15.73 19.467 98.884-56.294 101.262-55.503 1.427.475-75.787 87.833-58.848 104.274 16.938 16.44 84.227-65.018 101.063-74.38 16.838-9.36-61.995 98.465-42.448 113.445 19.547 14.98 85.59-101.718 100.025-101.563 14.434.155-17.023 76.074-4.265 85.594 12.755 9.52 28.333 1.713 48.17-37.703 31.43-62.445 30.481-262.812-129.11-355.53z"/></g><path fill="none" d="M0-113.5c62.64 0 113.5 50.86 113.5 113.5S62.64 113.5 0 113.5-113.5 62.64-113.5 0-62.64-113.5 0-113.5z" style="display:block" transform="rotate(7.457 -8489.327 10249.322) scale(1.69)"/><g style="display:block"><path fill="#FFF" d="M1291.482 1003.693s26.242 12.663 78.655.73c52.413-11.932 101.923-33.534 123.404-39.123 39.352-10.24 44.068-10.782 47.536-6.266 3.473 4.516-3.07 14.883-39.425 30.814-36.356 15.932-98.212 38.832-99.726 41.95-1.513 3.12 75.607-15.034 141.494-16.855 43.296-1.197 84.744-6.085 86.288 7.978 1.545 14.06-30.155 16.874-76.938 24.096-73.24 11.306-115.791 12.584-115.791 12.584s156.934 17.224 225.2 61.532c0 0 31.273 22.887-36.913 11.751-68.187-11.135-97.009-19.857-136.343-24.742-33.293-4.134-83.223-3.814-83.223-3.814"/><path fill="none" stroke="#000" stroke-linecap="round" stroke-linejoin="round" stroke-width="16.9" d="M1291.482 1003.693s26.242 12.663 78.655.73c52.413-11.932 101.923-33.534 123.404-39.123 39.352-10.24 44.068-10.782 47.536-6.266 3.473 4.516-3.07 14.883-39.425 30.814-36.356 15.932-98.212 38.832-99.726 41.95-1.513 3.12 75.607-15.034 141.494-16.855 43.296-1.197 84.744-6.085 86.288 7.978 1.545 14.06-30.155 16.874-76.938 24.096-73.24 11.306-115.791 12.584-115.791 12.584s156.934 17.224 225.2 61.532c0 0 31.273 22.887-36.913 11.751-68.187-11.135-97.009-19.857-136.343-24.742-33.293-4.134-83.223-3.814-83.223-3.814"/></g><g style="display:block"><path fill="#F49D48" d="M1024.576 1154.852s101.668 39.966 114.026 49.739c0 0-105.88-15.328-448.78-98.777 0 0 92.27-.108 334.754 49.038z"/><path fill="none" stroke="#000" stroke-linecap="round" stroke-linejoin="round" stroke-width="16.9" d="M1024.576 1154.852s101.668 39.966 114.026 49.739c0 0-105.88-15.328-448.78-98.777 0 0 92.27-.108 334.754 49.038z"/><path fill="#F49D48" d="M1071.403 1268.217s55.411-60.179 73.513-63.337c0 0-53.787 13.964-447.952-99.534 0 0-57.987 12.307 374.439 162.871z"/><path fill="none" stroke="#000" stroke-linecap="round" stroke-linejoin="round" stroke-width="16.9" d="M1071.403 1268.217s55.411-60.179 73.513-63.337c0 0-53.787 13.964-447.952-99.534 0 0-57.987 12.307 374.439 162.871z"/></g><g style="display:block"><path fill="#F49D48" d="M1059.34 1081.677s-194.021-29.465-362.374 23.669c0 0 376.115 107.819 447.948 99.532 0 0-41.612-3.236-84.14-49.703-29.47-32.204-1.435-73.498-1.435-73.498z"/><path fill="none" stroke="#000" stroke-linecap="round" stroke-linejoin="round" stroke-width="16.9" d="M1059.34 1081.677s-194.021-29.465-362.374 23.669c0 0 376.115 107.819 447.948 99.532 0 0-41.612-3.236-84.14-49.703-29.47-32.204-1.435-73.498-1.435-73.498z"/><path fill="#FFFFFD" d="M787.085 1109.402s231.07 33.561 236.931 31.011c5.861-2.55 8.216-20.555-6.4-27.128-14.615-6.574-189.466-13.79-230.531-3.883z"/></g><path fill="none" stroke="#000" stroke-linecap="round" stroke-linejoin="round" stroke-width="10" d="M-.117 8.87S-2.212-3.423 2.213-8.87" style="display:block" transform="rotate(7.457 -7964.128 9135.27) scale(1.69)"/></g></g></g></svg>