<svg xmlns="http://www.w3.org/2000/svg" width="64" height="64" style="width:100%;height:100%;transform:translate3d(0,0,0);content-visibility:visible"><defs><clipPath id="a"><path d="M0 0h64v64H0z"/></clipPath><clipPath id="b"><path d="M0 0h2048v2048H0z"/></clipPath><clipPath id="c"><path fill="#fff" d="M1033.09 451.273c-321.328 0-581.817 260.489-581.817 581.818s260.489 581.818 581.818 581.818 581.818-260.489 581.818-581.818-260.489-581.818-581.818-581.818"/></clipPath></defs><g clip-path="url(#a)"><g clip-path="url(#b)" style="display:block" transform="matrix(.055 0 0 .055 -24.32 -24.32)"><g clip-path="url(#c)"><g style="display:block"><path fill-opacity=".2" d="M1046.986 2590.924c309.182 0 560.214 51.683 560.214 115.338 0 63.655-251.032 115.338-560.214 115.338s-560.214-51.683-560.214-115.338c0-63.655 251.032-115.338 560.214-115.338z"/><path fill="none" d="M1046.986 2590.924c309.182 0 560.214 51.683 560.214 115.338 0 63.655-251.032 115.338-560.214 115.338s-560.214-51.683-560.214-115.338c0-63.655 251.032-115.338 560.214-115.338z"/></g><g style="display:block"><path fill="#F9BA84" d="M996.734 1406.35c18.26 48.563-18.75 86.092-18.75 86.092s2.145 60.001 15.124 84.685c12.978 24.679-139.483 167.28-139.483 167.28s191.933 300.093 191.225 333.354c-.711 33.259-175.762-188.783-175.762-188.783s112.041 277.163 64.66 293.317c-46.872 15.98-113.401-262.763-113.401-262.763s110.365 305.078 23.56 338.258c-26.048 9.957-114.215-308.358-114.215-308.358s.028 305.049-39.408 305.5c-57.597.662-54.114-273.982-57.96-262.373-3.845 11.608 32.656 268.455 10.298 304.846-22.36 36.398-80.699-232.031-95.848-301.71-17.003-78.206-123.254-165.18-83.909-244.661 39.198-79.182 313.094-278.29 313.094-278.29s-6.082-16.188 21.81-59.936"/><path fill="none" stroke="#000" stroke-linecap="round" stroke-linejoin="round" stroke-width="21.419999999999998" d="M996.734 1406.35c18.26 48.563-18.75 86.092-18.75 86.092s2.145 60.001 15.124 84.685c12.978 24.679-139.483 167.28-139.483 167.28s191.933 300.093 191.225 333.354c-.711 33.259-175.762-188.783-175.762-188.783s112.041 277.163 64.66 293.317c-46.872 15.98-113.401-262.763-113.401-262.763s110.365 305.078 23.56 338.258c-26.048 9.957-114.215-308.358-114.215-308.358s.028 305.049-39.408 305.5c-57.597.662-54.114-273.982-57.96-262.373-3.845 11.608 32.656 268.455 10.298 304.846-22.36 36.398-80.699-232.031-95.848-301.71-17.003-78.206-123.254-165.18-83.909-244.661 39.198-79.182 313.094-278.29 313.094-278.29s-6.082-16.188 21.81-59.936"/></g><path fill="none" stroke="#000" stroke-linecap="round" stroke-linejoin="round" stroke-width="6" d="M-43.011-43.699s27.692 67.444 36.884 70.508c9.191 3.063 21.446 7.659 21.446 7.659" style="display:block" transform="matrix(3.57 0 0 3.57 1287.874 2629.427)"/><path fill="none" stroke="#000" stroke-linecap="round" stroke-linejoin="round" stroke-width="6" d="M16.085-33.702s-3.064 59.745-4.596 62.809c-1.532 3.063-27.574 4.595-27.574 4.595" style="display:block" transform="matrix(3.57 0 0 3.57 803.875 2555.596)"/><g style="display:block"><path fill="#F9BA84" d="M1425.231 2288.224c14.296 8.052 139.664 97.497 147.992 127.29 8.326 29.798-155.499-24.809-155.499-24.809s125.979 77.223 112.56 101.05c-13.42 23.827-167.985-69.504-167.985-69.504s86.318 136.495 56.523 144.818c-29.798 8.325-113.434-132.932-131.89-155.88-18.46-22.951-104.23-71.259-14.516-152.54 89.718-81.28 152.815 29.575 152.815 29.575z"/><path fill="none" stroke="#000" stroke-linecap="round" stroke-linejoin="round" stroke-width="21.419999999999998" d="M1425.231 2288.224c14.296 8.052 139.664 97.497 147.992 127.29 8.326 29.798-155.499-24.809-155.499-24.809s125.979 77.223 112.56 101.05c-13.42 23.827-167.985-69.504-167.985-69.504s86.318 136.495 56.523 144.818c-29.798 8.325-113.434-132.932-131.89-155.88-18.46-22.951-104.23-71.259-14.516-152.54 89.718-81.28 152.815 29.575 152.815 29.575z"/></g><g style="display:block"><path fill="#F9BA84" d="M1096.949 2531.952c-211.747 46.044-392.68-4.161-447.527-204.908-54.847-200.75 16.003-518.38 62.931-662.906 46.929-144.523 152.4-380.138 184-414.995 31.597-34.852 307.401-27.665 360.61 11.134 53.214 38.799 178.254 588.072 172.916 717.958-3.15 76.695-2.076 325.066-67.127 411.97-65.055 86.904-137.546 113.857-265.803 141.747z"/><path fill="none" stroke="#000" stroke-linecap="round" stroke-linejoin="round" stroke-width="21.419999999999998" d="M1096.949 2531.952c-211.747 46.044-392.68-4.161-447.527-204.908-54.847-200.75 16.003-518.38 62.931-662.906 46.929-144.523 152.4-380.138 184-414.995 31.597-34.852 307.401-27.665 360.61 11.134 53.214 38.799 178.254 588.072 172.916 717.958-3.15 76.695-2.076 325.066-67.127 411.97-65.055 86.904-137.546 113.857-265.803 141.747z"/><path fill="#FFF" d="M1411.513 1777.947s-260.703-2.075-304.269-9.393c-43.569-7.317-18.006 45.893-18.006 45.893s106.417 13.237 179.376 14.163c72.959.923 151.844 3.36 151.844 3.36l-8.945-54.023z"/><path fill="none" stroke="#000" stroke-linecap="round" stroke-linejoin="round" stroke-width="21.419999999999998" d="M1411.513 1777.947s-260.703-2.075-304.269-9.393c-43.569-7.317-18.006 45.893-18.006 45.893s106.417 13.237 179.376 14.163c72.959.923 151.844 3.36 151.844 3.36l-8.945-54.023z"/><path fill="#FFF" d="m1321.68 1313.362-136.846 155.684-246.069-24.844s-33.236-191.457-40.324-198.311c-7.087-6.851-30.32 14.985-33.921 24.163-3.601 9.179.82 145.338-5.22 169.04-6.038 23.697-83.745 284.055-83.745 284.055l-114.437-11.496s-45.87 239.443-45.17 345.627c1.02 153.93-22.055 348.996 276.285 356.88 298.344 7.883 339.457-163.364 370.706-251.313 31.246-87.944 54.93-403.716 54.93-403.716l-155.675-8.123 51.796-237.933 131.853-165.791-24.164-33.922z"/><path fill="none" stroke="#000" stroke-linecap="round" stroke-linejoin="round" stroke-width="21.419999999999998" d="m1321.68 1313.362-136.846 155.684-246.069-24.844s-33.236-191.457-40.324-198.311c-7.087-6.851-30.32 14.985-33.921 24.163-3.601 9.179.82 145.338-5.22 169.04-6.038 23.697-83.745 284.055-83.745 284.055l-114.437-11.496s-45.87 239.443-45.17 345.627c1.02 153.93-22.055 348.996 276.285 356.88 298.344 7.883 339.457-163.364 370.706-251.313 31.246-87.944 54.93-403.716 54.93-403.716l-155.675-8.123 51.796-237.933 131.853-165.791-24.164-33.922z"/></g><g style="display:block"><path fill="#F9BA84" d="M981.203 1406.491c-164.895-133.72 296.455-271.023-150.584-267.186-118.663 1.02 60.31-382.367 219.266-401.466 216.786-26.049 252.366 85.845 276.532 227.928 17.016 100.032-11.642 202.359-43.767 285.388-32.125 83.03-81.21 125.638-81.21 125.638"/><path fill="none" stroke="#000" stroke-linecap="round" stroke-linejoin="round" stroke-width="21.419999999999998" d="M981.203 1406.491c-164.895-133.72 296.455-271.023-150.584-267.186-118.663 1.02 60.31-382.367 219.266-401.466 216.786-26.049 252.366 85.845 276.532 227.928 17.016 100.032-11.642 202.359-43.767 285.388-32.125 83.03-81.21 125.638-81.21 125.638"/><path fill="#FFF" d="M867.113 991.885s23.991-88.958 48.568-119.433c24.58-30.477 46.18-102.385 99.236-104.447 54.96-2.135 215.283-14.49 229.795 108.898 5.944 50.516-14.993 157.82-62.791 184.534-47.799 26.715-237.237-6.063-264.122-11.062-39.697-7.38-50.686-58.49-50.686-58.49z"/><path fill="none" stroke="#000" stroke-linecap="round" stroke-linejoin="round" stroke-width="28.56" d="M1115.08 954.889c-3.585-13.036 12.437-37.077 12.437-37.077M967.35 933.925c-3.586-13.036 12.437-37.077 12.437-37.077"/><path fill="none" stroke="#000" stroke-linecap="round" stroke-linejoin="round" stroke-width="21.419999999999998" d="M1194.743 863.522s-24.18-64.461-82.872-24.235M983.07 821.276s46.066-45.559 81.985 6.606"/></g><g style="display:block"><path fill="#F9BA84" d="M1017.66 1023.154c-33.265-22.884-92.877-34.61-177.886-32.85-129.62 2.684-286.82 117.642-276.568 161.562 6.012 25.758 246.245 28.242 340.873 14.998 67.387-9.432 90.73-41.011 104.584-55.23 0 0-8.365 78.754-346.742 71.861-65.84-1.342-70.432 51.466 100.676 88.597 171.107 37.132 235.784-13.186 270.869-31.197 106.44-54.646 17.457-194.86-15.806-217.741z"/><path fill="none" stroke="#000" stroke-linecap="round" stroke-linejoin="round" stroke-width="21.419999999999998" d="M1017.66 1023.154c-33.265-22.884-92.877-34.61-177.886-32.85-129.62 2.684-286.82 117.642-276.568 161.562 6.012 25.758 246.245 28.242 340.873 14.998 67.387-9.432 90.73-41.011 104.584-55.23 0 0-8.365 78.754-346.742 71.861-65.84-1.342-70.432 51.466 100.676 88.597 171.107 37.132 235.784-13.186 270.869-31.197 106.44-54.646 17.457-194.86-15.806-217.741z"/><path fill="none" stroke="#FFF" stroke-linecap="round" stroke-linejoin="round" stroke-width="21.419999999999998" d="M890.578 1033.065s-115.462 3.538-197.744 36.898"/></g><g style="display:block"><path fill="#F9BA84" d="M1237.598 1622.659s-30.447 30.813-8.296 87.806c22.15 56.99 117.013 84.077 155.627 117.48 3.04 2.63-52.343 106.649-135.946 157.33-72.538 43.975-139.625 133.627-106.554 168.833 33.072 35.206 121.297-85.037 121.297-85.037s-37.95 219.371-14.986 248.233c40.968 51.486 91.369-205.866 91.369-205.866s-26.668 195.97 7.638 223.181c61.893 49.096 43.704-197.884 43.704-197.884s-10.34 184.163 37.241 229.217c26.8 25.381 53.72-191.993 53.72-191.993s-43.596 158.642 1.866 209.608c35.723 40.048 156.655-463.414 118.655-578.932-23.195-70.51-113.82-268.231-321.68-267.21"/><path fill="none" stroke="#000" stroke-linecap="round" stroke-linejoin="round" stroke-width="21.419999999999998" d="M1237.598 1622.659s-30.447 30.813-8.296 87.806c22.15 56.99 117.013 84.077 155.627 117.48 3.04 2.63-52.343 106.649-135.946 157.33-72.538 43.975-139.625 133.627-106.554 168.833 33.072 35.206 121.297-85.037 121.297-85.037s-37.95 219.371-14.986 248.233c40.968 51.486 91.369-205.866 91.369-205.866s-26.668 195.97 7.638 223.181c61.893 49.096 43.704-197.884 43.704-197.884s-10.34 184.163 37.241 229.217c26.8 25.381 53.72-191.993 53.72-191.993s-43.596 158.642 1.866 209.608c35.723 40.048 156.655-463.414 118.655-578.932-23.195-70.51-113.82-268.231-321.68-267.21"/></g></g></g></g></svg>