<svg xmlns="http://www.w3.org/2000/svg" width="64" height="64" style="width:100%;height:100%;transform:translate3d(0,0,0);content-visibility:visible"><defs><clipPath id="a"><path d="M0 0h64v64H0z"/></clipPath><clipPath id="b"><path d="M0 0h2400v2400H0z"/></clipPath><clipPath id="c"><path fill="#fff" d="M1204.545 640.909c-318.819 0-577.272 258.454-577.272 577.273s258.453 577.273 577.272 577.273c318.819 0 577.273-258.454 577.273-577.273s-258.454-577.273-577.273-577.273"/></clipPath></defs><g clip-path="url(#a)"><g clip-path="url(#b)" style="display:block" transform="matrix(.055 0 0 .055 -34 -34)"><g clip-path="url(#c)"><g style="display:block"><path fill-opacity=".2" d="M1214 2032c128.317 0 232.5 25.99 232.5 58 0 32.01-104.183 58-232.5 58s-232.5-25.99-232.5-58c0-32.01 104.183-58 232.5-58z"/><path fill="none" d="M1214 2032c128.317 0 232.5 25.99 232.5 58 0 32.01-104.183 58-232.5 58s-232.5-25.99-232.5-58c0-32.01 104.183-58 232.5-58z"/></g><path fill="none" stroke="#000" stroke-linecap="round" stroke-linejoin="round" stroke-width="12" d="M55.218-28.314s-95.186 50.811-102.4 53.719C-54.395 28.314-62.8-3.564-62.8-3.564" style="display:block" transform="rotate(-63.199 2228.067 67.41) scale(1.7)"/><path fill="none" stroke="#000" stroke-linecap="round" stroke-linejoin="round" stroke-width="12" d="M32.17-58.724S.51 44.426-2.553 51.575c-3.064 7.149-29.838-12.063-29.838-12.063" style="display:block" transform="rotate(-20.434 6324.332 -2615.165) scale(1.7)"/><g style="display:block"><path fill="#9CD6E9" d="M1456.562 1190.88c-1.736-62.502-3.473-118.06-38.196-161.464-34.724-43.405-102.433-98.96-177.089-88.545-46.775 6.528-118.27 66.254-138.893 102-19.533 33.856-31.251 66.41-32.988 99.396-1.736 32.988 3.473 74.655 13.89 90.282 10.416 15.625 15.625 133.684-6.946 203.131-22.57 69.447-98.96 170.145-103.302 276.92-6.492 159.746 78.128 210.076 119.797 232.647 41.667 22.569 116.323 41.667 171.88 38.195 99.012-6.188 153.651-23.438 210.945-94.622 57.293-71.182 55.558-123.267 62.502-201.395 6.945-78.127 6.945-154.518-20.833-276.051-12.631-55.26-59.031-157.992-60.767-220.494z"/><path fill="#FFF" d="M1199.175 962.14s71.181-5.209 119.794 24.307c48.613 29.515 71.183 64.238 79.864 112.85 8.68 48.614 23.872 84.639 13.456 155.821-10.418 71.184 37.327 112.851 59.898 135.422 22.569 22.57 33.855 48.613 49.48 130.213 15.626 81.6 16.06 123.702 16.06 123.702s-.706-106.33-12.152-171.881c-14.324-82.034-46.876-177.09-59.029-204.867-12.153-27.78-12.364-115.716-20.4-153.218-11.72-54.69-16.93-66.409-50.786-102-28.036-29.475-72.918-62.502-118.058-65.975-45.142-3.472-78.127 15.626-78.127 15.626z"/><path fill="none" stroke="#000" stroke-linecap="round" stroke-linejoin="round" stroke-width="20.4" d="M1456.562 1190.88c-1.736-62.502-3.473-118.06-38.196-161.464-34.724-43.405-102.433-98.96-177.089-88.545-46.775 6.528-118.27 66.254-138.893 102-19.533 33.856-31.251 66.41-32.988 99.396-1.736 32.988 3.473 74.655 13.89 90.282 10.416 15.625 15.625 133.684-6.946 203.131-22.57 69.447-98.96 170.145-103.302 276.92-6.492 159.746 78.128 210.076 119.797 232.647 41.667 22.569 116.323 41.667 171.88 38.195 99.012-6.188 153.651-23.438 210.945-94.622 57.293-71.182 55.558-123.267 62.502-201.395 6.945-78.127 6.945-154.518-20.833-276.051-12.631-55.26-59.031-157.992-60.767-220.494z"/><path fill="none" stroke="#000" stroke-linecap="round" stroke-linejoin="round" stroke-width="23.8" d="M1177.907 1163.97s41.668-20.834 52.084 10.417"/><path fill="none" stroke="#000" stroke-linecap="round" stroke-linejoin="round" stroke-width="20.4" d="M1236.937 1038.965s45.139-6.945 59.028 31.25"/></g><g style="display:block"><path fill="#F59B49" d="M1217.838 1259.46s17.362 78.127-10.418 123.269c-27.778 45.14-129.837 108.648-159.728 126.74-65.976 39.93-137.158 60.766-142.367 59.029-5.209-1.736 1.74-39.932 29.517-79.863 27.778-39.933 100.698-133.686 130.214-159.728 29.513-26.043 46.874-64.238 64.236-67.711 17.362-3.472 71.184-1.736 88.546-1.736z"/><path fill="none" stroke="#000" stroke-linecap="round" stroke-linejoin="round" stroke-width="20.4" d="M1217.838 1259.46s17.362 78.127-10.418 123.269c-27.778 45.14-129.837 108.648-159.728 126.74-65.976 39.93-137.158 60.766-142.367 59.029-5.209-1.736 1.74-39.932 29.517-79.863 27.778-39.933 100.698-133.686 130.214-159.728 29.513-26.043 46.874-64.238 64.236-67.711 17.362-3.472 71.184-1.736 88.546-1.736z"/><path fill="#F55C49" d="M1179.642 1292.447s24.307 24.306-3.471 52.084c-27.78 27.78-192.715 152.784-217.022 171.882-24.307 19.098-27.778 8.68-8.68-22.57 19.098-31.252 67.709-98.961 92.016-125.003 24.306-26.043 53.71-53.625 72.92-65.974 24.306-15.626 52.084-15.628 64.237-10.42z"/></g><g style="display:block"><path fill="#F59B49" d="M1212.63 1254.25s-41.67 17.361-97.227-3.472c-55.556-20.835-45.142-55.556-45.142-55.556s-236.117 152.78-263.896 190.976l-27.78 38.196s72.134 9.97 131.95 0c104.17-17.362 127.898-32.961 177.088-48.613 76.391-24.305 118.062-76.392 125.006-121.532z"/><path fill="none" stroke="#000" stroke-linecap="round" stroke-linejoin="round" stroke-width="20.4" d="M1212.63 1254.25s-41.67 17.361-97.227-3.472c-55.556-20.835-45.142-55.556-45.142-55.556s-236.117 152.78-263.896 190.976l-27.78 38.196s72.134 9.97 131.95 0c104.17-17.362 127.898-32.961 177.088-48.613 76.391-24.305 118.062-76.392 125.006-121.532z"/><path fill="#FFF" d="m1044.22 1229.943 24.307 15.626s-50.349 32.989-92.018 57.295c-41.667 24.307-119.795 72.918-119.795 72.918s50.09-52.094 92.017-81.6c46.876-32.986 95.49-64.24 95.49-64.24z"/></g><g style="display:block"><path fill="#9CD6E9" d="M1397.51 1515.284c-24.233 14.019-30.775 83.816-27.079 168.102 2.99 68.18 14.182 107.912 34.41 127.756 20.23 19.844 39.605 34.084 42.393 7.285 2.788-26.797-18.075-95.85-18.075-95.85s38.167 84.757 60.328 72.2c22.163-12.557-41.229-119.833-41.229-119.833s49.483 61.241 63.117 45.4c13.635-15.84-55.719-109.595-55.719-109.595s50.09 57.71 61.406 34.197c11.316-23.514-43.161-87.434-53.759-89.257-10.597-1.82 35.574 15.21 33.007-1.599-2.566-16.807-74.568-52.825-98.8-38.806z"/><path fill="none" stroke="#000" stroke-linecap="round" stroke-linejoin="round" stroke-width="17.37232" d="M1397.51 1515.284c-24.233 14.019-30.775 83.816-27.079 168.102 2.99 68.18 14.182 107.912 34.41 127.756 20.23 19.844 39.605 34.084 42.393 7.285 2.788-26.797-18.075-95.85-18.075-95.85s38.167 84.757 60.328 72.2c22.163-12.557-41.229-119.833-41.229-119.833s49.483 61.241 63.117 45.4c13.635-15.84-55.719-109.595-55.719-109.595s50.09 57.71 61.406 34.197c11.316-23.514-43.161-87.434-53.759-89.257-10.597-1.82 35.574 15.21 33.007-1.599-2.566-16.807-74.568-52.825-98.8-38.806z"/></g></g></g></g></svg>