<svg xmlns="http://www.w3.org/2000/svg" width="64" height="64" style="width:100%;height:100%;transform:translate3d(0,0,0);content-visibility:visible"><defs><clipPath id="a"><path d="M0 0h64v64H0z"/></clipPath><clipPath id="b"><path d="M0 0h2400v2400H0z"/></clipPath><clipPath id="c"><path fill="#fff" d="M1200 636.364c-318.819 0-577.273 258.453-577.273 577.272 0 318.819 258.454 577.273 577.273 577.273s577.273-258.454 577.273-577.273S1518.819 636.364 1200 636.364"/></clipPath></defs><g clip-path="url(#a)"><g clip-path="url(#b)" style="display:block" transform="matrix(.055 0 0 .055 -34 -34)"><g clip-path="url(#c)"><path fill-opacity=".2" d="M244.341 0c0 17.767-109.396 32.171-244.341 32.171S-244.34 17.767-244.34 0c0-17.768 109.395-32.171 244.34-32.171S244.341-17.768 244.341 0z" style="display:block" transform="matrix(1.30348 0 0 1.19664 997.89 2335.929)"/><g style="display:block"><path fill="#F59B49" d="M1289.761 1291.345c4.695-3.29 9.841-11.186 26.442-11.673 16.605-.487 51.964 65.405 95.102 113.76 51.652 57.897 93.258 162.991 65.378 246.12-11.228 33.478-21.608 49.48-38.14 82.237-20.406 40.431.389 130.446-31.823 116.967-42.259-17.684-16.07-59.904-16.07-59.904s-8.14 45.697-39.475 9.992c-27.82-31.7 5.855-60.982 5.855-60.982s-29.41 30.884-55.304-3.478c-24.454-32.454 38.117-65.985 38.117-65.985s-39.328 29.018-46.122-10.821c-6.124-35.927 30.972-49.041 30.972-49.041s-29.667 28.27-44.713-18.655c-13.93-43.452 57.393-74.447 57.393-74.447s-26.017 12.416-26.904-31.894c-.887-44.312 21.825-45.027 21.825-45.027s-43.856 22.05-39.506-21.866c4.352-43.918 18.907-47.153 5.528-50.083-9.817-2.151-4.703 7.974-21.976-9.104"/><path fill="none" stroke="#000" stroke-linecap="round" stroke-linejoin="round" stroke-width="18.4" d="M1289.761 1291.345c4.695-3.29 9.841-11.186 26.442-11.673 16.605-.487 51.964 65.405 95.102 113.76 51.652 57.897 93.258 162.991 65.378 246.12-11.228 33.478-21.608 49.48-38.14 82.237-20.406 40.431.389 130.446-31.823 116.967-42.259-17.684-16.07-59.904-16.07-59.904s-8.14 45.697-39.475 9.992c-27.82-31.7 5.855-60.982 5.855-60.982s-29.41 30.884-55.304-3.478c-24.454-32.454 38.117-65.985 38.117-65.985s-39.328 29.018-46.122-10.821c-6.124-35.927 30.972-49.041 30.972-49.041s-29.667 28.27-44.713-18.655c-13.93-43.452 57.393-74.447 57.393-74.447s-26.017 12.416-26.904-31.894c-.887-44.312 21.825-45.027 21.825-45.027s-43.856 22.05-39.506-21.866c4.352-43.918 18.907-47.153 5.528-50.083-9.817-2.151-4.703 7.974-21.976-9.104"/><path fill="none" stroke="#FFF" stroke-linecap="round" stroke-linejoin="round" stroke-width="18.4" d="M1322.165 1296.994c16.601-.486 45.544 56.513 81.218 110.607 37.217 56.433 67.3 114.678 64.046 209.282"/></g><path d="M33.192-20.426S18.894-59.234 11.745-64.34c-7.149-5.106-38.809 13.276-40.852 18.382-2.042 5.106 41.873 35.745 41.873 35.745s-40.851-7.148-49.021-8.17c-8.17-1.021-1.021 39.83 4.085 40.852 5.107 1.021 51.063-12.256 51.063-12.256S-37.276 39.83-37.276 45.958c0 6.128 20.425 23.489 28.596 22.468 8.17-1.021 44.936-39.83 49.021-46.979 4.085-7.149-7.149-41.873-7.149-41.873z" style="display:block" transform="rotate(-33 3717.577 -258.358) scale(2.3)"/><g style="display:block"><path d="M944.42 1991.48c-35.235 2.348-164.426 129.19-133.89 155.029 30.536 25.838 84.559-30.535 84.559-30.535s-46.978 75.164 0 75.164c46.98 0 68.119-86.91 68.119-86.91s-37.582 84.562 7.047 77.515c44.63-7.045 72.818-129.191 54.025-166.773-18.791-37.585-79.86-23.49-79.86-23.49z"/><path fill="none" stroke="#000" stroke-linecap="round" stroke-linejoin="round" stroke-width="18.4" d="M909.721 2029.356s16.344 117.691 4.6 164.671c-11.744 46.977-104.137 124.297-125.276 138.391-21.142 14.094 90.677 4.894 90.677 4.894"/></g><g style="display:block"><path d="M1072.143 2036.698s-37.582 173.822 2.348 178.521c39.933 4.699 49.328-105.703 49.328-105.703s4.699 93.957 35.234 86.91c30.537-7.047 9.395-126.843 11.746-117.447 2.348 9.395 23.487 115.099 65.768 82.213 42.281-32.885-30.534-178.517-61.072-202.007-30.534-23.49-98.653 54.023-103.352 77.513z"/><path fill="none" stroke="#000" stroke-linecap="round" stroke-linejoin="round" stroke-width="18.4" d="M1116.576 2067.136s47.615 98.872 48.74 130.366c1.761 49.328-25.839 115.881-35.234 129.976-9.396 14.092 61.318 17.224 86.08 5.382"/></g><g style="display:block"><path fill="#F59B49" d="M840.596 2027.263c-72.05-76.445-129.698-212.656-122.565-318.116 7.135-105.462 78.813-322.859 98.922-369.526 7.928-18.403 24.945-63.235 45.235-115.195 37.306 64.392 166.294 92.657 237.293 94.165 70.997 1.505 236.834-152.552 248.456-95.55 18.571 91.085 36.916 196.052 44.708 300.077 15.153 202.317-124.125 434.031-172.626 484.607-135.262 141.057-307.374 95.983-379.423 19.538z"/><path fill="none" stroke="#000" stroke-linecap="round" stroke-linejoin="round" stroke-width="18.4" d="M840.596 2027.263c-72.05-76.445-129.698-212.656-122.565-318.116 7.135-105.462 78.813-322.859 98.922-369.526 7.928-18.403 24.945-63.235 45.235-115.195 37.306 64.392 166.294 92.657 237.293 94.165 70.997 1.505 236.834-152.552 248.456-95.55 18.571 91.085 36.916 196.052 44.708 300.077 15.153 202.317-124.125 434.031-172.626 484.607-135.262 141.057-307.374 95.983-379.423 19.538z"/><path fill="none" stroke="#000" stroke-linecap="round" stroke-linejoin="round" stroke-width="50.599999999999994" d="M1311.178 1363.164c-.29 1.899-.584 3.793-.879 5.683"/><path fill="none" stroke="#000" stroke-dasharray="12.093399999999999 120.93169999999999" stroke-linecap="round" stroke-linejoin="round" stroke-width="50.599999999999994" d="M1285.645 1487.191c-6.31 24.153-13.394 48.283-21.325 72.836-8.775 27.166-16.359 51.806-14.401 80.91 1.114 16.581 5.274 31.35 10.372 45.65"/><path fill="none" stroke="#000" stroke-linecap="round" stroke-linejoin="round" stroke-width="50.599999999999994" d="M1280.44 1743.566c.47 1.846.914 3.713 1.328 5.6M912.164 1602.678a147.068 147.068 0 0 0-1.71 5.493"/><path fill="none" stroke="#000" stroke-dasharray="12.679899999999998 126.8059" stroke-linecap="round" stroke-linejoin="round" stroke-width="50.599999999999994" d="M932.436 1729.156c10.202 19.529 27.272 39.982 47.313 59.199"/><path fill="none" stroke="#000" stroke-linecap="round" stroke-linejoin="round" stroke-width="50.599999999999994" d="M1028.513 1828.83a551.87 551.87 0 0 0 4.677 3.341M991.112 1430.975a58.48 58.48 0 0 0-.57 5.718"/><path fill="none" stroke="#000" stroke-dasharray="11.854199999999999 118.5328" stroke-linecap="round" stroke-linejoin="round" stroke-width="50.599999999999994" d="M1026.951 1548.387c34.974 68.872 85.855 145.039 109.676 188.603 32.181 58.854 38.021 120.811 30.272 137.186-10.69 22.588-18.643 60.443-28.979 96.458"/><path fill="none" stroke="#000" stroke-linecap="round" stroke-linejoin="round" stroke-width="50.599999999999994" d="M1117.545 2026.146a145.35 145.35 0 0 1-2.705 5.075M909.755 1478.209a49.792 49.792 0 0 0-4.967 2.883"/><path fill="none" stroke="#000" stroke-dasharray="11.888699999999998 118.8778" stroke-linecap="round" stroke-linejoin="round" stroke-width="50.599999999999994" d="M836.973 1577.185c-33.502 71.921-55.192 162.83-31.235 206.641 32.18 58.852 28.145 43.34 97.149 102.156 20.643 17.595 45.444 45.105 73.116 77.014"/><path fill="none" stroke="#000" stroke-linecap="round" stroke-linejoin="round" stroke-width="50.599999999999994" d="M1014.88 2008.115c1.25 1.447 2.5 2.9 3.76 4.354"/></g><g style="display:block"><path fill="#F59B49" d="M857.204 1237.215c31.905-81.994 73.662-186.879 100.605-232.738 45.233-76.986 101.39-141.463 172.387-139.958 70.997 1.508 161.06 97.064 185.14 207.463 8.815 40.416 19.84 89.035 30.898 142.736 7.884 38.301-103.78 105.038-204.807 110.241-144.24 7.426-294.851-60.436-284.223-87.744z"/><path fill="none" stroke="#000" stroke-linecap="round" stroke-linejoin="round" stroke-width="18.4" d="M857.204 1237.215c31.905-81.994 73.662-186.879 100.605-232.738 45.233-76.986 101.39-141.463 172.387-139.958 70.997 1.508 161.06 97.064 185.14 207.463 8.815 40.416 19.84 89.035 30.898 142.736 7.884 38.301-103.78 105.038-204.807 110.241-144.24 7.426-294.851-60.436-284.223-87.744z"/><path fill="#FFF" d="M1050.284 1224.502s-29.715-23.602-40.618-92.145c-6.65-41.82-10.245-105.767 11.731-145.247 19.953-35.843 37.796-36.044 57.394-40.368 19.596-4.326 73.171 37.717 73.171 37.717s16.615-60.84 54.326-54.52c37.714 6.316 69.546 58.593 80.602 97.464 10.893 38.294 29.186 93.62-5.89 138.805-21.938 28.263-63.01 36.21-94.427 48.21-31.419 12-110.396 24.078-136.289 10.084z"/><path fill="none" stroke="#000" stroke-linecap="round" stroke-linejoin="round" stroke-width="23" d="m1268.127 1065.233-4.98 37.116M1154.101 1078.8l-4.15 42.494"/></g><g style="display:block"><path fill="#684F3A" d="M879.94 1195.088s157.02 108.09 274.707 73.674c117.69-34.416 179.651-94.26 179.651-94.26l21.239 75.832s-100.876 99.118-201.91 103.113c-101.033 3.995-208.85-24.016-243.211-38.11-34.36-14.098-67.24-43.16-67.24-43.16l36.764-77.089z"/><path fill="none" stroke="#000" stroke-linecap="round" stroke-linejoin="round" stroke-width="18.4" d="M879.94 1195.088s157.02 108.09 274.707 73.674c117.69-34.416 179.651-94.26 179.651-94.26l21.239 75.832s-100.876 99.118-201.91 103.113c-101.033 3.995-208.85-24.016-243.211-38.11-34.36-14.098-67.24-43.16-67.24-43.16l36.764-77.089z"/></g><g style="display:block"><path fill="#F9BA86" d="M1193.196 1166.591c-21.927 29.136-36.453 100.033-14.858 118.894 36.637 31.998 161.03 77.868 254.194 110.53 13.214 4.631 25.798 9 37.415 13.024 6.511 2.254 12.72 4.4 18.563 6.428 27.415 9.505 46.824 16.337 52.058 19.098 22.38 11.8-172.912-287.426-254.31-321.962-24.175-10.259-68.356 21.157-93.062 53.988z"/><path fill="none" stroke="#000" stroke-linecap="round" stroke-linejoin="round" stroke-width="18.4" d="M1193.196 1166.591c-21.927 29.136-36.453 100.033-14.858 118.894 36.637 31.998 161.03 77.868 254.194 110.53 13.214 4.631 25.798 9 37.415 13.024 6.511 2.254 12.72 4.4 18.563 6.428 27.415 9.505 46.824 16.337 52.058 19.098 22.38 11.8-172.912-287.426-254.31-321.962-24.175-10.259-68.356 21.157-93.062 53.988z"/><path fill="#FFF" d="M1202.182 1238.391c-4.06-17.55 4.665-44.385 14.746-50.411 10.08-6.027 222.074 179.224 222.074 179.224s-234.172-117.371-236.82-128.813z"/></g><g style="display:block"><path fill="#F59B49" d="M902.215 1320.91c-4.03-4.078-7.678-12.77-23.923-16.222-16.249-3.454-62.84 55.037-113.944 94.88-61.19 47.706-120.951 143.646-108.416 230.424 5.048 34.948 12.394 52.551 22.79 87.74 12.831 43.433-23.755 128.266 10.351 120.776 44.743-9.827 26.542-56.056 26.542-56.056s-.178 46.416 37.046 16.903c33.05-26.202 5.166-61.044 5.166-61.044s23.4 35.653 55.033 6.486c29.872-27.547-25.679-71.745-25.679-71.745s33.493 35.594 47.314-2.384c12.463-34.247-21.684-53.796-21.684-53.796s24.122 33.129 47.332-10.342c21.49-40.253-43.127-83.525-43.127-83.525s23.372 16.876 32.183-26.558c8.812-43.436-13.404-48.208-13.404-48.208s39.196 29.55 42.784-14.435c3.587-43.987-10.153-49.777 3.534-50.263 10.044-.357 3.198 8.687 23.252-5.019"/><path fill="none" stroke="#000" stroke-linecap="round" stroke-linejoin="round" stroke-width="18.4" d="M902.215 1320.91c-4.03-4.078-7.678-12.77-23.923-16.222-16.249-3.454-62.84 55.037-113.944 94.88-61.19 47.706-120.951 143.646-108.416 230.424 5.048 34.948 12.394 52.551 22.79 87.74 12.831 43.433-23.755 128.266 10.351 120.776 44.743-9.827 26.542-56.056 26.542-56.056s-.178 46.416 37.046 16.903c33.05-26.202 5.166-61.044 5.166-61.044s23.4 35.653 55.033 6.486c29.872-27.547-25.679-71.745-25.679-71.745s33.493 35.594 47.314-2.384c12.463-34.247-21.684-53.796-21.684-53.796s24.122 33.129 47.332-10.342c21.49-40.253-43.127-83.525-43.127-83.525s23.372 16.876 32.183-26.558c8.812-43.436-13.404-48.208-13.404-48.208s39.196 29.55 42.784-14.435c3.587-43.987-10.153-49.777 3.534-50.263 10.044-.357 3.198 8.687 23.252-5.019"/><path fill="none" stroke="#FFF" stroke-linecap="round" stroke-linejoin="round" stroke-width="18.4" d="M869.323 1320.662c-16.245-3.453-54.932 47.438-99.72 94.265-46.725 48.852-86.757 100.765-100.506 194.421"/></g></g></g></g></svg>