<svg xmlns="http://www.w3.org/2000/svg" width="64" height="64" style="width:100%;height:100%;transform:translate3d(0,0,0);content-visibility:visible"><defs><clipPath id="a"><path d="M0 0h64v64H0z"/></clipPath><clipPath id="b"><path d="M0 0h2400v2400H0z"/></clipPath><clipPath id="c"><path fill="#fff" d="M1209.09 622.727c-321.328 0-581.817 260.489-581.817 581.818s260.489 581.819 581.818 581.819 581.818-260.49 581.818-581.819c0-321.329-260.489-581.818-581.818-581.818"/></clipPath></defs><g clip-path="url(#a)"><g clip-path="url(#b)" style="display:block" transform="matrix(.055 0 0 .055 -34 -34)"><g clip-path="url(#c)"><g style="display:block"><path fill-opacity=".2" d="M1105.317 2358.612c188.535 0 341.611 31.913 341.611 71.22 0 39.305-153.076 71.218-341.611 71.218s-341.611-31.913-341.611-71.219 153.076-71.22 341.611-71.22z"/><path fill="none" d="M1105.317 2358.612c188.535 0 341.611 31.913 341.611 71.22 0 39.305-153.076 71.218-341.611 71.218s-341.611-31.913-341.611-71.219 153.076-71.22 341.611-71.22z"/></g><g style="display:block"><path fill="#F69B48" d="M1091.335 1602.468c-46.508 60.663-99.085 155.703-127.393 214.345-28.31 58.641-82.909 226.478-74.82 246.7 8.088 20.222 68.753-97.062 74.82-93.019 6.065 4.046-30.334 135.486 2.021 147.62 32.354 12.13 42.466-141.553 54.597-135.486 12.133 6.067 0 99.087 22.243 103.13 22.244 4.045 26.289-143.572 40.444-139.528 14.155 4.045 16.337 107.553 26.286 103.13 18.2-8.088 38.293-71.007 46.51-137.507 5.507-44.576 6.067-90.257 6.067-181.99 0-48.53-18.2-101.105-18.2-101.105"/><path fill="none" stroke="#000" stroke-linecap="round" stroke-linejoin="round" stroke-width="19.8" d="M1091.335 1602.468c-46.508 60.663-99.085 155.703-127.393 214.345-28.31 58.641-82.909 226.478-74.82 246.7 8.088 20.222 68.753-97.062 74.82-93.019 6.065 4.046-30.334 135.486 2.021 147.62 32.354 12.13 42.466-141.553 54.597-135.486 12.133 6.067 0 99.087 22.243 103.13 22.244 4.045 26.289-143.572 40.444-139.528 14.155 4.045 16.337 107.553 26.286 103.13 18.2-8.088 38.293-71.007 46.51-137.507 5.507-44.576 6.067-90.257 6.067-181.99 0-48.53-18.2-101.105-18.2-101.105"/></g><path fill="none" stroke="#000" stroke-linecap="round" stroke-linejoin="round" stroke-width="10" d="M-11.227-46.731s-4.084 88.27 4.082 90.866c8.167 2.596 22.455 1.56 22.455 1.56" style="display:block" transform="matrix(1.98 0 0 1.98 1141.902 2346.124)"/><path fill="none" stroke="#000" stroke-linecap="round" stroke-linejoin="round" stroke-width="10" d="M-8.873-54.806S-15.638 49.613-7.471 52.21c8.167 2.596 23.109 1.75 23.109 1.75" style="display:block" transform="matrix(1.98 0 0 1.98 1007.797 2337.846)"/><g style="display:block"><path fill="#F69B48" d="M1129.755 1398.235c-117.283-2.022-214.345 86.952-268.943 202.213-41.776 88.193-80.598 333.989-68.752 414.535 10.11 68.754 46.508 163.794 103.128 210.302 56.62 46.51 119.305 72.797 188.059 74.818 68.751 2.024 226.478-38.42 264.898-135.481 38.42-97.062 62.071-243.69 58.642-339.719-4.045-113.238-20.222-238.61-56.62-293.208-36.399-54.597-105.15-131.472-220.412-133.46z"/><path fill="none" stroke="#000" stroke-linecap="round" stroke-linejoin="round" stroke-width="19.8" d="M1129.755 1398.235c-117.283-2.022-214.345 86.952-268.943 202.213-41.776 88.193-80.598 333.989-68.752 414.535 10.11 68.754 46.508 163.794 103.128 210.302 56.62 46.51 119.305 72.797 188.059 74.818 68.751 2.024 226.478-38.42 264.898-135.481 38.42-97.062 62.071-243.69 58.642-339.719-4.045-113.238-20.222-238.61-56.62-293.208-36.399-54.597-105.15-131.472-220.412-133.46z"/></g><g style="display:block"><path fill="#F69B48" d="M826.437 1946.23s-186.035 167.838-216.369 202.215c-30.331 34.375-52.575 52.575-46.508 68.752 6.067 16.176 101.107 155.703 121.329 155.703 20.22 0 208.278-181.992 226.478-200.19"/><path fill="none" stroke="#000" stroke-linecap="round" stroke-linejoin="round" stroke-width="19.8" d="M826.437 1946.23s-186.035 167.838-216.369 202.215c-30.331 34.375-52.575 52.575-46.508 68.752 6.067 16.176 101.107 155.703 121.329 155.703 20.22 0 208.278-181.992 226.478-200.19"/><path fill="none" stroke="#000" stroke-linecap="round" stroke-linejoin="round" stroke-width="19.8" d="M583.782 2245.505s177.944-188.057 216.366-216.367M614.114 2294.036S792.058 2105.98 830.48 2077.67M658.6 2338.523s177.945-188.056 216.367-216.366"/></g><g style="display:block"><path fill="#F69B48" d="M1091.335 1602.468c-46.508 60.663-99.085 155.703-127.393 214.345-28.31 58.641-82.909 226.478-74.82 246.7 8.088 20.222 68.753-97.062 74.82-93.019 6.065 4.046-30.334 135.486 2.021 147.62 32.354 12.13 42.466-141.553 54.597-135.486 12.133 6.067 0 99.087 22.243 103.13 22.244 4.045 26.289-143.572 40.444-139.528 14.155 4.045 16.337 107.553 26.286 103.13 18.2-8.088 38.293-71.007 46.51-137.507 5.507-44.576 6.067-90.257 6.067-181.99 0-48.53-18.2-101.105-18.2-101.105"/><path fill="none" stroke="#000" stroke-linecap="round" stroke-linejoin="round" stroke-width="19.8" d="M1091.335 1602.468c-46.508 60.663-99.085 155.703-127.393 214.345-28.31 58.641-82.909 226.478-74.82 246.7 8.088 20.222 68.753-97.062 74.82-93.019 6.065 4.046-30.334 135.486 2.021 147.62 32.354 12.13 42.466-141.553 54.597-135.486 12.133 6.067 0 99.087 22.243 103.13 22.244 4.045 26.289-143.572 40.444-139.528 14.155 4.045 16.337 107.553 26.286 103.13 18.2-8.088 38.293-71.007 46.51-137.507 5.507-44.576 6.067-90.257 6.067-181.99 0-48.53-18.2-101.105-18.2-101.105"/></g><g style="display:block"><path fill="#F69B48" d="m1025.786 1517.399-120.858 52.413s-45.95 28.857-78.935 23.945c-32.987-4.912 71.431-80.102 71.431-80.102s-65.683 34.845-81.34 20.117c-15.658-14.73 101.54-104.693 98.924-131.543-.785-8.05-91.01 25.12-86.148 12.457 4.86-12.664 55.772-94.83 81.894-160.357 26.12-65.53 47.977-195.656 155.047-285.327 62.009-51.934 170.388-65.366 232.872-28.79 61.053 35.74 97.08 120.57 97.08 120.57s49.513 153.647 54.758 228.31c6.382 90.862-61.922 219.364-82.937 253.918-21.012 34.556-58.365 5.688-70.584-15.47"/><path fill="none" stroke="#000" stroke-miterlimit="10" stroke-width="19.8" d="m1025.786 1517.399-120.858 52.413s-45.95 28.857-78.935 23.945c-32.987-4.912 71.431-80.102 71.431-80.102s-65.683 34.845-81.34 20.117c-15.658-14.73 101.54-104.693 98.924-131.543-.785-8.05-91.01 25.12-86.148 12.457 4.86-12.664 55.772-94.83 81.894-160.357 26.12-65.53 47.977-195.656 155.047-285.327 62.009-51.934 170.388-65.366 232.872-28.79 61.053 35.74 97.08 120.57 97.08 120.57s49.513 153.647 54.758 228.31c6.382 90.862-61.922 219.364-82.937 253.918-21.012 34.556-58.365 5.688-70.584-15.47"/><path fill="#FFF" d="M1375.707 1032.256s-41.08-67.105-80.692-77.467c-39.612-10.36-112.546-27.192-126.933 12.814-14.386 40.004-16.592 101.249 33.815 139.003 36.624 27.43 98.068 58.927 139.103 63.055 41.038 4.127 64.003-3.41 63.264-31.997-1.1-42.56-28.557-105.408-28.557-105.408z"/><path fill="none" stroke="#000" stroke-linecap="round" stroke-linejoin="round" stroke-width="15.84" d="M1302.788 964.558s-47.126 16.783-32.108 45.795"/><path fill="none" stroke="#000" stroke-linecap="round" stroke-linejoin="round" stroke-width="19.8" d="m1323.846 1026.152 2.231 34.998M1367.7 1027.454l6.575 28.052"/></g><g style="display:block"><path fill="#F6BB83" d="M1373.588 1073.452c26.332-27.297 170.136 34.614 224.273 88.53 62.71 62.453 107.437 165.109 107.437 165.109s-254.142-89.883-276.166-132.885c11.603 48.212 220.389 123.516 220.389 123.516s-156.621 11.341-210.739-3.72c-54.12-15.062-82.284-59.425-84.195-105.113-2.055-49.139-7.938-107.51 19.001-135.437z"/><path fill="none" stroke="#000" stroke-linecap="round" stroke-linejoin="round" stroke-width="19.8" d="M1373.588 1073.452c26.332-27.297 170.136 34.614 224.273 88.53 62.71 62.453 107.437 165.109 107.437 165.109s-254.142-89.883-276.166-132.885c11.603 48.212 220.389 123.516 220.389 123.516s-156.621 11.341-210.739-3.72c-54.12-15.062-82.284-59.425-84.195-105.113-2.055-49.139-7.938-107.51 19.001-135.437z"/></g></g></g></g></svg>