<svg xmlns="http://www.w3.org/2000/svg" width="64" height="64" style="width:100%;height:100%;transform:translate3d(0,0,0);content-visibility:visible"><defs><clipPath id="a"><path d="M0 0h64v64H0z"/></clipPath><clipPath id="b"><path d="M0 0h2400v2400H0z"/></clipPath><clipPath id="c"><path fill="#fff" d="M1206.818 627.273c-322.585 0-584.091 261.506-584.091 584.091 0 322.584 261.506 584.091 584.091 584.091 322.584 0 584.091-261.507 584.091-584.091 0-322.585-261.507-584.091-584.091-584.091"/></clipPath></defs><g clip-path="url(#a)"><g clip-path="url(#b)" style="display:block" transform="matrix(.055 0 0 .055 -34 -34)"><g clip-path="url(#c)"><g style="display:block"><path fill-opacity=".2" d="M1425.607 2567.498c346.216 0 627.316 54.382 627.316 121.362 0 66.98-281.1 121.362-627.316 121.362S798.29 2755.84 798.29 2688.86c0-66.98 281.1-121.362 627.317-121.362z"/><path fill="none" d="M1425.607 2567.498c346.216 0 627.316 54.382 627.316 121.362 0 66.98-281.1 121.362-627.316 121.362S798.29 2755.84 798.29 2688.86c0-66.98 281.1-121.362 627.317-121.362z"/></g><g style="display:block"><path fill="#F352A5" d="M1444.11 2132.405s29.116 92.517 58.98 130.741c65.441 83.763 175.9 142.782 205.309 143.144 29.412.364-18.458-77.295-44.99-119.981-26.532-42.686-84.092-98.105-84.092-98.105s154.203 137.215 204.601 105.484c21.116-13.298-9.855-59.541-43.562-92.903-33.708-33.361-106.15-74.265-106.15-74.265s114.766 43.776 159.601 33.744c44.835-10.038 26.189-24.386-19.36-52.013-45.544-27.625-124.091-50.948-124.091-50.948s113.696 35.525 130.557 3.967c16.864-31.562-.71-37.663-45.18-57.037-44.474-19.377-65.636-20.81-106.883-15.44-41.247 5.374-95.77 37.643-95.77 37.643"/><path fill="none" stroke="#000" stroke-linecap="round" stroke-linejoin="round" stroke-width="30.72" d="M1444.11 2132.405s29.116 92.517 58.98 130.741c65.441 83.763 175.9 142.782 205.309 143.144 29.412.364-18.458-77.295-44.99-119.981-26.532-42.686-84.092-98.105-84.092-98.105s154.203 137.215 204.601 105.484c21.116-13.298-9.855-59.541-43.562-92.903-33.708-33.361-106.15-74.265-106.15-74.265s114.766 43.776 159.601 33.744c44.835-10.038 26.189-24.386-19.36-52.013-45.544-27.625-124.091-50.948-124.091-50.948s113.696 35.525 130.557 3.967c16.864-31.562-.71-37.663-45.18-57.037-44.474-19.377-65.636-20.81-106.883-15.44-41.247 5.374-95.77 37.643-95.77 37.643"/></g><path fill="none" stroke="#000" stroke-linecap="round" stroke-linejoin="round" stroke-width="8" d="M.686-66.73S-11.06-30.12-4.932-4.078c6.127 26.043 31.096 65.489 31.096 65.489l-27.817 7.391" style="display:block" transform="rotate(2.647 -51987.319 27905.697) scale(3.84)"/><path fill="none" stroke="#000" stroke-linecap="round" stroke-linejoin="round" stroke-width="8" d="M-56.079-40.203S-7.642-17.811 14.887-15.8c25.482 2.275 70.691-21.505 70.691-21.505s-3.991 18.009.845 27.942" style="display:block" transform="rotate(80.889 -729.735 1943.03) scale(3.84)"/><g style="display:block"><path fill="#FFAC73" d="M1223.625 1269.613c-11.64 41.214-47.335 101.025-64.938 95.6-17.603-5.431-132.662-6.296-218.43-54.952-114.972-65.222-167.393-152.633-186.591-166.234-19.2-13.603 91.799 43.418 189.003 69.033 97.204 25.614 210.818-33.878 210.818-33.878s84.439 39.797 70.138 90.431z"/><path fill="none" stroke="#000" stroke-linecap="round" stroke-linejoin="round" stroke-width="23.04" d="M1223.625 1269.613c-11.64 41.214-47.335 101.025-64.938 95.6-17.603-5.431-132.662-6.296-218.43-54.952-114.972-65.222-167.393-152.633-186.591-166.234-19.2-13.603 91.799 43.418 189.003 69.033 97.204 25.614 210.818-33.878 210.818-33.878s84.439 39.797 70.138 90.431z"/></g><g style="display:block"><path fill="#FFAC73" d="M1181.07 1271.668c53.09-25.328-46.471-67.337-47.602-91.566-1.13-24.23-73.846 15.547-136.119-9.362-70.345-28.142-252.843-67.041-252.843-67.041s54.572 96.112 152.016 135.835c97.444 39.722 218.375 62.835 218.375 62.835s13.08-5.37 66.173-30.701z"/><path fill="none" stroke="#000" stroke-linecap="round" stroke-linejoin="round" stroke-width="23.04" d="M1181.07 1271.668c53.09-25.328-46.471-67.337-47.602-91.566-1.13-24.23-73.846 15.547-136.119-9.362-70.345-28.142-252.843-67.041-252.843-67.041s54.572 96.112 152.016 135.835c97.444 39.722 218.375 62.835 218.375 62.835s13.08-5.37 66.173-30.701z"/><path fill="#FFF" d="M1106.914 1202.758s-66.54 12.63-99.985-.094c-33.442-12.722-129.042-26.603-129.042-26.603s93.648 43.487 139.784 52.76c46.14 9.275 100.748 6.256 100.748 6.256l-11.505-32.32z"/></g><g style="display:block"><path fill="#F352A5" d="M1171.526 1665.704s19.647 117.482 12.47 178.477c-7.177 60.994-112.024 214.316-147.807 282.156-35.783 67.841-75.518 159.614-36.114 157.442 39.4-2.173 95.831-36.268 124.742-103.042l54.926-126.86s25.684 155.35 62.75 158.578c37.063 3.226 11.018-158.692 4.17-187.295-6.846-28.607 61.833 94.078 102.928 50.975 22.965-24.085-51.508-169.737-63.03-187.547-11.52-17.809 88.057 82.318 109.858 57.18 38.401-44.274-54.65-155.075-54.65-155.075s49.752 18.336 87.985 18.868c99.125 1.366 94.061-54.166-2.813-74.936-58.656-12.58-144.945-72.372-144.945-72.372l-2.171-39.404"/><path fill="none" stroke="#000" stroke-linecap="round" stroke-linejoin="round" stroke-width="30.72" d="M1171.526 1665.704s19.647 117.482 12.47 178.477c-7.177 60.994-112.024 214.316-147.807 282.156-35.783 67.841-75.518 159.614-36.114 157.442 39.4-2.173 95.831-36.268 124.742-103.042l54.926-126.86s25.684 155.35 62.75 158.578c37.063 3.226 11.018-158.692 4.17-187.295-6.846-28.607 61.833 94.078 102.928 50.975 22.965-24.085-51.508-169.737-63.03-187.547-11.52-17.809 88.057 82.318 109.858 57.18 38.401-44.274-54.65-155.075-54.65-155.075s49.752 18.336 87.985 18.868c99.125 1.366 94.061-54.166-2.813-74.936-58.656-12.58-144.945-72.372-144.945-72.372l-2.171-39.404"/></g><g style="display:block"><path fill="#F351A5" d="M1160.163 1193.563c-42.604-20.833 50.793-122.373 114.23-144.147 63.437-21.774 190.038 23.351 217.282 73.196 45.928 84.03 15.211 145.467 8.139 251.512-3.313 49.68 2.219 325.523 33.253 388.925 70.634 144.312 62.801 386.017 10.62 405.8-52.18 19.786-282.981 135.149-370.77 3.31-87.79-131.838-110.442-254.552-80.439-385.295 30.007-130.744 34.186-169.707 87.567-255.695 46.516-74.932 6.478-160.97-20.41-212.293-26.884-51.319 43.132-104.479.528-125.313z"/><path fill="none" stroke="#000" stroke-linecap="round" stroke-linejoin="round" stroke-width="23.04" d="M1160.163 1193.563c-42.604-20.833 50.793-122.373 114.23-144.147 63.437-21.774 190.038 23.351 217.282 73.196 45.928 84.03 15.211 145.467 8.139 251.512-3.313 49.68 2.219 325.523 33.253 388.925 70.634 144.312 62.801 386.017 10.62 405.8-52.18 19.786-282.981 135.149-370.77 3.31-87.79-131.838-110.442-254.552-80.439-385.295 30.007-130.744 34.186-169.707 87.567-255.695 46.516-74.932 6.478-160.97-20.41-212.293-26.884-51.319 43.132-104.479.528-125.313z"/><path fill="#FFF" d="M1245.104 1082.74c29.73 3.98 104.284 32.579 73.222 99.423-31.062 66.843-71.017 87.1-114.006 60.4-42.985-26.703-53.314-67.566-46.391-79.535 18.858-32.604 57.443-84.266 87.175-80.287z"/><path fill="none" stroke="#000" stroke-linecap="round" stroke-linejoin="round" stroke-width="23.04" d="M1261.829 1128.824s-27.968 23.413-36.111 49.482"/></g><g style="display:block"><path fill="#F352A5" d="M1316.059 1652.25s22.968 116.879 17.523 178.052c-5.446 61.174-105.905 217.405-139.751 286.232-33.847 68.828-70.964 161.69-31.638 158.403 39.323-3.289 94.765-38.97 121.772-106.537l51.309-128.365s30.076 154.56 67.219 156.736c37.14 2.174 6.515-158.94-1.14-187.338-7.654-28.401 64.474 92.288 104.331 48.037 22.273-24.726-56.298-168.209-68.319-185.685-12.02-17.475 90.354 79.79 111.434 54.044 37.13-45.345-59.024-153.464-59.024-153.464s50.252 16.919 88.485 16.366c99.124-1.444 92.488-56.81-4.936-74.826-58.988-10.911-146.937-68.235-146.937-68.235l-3.287-39.326"/><path fill="none" stroke="#000" stroke-linecap="round" stroke-linejoin="round" stroke-width="23.04" d="M1316.059 1652.25s22.968 116.879 17.523 178.052c-5.446 61.174-105.905 217.405-139.751 286.232-33.847 68.828-70.964 161.69-31.638 158.403 39.323-3.289 94.765-38.97 121.772-106.537l51.309-128.365s30.076 154.56 67.219 156.736c37.14 2.174 6.515-158.94-1.14-187.338-7.654-28.401 64.474 92.288 104.331 48.037 22.273-24.726-56.298-168.209-68.319-185.685-12.02-17.475 90.354 79.79 111.434 54.044 37.13-45.345-59.024-153.464-59.024-153.464s50.252 16.919 88.485 16.366c99.124-1.444 92.488-56.81-4.936-74.826-58.988-10.911-146.937-68.235-146.937-68.235l-3.287-39.326"/></g></g></g></g></svg>