<?xml version="1.0" encoding="UTF-8"?>
<svg width="340px" height="80px" viewBox="0 0 340 80" version="1.1" xmlns="http://www.w3.org/2000/svg" xmlns:xlink="http://www.w3.org/1999/xlink">
    <title>Logo / Dark / STG / Wordmark / FI </title>
    <g id="Logo-/-Dark-/-STG-/-Wordmark-/-FI-" stroke="none" stroke-width="1" fill="none" fill-rule="evenodd">
        <g id="Group-2" transform="translate(11.000000, 23.000000)">
            <g id="Group" fill="#333333">
                <path d="M6.8284623,34.7614266 C7.06556168,34.7614266 7.25524119,34.5688425 7.25524119,34.2799664 L7.25524119,21.1842489 L19.4421496,21.1842489 L19.4421496,34.2799664 C19.4421496,34.5688425 19.6318291,34.7614266 19.9163484,34.7614266 L26.223192,34.7614266 C26.5077113,34.7614266 26.6973908,34.5688425 26.6973908,34.2799664 L26.6973908,1.78140275 C26.6973908,1.54067265 26.5077113,1.34808857 26.2706119,1.34808857 L19.9163484,1.34808857 C19.6318291,1.34808857 19.4421496,1.54067265 19.4421496,1.82954877 L19.4421496,14.9252663 L7.25524119,14.9252663 L7.25524119,1.78140275 C7.25524119,1.54067265 7.11298156,1.34808857 6.8284623,1.34808857 L0.474198771,1.34808857 C0.189679508,1.34808857 0,1.54067265 0,1.82954877 L0,34.2799664 C0,34.5688425 0.189679508,34.7614266 0.474198771,34.7614266 L6.8284623,34.7614266 Z M40.3068955,35.3391788 C43.2943478,35.3391788 45.8076013,34.3281124 47.6569765,32.4985636 L48.1311752,34.2799664 C48.226015,34.5688425 48.4156945,34.7614266 48.7476336,34.7614266 L53.631881,34.7614266 C53.9164002,34.7614266 54.1534996,34.5688425 54.1534996,34.2799664 L54.1060797,11.795775 C54.1060797,11.5068988 53.9164002,11.3143147 53.631881,11.3143147 L47.7043963,11.3143147 C47.3250373,11.3143147 47.1827777,11.5550449 47.1827777,11.843921 L47.1827777,22.8212136 C46.9930982,27.4913775 44.8592037,28.695028 43.0572484,28.7431741 C40.3543154,28.7431741 38.979139,26.8654793 38.979139,23.2063817 L38.979139,11.843921 C38.979139,11.5550449 38.7894595,11.3624608 38.4575203,11.3624608 L32.4826158,11.3624608 C32.1980965,11.3624608 32.008417,11.5550449 32.008417,11.843921 L32.008417,24.8433464 C32.008417,31.1504751 35.3278084,35.3391788 40.3068955,35.3391788 Z M69.7072193,35.2428868 C76.9150406,35.2428868 81.7518681,30.2838467 81.7518681,22.9656516 C81.7518681,15.6956026 76.9150406,10.7365625 69.7072193,10.7365625 C62.5468179,10.7365625 57.7099904,15.6956026 57.7099904,22.9656516 C57.7099904,30.2838467 62.5468179,35.2428868 69.7072193,35.2428868 Z M69.7072193,28.2135678 C66.6723472,28.2135678 64.6807123,26.095143 64.6807123,22.9656516 C64.6807123,19.8361603 66.6723472,17.8140275 69.7072193,17.8140275 C72.7420914,17.7658815 74.7811462,19.8361603 74.7811462,22.9656516 C74.7811462,26.095143 72.7420914,28.1654218 69.7072193,28.2135678 Z M91.804882,34.7614266 C92.1368212,34.7614266 92.2790808,34.5688425 92.2790808,34.2799664 L92.2790808,23.2063817 C92.4213404,19.162116 93.8439367,17.9103195 95.5984722,17.8621735 C97.7797865,17.8140275 98.8230238,19.6917223 98.8230238,22.8693596 L98.8230238,34.2318204 C98.8230238,34.5206965 99.0127033,34.7614266 99.2972226,34.7614266 L105.319547,34.7614266 C105.604066,34.7614266 105.793746,34.5688425 105.793746,34.2318204 L105.793746,23.9767181 C105.793746,19.3547001 107.263762,17.9103195 109.160557,17.8621735 C111.341871,17.8140275 112.337689,19.6917223 112.337689,22.8693596 L112.337689,34.2318204 C112.337689,34.5688425 112.574788,34.7614266 112.859307,34.7614266 L118.834212,34.7614266 C119.118731,34.7614266 119.308411,34.5688425 119.308411,34.2318204 L119.308411,21.2323949 C119.308411,14.9252663 116.036439,10.7365625 111.341871,10.7365625 C107.92764,10.7365625 105.698906,12.2772352 104.371149,14.9252663 C102.995973,12.3253812 100.672399,10.7365625 97.7797865,10.7365625 C95.1242734,10.7365625 93.1326386,11.6994829 91.7574621,13.4808857 L91.3306833,11.795775 C91.2832634,11.5550449 91.0935839,11.3143147 90.7142249,11.3143147 L85.7825576,11.3143147 C85.4980384,11.3143147 85.3083589,11.5068988 85.3083589,11.795775 L85.3083589,34.2799664 C85.3083589,34.5688425 85.4980384,34.7614266 85.7825576,34.7614266 L91.804882,34.7614266 Z M133.866313,35.2910328 C136.521826,35.2910328 138.608301,34.2318204 140.078317,32.4022716 L140.837035,34.2799664 C140.931875,34.5688425 141.074134,34.7614266 141.358654,34.7614266 L146.385161,34.7614266 C146.7171,34.7614266 146.859359,34.5206965 146.859359,34.2799664 L146.859359,11.795775 C146.859359,11.5068988 146.66968,11.3143147 146.43258,11.3143147 L141.406073,11.3143147 C141.121554,11.3143147 140.979295,11.5068988 140.884455,11.795775 L140.078317,13.7697618 C138.608301,11.940213 136.521826,10.9291466 133.866313,10.9291466 C126.943011,10.9772926 122.295863,15.8400406 122.295863,23.1100897 C122.295863,30.3319927 126.943011,35.3873249 133.866313,35.2910328 Z M134.245672,28.2617139 C131.30564,28.2617139 129.219165,26.143289 129.219165,23.1100897 C129.219165,20.0287444 131.2108,17.9584655 134.245672,17.9584655 C137.280544,17.9584655 139.367019,20.0287444 139.367019,23.1100897 C139.367019,26.239581 137.327964,28.2617139 134.245672,28.2617139 Z M161.9863,35.2910328 C164.641813,35.2910328 166.728288,34.2318204 168.198304,32.4022716 L168.957022,34.2799664 C169.051862,34.5688425 169.194121,34.7614266 169.478641,34.7614266 L174.505148,34.7614266 C174.837087,34.7614266 174.979346,34.5206965 174.979346,34.2799664 L174.979346,11.795775 C174.979346,11.5068988 174.789667,11.3143147 174.552568,11.3143147 L169.526061,11.3143147 C169.241541,11.3143147 169.099282,11.5068988 169.004442,11.795775 L168.198304,13.7697618 C166.728288,11.940213 164.641813,10.9291466 161.9863,10.9291466 C155.062998,10.9772926 150.41585,15.8400406 150.41585,23.1100897 C150.41585,30.3319927 155.062998,35.3873249 161.9863,35.2910328 Z M162.365659,28.2617139 C159.425627,28.2617139 157.339152,26.143289 157.339152,23.1100897 C157.339152,20.0287444 159.330787,17.9584655 162.365659,17.9584655 C165.400531,17.9584655 167.487006,20.0287444 167.487006,23.1100897 C167.487006,26.239581 165.447951,28.2617139 162.365659,28.2617139 Z M198.072827,34.7614266 C198.309926,34.7614266 198.547025,34.5688425 198.547025,34.2318204 L198.547025,23.3026738 C198.736705,19.2102621 200.6335,17.9103195 202.435455,17.8621735 C204.61677,17.8140275 206.276465,19.6917223 206.276465,22.8693596 L206.276465,34.2318204 C206.276465,34.5206965 206.466145,34.7614266 206.750664,34.7614266 L212.772988,34.7614266 C213.057508,34.7614266 213.247187,34.5688425 213.247187,34.2318204 L213.247187,21.2323949 C213.247187,14.9252663 209.690696,10.7365625 204.664189,10.7365625 C202.008676,10.7365625 199.969622,11.6031909 198.547025,13.0957175 L198.547025,0.481460202 C198.547025,0.192584081 198.357346,0 198.025407,0 L192.050502,0 C191.765983,0 191.576303,0.192584081 191.576303,0.529606222 L191.576303,34.2318204 C191.576303,34.5688425 191.765983,34.7614266 192.097922,34.7614266 L198.072827,34.7614266 Z M226.714432,45.7387192 C226.951532,45.7387192 227.236051,45.5461351 227.330891,45.305405 L239.991998,11.940213 C240.134258,11.5550449 239.991998,11.3143147 239.565219,11.3143147 L233.448055,11.3143147 C233.163536,11.3143147 232.926436,11.5068988 232.831596,11.7476289 L227.47315,25.8544129 L222.826002,11.7476289 C222.731163,11.4587528 222.541483,11.3143147 222.256964,11.3143147 L215.9027,11.3143147 C215.618181,11.3624608 215.428502,11.5550449 215.570761,11.940213 L224.153759,34.5688425 L220.123069,45.1128209 C219.98081,45.4498431 220.170489,45.7387192 220.549848,45.7387192 L226.714432,45.7387192 Z M255.782817,34.7614266 C256.067336,34.7614266 256.351855,34.6169885 256.446695,34.3281124 L264.650334,11.940213 C264.792594,11.6031909 264.650334,11.3143147 264.270975,11.3143147 L257.869292,11.3143147 C257.632192,11.3143147 257.442513,11.4587528 257.347673,11.6994829 L252.368586,26.3358731 L247.389499,11.6994829 C247.294659,11.4587528 247.05756,11.3143147 246.86788,11.3143147 L240.513617,11.3143147 C240.086838,11.3143147 239.944578,11.6031909 240.086838,11.940213 L248.337896,34.3281124 C248.432736,34.6169885 248.717255,34.7614266 248.954355,34.7614266 L255.782817,34.7614266 Z M277.453701,35.2910328 C280.109214,35.2910328 282.195688,34.2318204 283.665705,32.4022716 L284.424423,34.2799664 C284.519262,34.5688425 284.661522,34.7614266 284.946041,34.7614266 L289.972548,34.7614266 C290.304487,34.7614266 290.446747,34.5206965 290.446747,34.2799664 L290.446747,11.795775 C290.446747,11.5068988 290.257068,11.3143147 290.019968,11.3143147 L284.993461,11.3143147 C284.708942,11.3143147 284.566682,11.5068988 284.471843,11.795775 L283.665705,13.7697618 C282.195688,11.940213 280.109214,10.9291466 277.453701,10.9291466 C270.530399,10.9772926 265.883251,15.8400406 265.883251,23.1100897 C265.883251,30.3319927 270.530399,35.3873249 277.453701,35.2910328 Z M277.83306,28.2617139 C274.893027,28.2617139 272.806553,26.143289 272.806553,23.1100897 C272.806553,20.0287444 274.798188,17.9584655 277.83306,17.9584655 C280.867932,17.9584655 282.954407,20.0287444 282.954407,23.1100897 C282.954407,26.239581 280.915352,28.2617139 277.83306,28.2617139 Z M302.11994,24.4020079 C302.451879,24.4020079 302.594139,24.2094238 302.594139,23.9205477 L302.688979,1.48450229 C302.688979,1.19562617 302.499299,1.00304209 302.2622,1.00304209 L295.860516,1.00304209 C295.575997,1.00304209 295.386318,1.19562617 295.386318,1.48450229 L295.481157,23.9205477 C295.481157,24.2094238 295.670837,24.4020079 295.955356,24.4020079 L302.11994,24.4020079 Z" id="Huomaahyvä!"></path>
                <path d="M312.553003,11.9346685 C315.920176,11.9346685 318.180766,9.6740782 318.180766,6.30690518 C318.180766,2.9081155 315.920176,0.663333484 312.553003,0.663333484 C309.170021,0.663333484 306.925239,2.9081155 306.925239,6.30690518 C306.925239,9.6740782 309.170021,11.9346685 312.553003,11.9346685 Z M312.553003,11.3023356 C309.549421,11.3023356 307.541764,9.31048675 307.541764,6.30690518 C307.541764,3.3033236 309.549421,1.27985812 312.553003,1.27985812 C315.556584,1.27985812 317.564241,3.3033236 317.564241,6.30690518 C317.564241,9.29467843 315.556584,11.3023356 312.553003,11.3023356 Z M311.098637,9.26306178 C311.193487,9.26306178 311.225103,9.21563681 311.240912,9.10497854 L311.240912,6.59145501 L312.268453,6.59145501 L312.268453,6.59145501 L313.849285,9.15240351 C313.89671,9.21563681 313.959944,9.26306178 314.023177,9.26306178 L314.481618,9.26306178 C314.592276,9.26306178 314.623893,9.19982848 314.544852,9.08917021 L312.932402,6.57564669 C313.99156,6.51241339 314.623893,5.97493037 314.623893,4.97900596 C314.623893,3.88823159 313.89671,3.27170696 312.695278,3.27170696 C312.062945,3.27170696 311.414803,3.28751528 310.78247,3.27170696 C310.671812,3.27170696 310.608579,3.33494025 310.608579,3.4297902 L310.608579,9.10497854 C310.608579,9.21563681 310.656004,9.26306178 310.750854,9.26306178 L311.098637,9.26306178 Z M312.711086,5.9907387 L311.240912,5.97493037 L311.240912,3.88823159 L312.711086,3.87242327 C313.51731,3.87242327 314.007368,4.26763137 314.007368,4.97900596 C314.007368,5.64295557 313.564735,5.9907387 312.711086,5.9907387 Z" id="®"></path>
            </g>
            <path d="M299.299768,34.7370899 C301.667768,34.7370899 303.267768,33.0862962 303.267768,30.7370899 C303.267768,28.3878835 301.667768,26.7370899 299.299768,26.7370899 C296.867768,26.7370899 295.267768,28.3243915 295.267768,30.7370899 C295.267768,33.0862962 296.867768,34.7370899 299.299768,34.7370899 Z" id="Path" fill="#FDD662"></path>
            <path d="M274.537915,8.65799561 C276.905915,8.65799561 278.569915,7.00720196 278.569915,4.65799561 C278.569915,2.30878926 276.905915,0.65799561 274.537915,0.65799561 C272.105915,0.65799561 270.569915,2.2452972 270.569915,4.65799561 C270.569915,7.00720196 272.105915,8.65799561 274.537915,8.65799561 Z" id="Path" fill="#A5D7D5"></path>
            <path d="M284.481056,8.65799561 C286.849056,8.65799561 288.449056,7.00720196 288.449056,4.65799561 C288.449056,2.30878926 286.849056,0.65799561 284.481056,0.65799561 C282.049056,0.65799561 280.449056,2.2452972 280.449056,4.65799561 C280.449056,7.00720196 282.049056,8.65799561 284.481056,8.65799561 Z" id="Path" fill="#EF7570"></path>
        </g>
    </g>
</svg>