<svg xmlns="http://www.w3.org/2000/svg" width="64" height="64" style="width:100%;height:100%;transform:translate3d(0,0,0);content-visibility:visible"><defs><clipPath id="a"><path d="M0 0h64v64H0z"/></clipPath><clipPath id="b"><path d="M0 0h2400v2400H0z"/></clipPath><clipPath id="c"><path fill="#fff" d="M1211.364 636.364c-320.074 0-579.546 259.471-579.546 579.545 0 320.074 259.472 579.546 579.546 579.546 320.074 0 579.545-259.472 579.545-579.546 0-320.074-259.471-579.545-579.545-579.545"/></clipPath></defs><g clip-path="url(#a)"><g clip-path="url(#b)" style="display:block" transform="matrix(.055 0 0 .055 -34 -34)"><g clip-path="url(#c)"><g style="display:block"><path fill-opacity=".2" d="M1230.734 2249.4c141.148 0 255.75 28.589 255.75 63.8s-114.602 63.8-255.75 63.8c-141.149 0-255.75-28.589-255.75-63.8s114.601-63.8 255.75-63.8z"/><path fill="none" d="M1230.734 2249.4c141.148 0 255.75 28.589 255.75 63.8s-114.602 63.8-255.75 63.8c-141.149 0-255.75-28.589-255.75-63.8s114.601-63.8 255.75-63.8z"/></g><g style="display:block"><path fill="none" stroke="#000" stroke-linecap="round" stroke-linejoin="round" stroke-width="15.400000000000002" d="M1172.499 2136.174s4.701 164.925-1.037 172.457c-7.434 9.759-42.119 3.545-42.119 3.545"/><path fill="#46BFDE" d="M1137.653 2085.986s-24.178 109.696-5.85 112.94c18.328 3.245 19.342-73.346 19.342-73.346s2.37 72.696 23.983 67.787c19.673-4.468 20.115-67.029 20.115-67.029s30.86 86.226 37.058 63.463c6.198-22.763-5.773-88.266-14.2-95.8-8.428-7.534-80.448-8.015-80.448-8.015z"/><path fill="none" stroke="#000" stroke-linecap="round" stroke-linejoin="round" stroke-width="15.400000000000002" d="M1137.653 2085.986s-24.178 109.696-5.85 112.94c18.328 3.245 19.342-73.346 19.342-73.346s2.37 72.696 23.983 67.787c19.673-4.468 20.115-67.029 20.115-67.029s30.86 86.226 37.058 63.463c6.198-22.763-5.773-88.266-14.2-95.8-8.428-7.534-80.448-8.015-80.448-8.015z"/></g><g style="display:block"><path fill="none" stroke="#000" stroke-linecap="round" stroke-linejoin="round" stroke-width="15.400000000000002" d="M1308.998 2148.282s12.664 160.604 9.099 172.342c-3.565 11.738-42.024 2.96-42.024 2.96"/><path fill="#46BFDE" d="M1264.19 2078.203s-6.881 146.87 8.422 138.698c15.304-8.173 21.906-67.937 21.906-67.937s8.419 77.934 25.46 60.854c17.041-17.078 3.14-86.518 3.14-86.518s28.86 91.659 41.153 69.508c12.291-22.15-13.185-84.9-13.185-84.9s33.745 47.232 42.875 42.573c10.938-5.58-15.571-78.032-26.949-84.648-72.113-41.933-102.823 12.37-102.823 12.37z"/><path fill="none" stroke="#000" stroke-linecap="round" stroke-linejoin="round" stroke-width="15.400000000000002" d="M1264.19 2078.203s-6.881 146.87 8.422 138.698c15.304-8.173 21.906-67.937 21.906-67.937s8.419 77.934 25.46 60.854c17.041-17.078 3.14-86.518 3.14-86.518s28.86 91.659 41.153 69.508c12.291-22.15-13.185-84.9-13.185-84.9s33.745 47.232 42.875 42.573c10.938-5.58-15.571-78.032-26.949-84.648-72.113-41.933-102.823 12.37-102.823 12.37z"/></g><g style="display:block"><path fill="#46BFDE" d="M1080.553 1062.202s1.461-83.919 33.038-150.147c35.289-74.014 148.95-105.914 218.219-35.668 69.27 70.247 53.45 223.158 60.714 279.037 16.342 125.743 73.863 155.666 116.699 262.206 71.838 178.67 74.68 555.736-121.845 658.262-192.768 100.564-346.77 56.564-403.722-53.196-88.11-169.81-3.273-379.803 73.1-497.08 76.372-117.278 108.436-190.578 95.391-249.866-13.045-59.287-63.383-146.045-71.594-213.548z"/><path fill="none" stroke="#000" stroke-linecap="round" stroke-linejoin="round" stroke-width="15.400000000000002" d="M1080.553 1062.202s1.461-83.919 33.038-150.147c35.289-74.014 148.95-105.914 218.219-35.668 69.27 70.247 53.45 223.158 60.714 279.037 16.342 125.743 73.863 155.666 116.699 262.206 71.838 178.67 74.68 555.736-121.845 658.262-192.768 100.564-346.77 56.564-403.722-53.196-88.11-169.81-3.273-379.803 73.1-497.08 76.372-117.278 108.436-190.578 95.391-249.866-13.045-59.287-63.383-146.045-71.594-213.548z"/></g><g style="display:block"><path fill="none" stroke="#000" stroke-linecap="round" stroke-linejoin="round" stroke-width="15.400000000000002" d="M1184.502 983.29s18.127-30.81 38.483 7.434M1094.853 978.89s18.127-30.81 38.483 7.434"/></g><path fill="none" d="M0-124c68.436 0 124 55.564 124 124S68.436 124 0 124-124 68.436-124 0-68.436-124 0-124z" style="display:block" transform="matrix(1.1 0 0 1.1 1240.992 973.4)"/><g style="display:block"><path fill="#46BFDE" d="M1340.277 1452.465s13.567 158.08 12.934 219.136c-.634 61.057-24.649 120.942-47.652 146.142-23.003 25.201-66.63 83.858-48.46 89.628 18.172 5.77 59.636-46.075 64.9-46.903 5.264-.83-37.231 136.95-4.097 134.967 33.133-1.981 45.034-118.219 45.034-118.219s1.456 101.727 32.102 83.954c30.648-17.774 2.657-130.425 2.657-130.425s29.67 71.928 49.788 55.813c20.119-16.116-12.868-109.1-12.868-109.1s27.075 48.602 50.295 38.472c23.22-10.13-5.71-110.823-10.866-127.217-20.53-65.275-11.673-183.73-50.374-254.775-38.701-71.046-88.4-68.074-83.393 18.527z"/><path fill="none" stroke="#000" stroke-linecap="round" stroke-linejoin="round" stroke-width="15.400000000000002" d="M1340.277 1452.465s13.567 158.08 12.934 219.136c-.634 61.057-24.649 120.942-47.652 146.142-23.003 25.201-66.63 83.858-48.46 89.628 18.172 5.77 59.636-46.075 64.9-46.903 5.264-.83-37.231 136.95-4.097 134.967 33.133-1.981 45.034-118.219 45.034-118.219s1.456 101.727 32.102 83.954c30.648-17.774 2.657-130.425 2.657-130.425s29.67 71.928 49.788 55.813c20.119-16.116-12.868-109.1-12.868-109.1s27.075 48.602 50.295 38.472c23.22-10.13-5.71-110.823-10.866-127.217-20.53-65.275-11.673-183.73-50.374-254.775-38.701-71.046-88.4-68.074-83.393 18.527z"/></g><g style="display:block"><path fill="#F59B49" d="M1194.655 1075.108s-33.047 6.825-56.367 4.165-57.276 40.957-91.957 95.206c-34.682 54.249-127.548 186.246-134.012 194.884-6.466 8.64 73.04-13.709 144.092-68.68 51.29-39.682 131.014-105.414 151.286-134.953 29.063-42.348 45.622-112.79 34.506-122.094-12.725-10.653-28.033 19.45-47.548 31.472z"/><path fill="none" stroke="#000" stroke-linecap="round" stroke-linejoin="round" stroke-width="15.400000000000002" d="M1194.655 1075.108s-33.047 6.825-56.367 4.165-57.276 40.957-91.957 95.206c-34.682 54.249-127.548 186.246-134.012 194.884-6.466 8.64 73.04-13.709 144.092-68.68 51.29-39.682 131.014-105.414 151.286-134.953 29.063-42.348 45.622-112.79 34.506-122.094-12.725-10.653-28.033 19.45-47.548 31.472z"/><path fill="#F55C49" d="M1117.174 1095.19c8.268-8.413 42.904-12.875 47.818-.209 4.913 12.668-66.302 75.735-98.13 107.851-52.688 53.165-106.078 118.339-111.797 123.247-5.718 4.908 72.39-109.504 92.807-138.944 20.415-29.439 58.97-81.434 69.302-91.946z"/></g><g style="display:block"><path fill="#F59B49" d="M1087.485 1017.583s-7.657 39.582 41.963 42.97c49.62 3.386 113.119-22.235 113.119-22.235s-86.445 104.71-164.024 187.944c-47.193 50.633-173.054 152.292-173.054 152.292s-8.855-78.941 54.548-183.573c63.403-104.633 127.448-177.398 127.448-177.398z"/><path fill="none" stroke="#000" stroke-linecap="round" stroke-linejoin="round" stroke-width="15.400000000000002" d="M1087.485 1017.583s-7.657 39.582 41.963 42.97c49.62 3.386 113.119-22.235 113.119-22.235s-86.445 104.71-164.024 187.944c-47.193 50.633-173.054 152.292-173.054 152.292s-8.855-78.941 54.548-183.573c63.403-104.633 127.448-177.398 127.448-177.398z"/><path fill="#FFF" d="M1073.646 1071.654s24.951 2.238 22.171 11.662c-2.78 9.425-39.694 41.623-81.688 101.247-15.795 22.428-70.328 91.341-70.328 91.341s32.085-70.983 60.303-116.594c18.805-30.4 69.542-87.656 69.542-87.656z"/></g></g></g></g></svg>