<svg xmlns="http://www.w3.org/2000/svg" width="64" height="64" style="width:100%;height:100%;transform:translate3d(0,0,0);content-visibility:visible"><defs><clipPath id="a"><path d="M0 0h64v64H0z"/></clipPath><clipPath id="b"><path d="M0 0h2400v2400H0z"/></clipPath><clipPath id="c"><path fill="#fff" d="M1215.91 290.909c-317.565 0-575.001 257.436-575.001 575s257.436 575 575 575 575-257.436 575-575-257.436-575-575-575"/></clipPath></defs><g clip-path="url(#a)"><g clip-path="url(#b)" style="display:block" transform="matrix(.055 0 0 .055 -34.25 -14.75)"><g clip-path="url(#c)"><path fill="#7A7A7A" fill-opacity=".3" d="M205.79 0c0 31.1-92.135 56.311-205.79 56.311C-113.654 56.311-205.79 31.1-205.79 0S-113.654-56.311 0-56.311C113.655-56.311 205.79-31.1 205.79 0z" style="display:block" transform="translate(1124.396 1939.064)"/><path fill="none" stroke="#000" stroke-linecap="round" stroke-linejoin="round" stroke-width="10" d="M3.925-57.846S21.671-32.25 14.504-5.631C9.345 13.531-4.828 33.52-15.043 47.806c-3.975 5.561-6.628 9.017-6.628 9.017s3.412-5.461 15.698-6.484c12.286-1.025 2.73 7.507 13.993 7.507 11.261 0 13.309-5.46 13.309-5.46" style="display:block" transform="matrix(1.8 0 0 1.8 1216.764 1829.891)"/><path fill="none" stroke="#000" stroke-linecap="round" stroke-linejoin="round" stroke-width="10" d="M3.925-57.846S21.671-32.25 14.504-5.631C9.345 13.531-4.828 33.52-15.043 47.806c-3.975 5.561-6.628 9.017-6.628 9.017s3.412-5.461 15.698-6.484c12.286-1.025 2.73 7.507 13.993 7.507 11.261 0 13.309-5.46 13.309-5.46" style="display:block" transform="matrix(1.8 0 0 1.8 1038.564 1838.891)"/><g style="display:block"><path fill="#F59B4A" d="M1297.68 1026.046s53.091-28.806 84.72 35.332c20.494 41.553-30.478 176.037 21.645 260.285 52.121 84.248 137.648 138.76 197.092 167.675 66.405 32.3 120.527 68.803 136.66 95.668 16.13 26.862 2.992 74.627-47.906 30.565-39.782-34.44-65.212-59-65.212-59s72.363 131.703 36.5 146.151c-42.506 17.127-98.697-129.954-108.01-139.095-9.316-9.142-4.779 175.512-58.635 152.082-53.854-23.429-21.345-168.05-21.345-168.05s-53.255 161.039-98.813 131.04c-45.558-29.997 21.545-159.058 21.545-159.058s-87.85 145.48-128.835 105.259c-40.985-40.22 57.406-164.324 57.406-164.324s-103.135 104.736-126.718 70.56c-23.583-34.177 98.011-150.22 98.011-150.22s-106.227 90.67-141.2 48.994c-34.973-41.676 89.077-133.241 89.077-133.241s-86.918 65.485-118.166 27.462c-31.247-38.017 84.084-116.078 84.084-116.078s-52.501 51.455-84.384 23.845c-31.88-27.61-4.659-85.48 26.67-113.577"/><path fill="none" stroke="#000" stroke-linecap="round" stroke-linejoin="round" stroke-width="10" d="M-197.407-101.701s5.46-30.032 42.318-17.746c23.88 7.959 62.795 76.446 114.669 88.731C11.454-18.43 61.964-29.35 93.361-40.271c35.073-12.2 67.866-18.365 84.248-14.27 16.38 4.095 31.826 26.611-3.037 28.796-27.249 1.708-45.719 1.855-45.719 1.855s78.11 22.527 72.351 40.954c-6.825 21.841-86.002-12.286-92.827-12.286-6.826 0 70.985 66.889 43.683 77.81-27.301 10.921-76.446-54.603-76.446-54.603s49.145 79.175 21.842 84.635c-27.302 5.461-58.699-66.889-58.699-66.889s31.397 86.002 1.365 86.002S-9.023 49.826-9.023 49.826s9.556 76.446-12.285 72.351c-21.842-4.096-30.033-91.463-30.033-91.463s2.73 72.351-25.937 69.621c-28.667-2.73-25.937-81.906-25.937-81.906s-1.364 55.969-27.302 53.238c-25.936-2.729-20.476-73.716-20.476-73.716s4.095 38.224-17.747 39.589c-21.841 1.365-36.857-30.032-38.223-51.874" transform="matrix(1.3647 1.33926 -1.5197 1.20266 1412.527 1412.736)"/></g><g style="display:block"><path fill="#F59B4A" d="M1340.518 665.89s20.912 16.584 27.186 38.7c6.273 22.116 18.82 49.76 12.548 68.188-6.275 18.43-34.772 58.416-48.1 99.517-20.911 64.501 35.552 294.862 75.286 390.692 39.733 95.83 76.897 168.615 62.491 279.993-11.512 88.996-87.586 223.118-288.342 223.118-200.756 0-317.959-94.17-347.14-202.718-21.447-79.785-17.278-152.633 14.638-309.607 9.222-45.351 41.823-151.118 48.098-215.619 6.274-64.503-28.428-136.227-14.64-246.945 18.823-151.118 108.745-261.691 263.494-261.691 154.748 0 194.481 136.371 194.481 136.371z"/><path fill="none" stroke="#000" stroke-linecap="round" stroke-linejoin="round" stroke-width="10" d="M96.371-267.732s10.238 9.214 13.31 21.5c3.071 12.287 9.214 27.645 6.143 37.883-3.072 10.239-17.024 32.453-23.549 55.287-10.238 35.834 17.406 163.812 36.859 217.051 19.453 53.239 37.648 93.675 30.595 155.552-5.636 49.442-42.881 123.954-141.169 123.954-98.288 0-155.669-52.316-169.956-112.621-10.5-44.325-8.459-84.796 7.167-172.004 4.515-25.195 20.476-83.954 23.548-119.788 3.072-35.835-13.918-75.682-7.167-137.192 9.215-83.954 53.24-145.384 129.003-145.384 75.763 0 95.216 75.762 95.216 75.762z" transform="matrix(2.04253 0 0 1.8 1143.677 1147.807)"/><path fill="#FFF" d="M929.732 659.91c8.685-15.212 18.698-29.9 30.516-43.456a247.044 247.044 0 0 1 18.997-19.406 239 239 0 0 1 21.488-17.314c30.086-21.714 66.858-36.106 105.215-41.8 9.59-1.454 19.285-2.255 28.981-2.721 9.692-.447 19.425-.499 29.151.115 19.429 1.173 38.71 5 56.693 11.653a174.88 174.88 0 0 1 25.869 11.921 175.115 175.115 0 0 1 23.23 15.534c14.434 11.497 26.801 24.867 37.173 39.262.358.499.19 1.157-.373 1.472a1.34 1.34 0 0 1-1.471-.113l-.217-.178c-3.631-2.954-7.067-5.956-10.707-8.764-3.554-2.86-7.11-5.658-10.782-8.297-7.372-5.252-14.708-10.267-22.403-14.64a203.842 203.842 0 0 0-23.43-11.753c-3.995-1.688-8.04-3.213-12.075-4.682a236.683 236.683 0 0 0-12.316-3.792c-8.256-2.292-16.655-3.957-25.107-5.199-8.483-1.123-17.029-1.863-25.644-2.01-4.318-.038-8.61-.044-12.97.052-4.449.17-8.891.317-13.3.68-8.817.609-17.6 1.368-26.211 2.801-34.535 5.148-67.348 16.344-96.953 33.997-1.869 1.08-3.69 2.22-5.52 3.362-1.829 1.145-3.708 2.246-5.483 3.469-3.642 2.347-7.122 4.883-10.727 7.353a330.683 330.683 0 0 0-20.591 16.227c-6.745 5.675-13.246 11.692-19.71 17.9-1.665 1.525-3.205 3.13-4.81 4.711a180.323 180.323 0 0 0-4.723 4.826c-1.59 1.611-3.266 3.19-4.804 4.85a163.55 163.55 0 0 1-4.798 4.926l-.204.201c-.445.44-1.21.477-1.708.087-.416-.33-.515-.855-.276-1.275z"/></g><g style="display:block"><path fill="#F59B4A" d="M829.002 1517.811c-200.176 32.175-403.45 191.984-378.167 208.61 25.283 16.626 263.685-130.926 256.21-125-7.475 5.922-212.657 171.255-191.336 180.938 21.32 9.683 270.424-171.205 270.424-171.205s-250.092 215.467-229.527 237.663c20.567 22.195 252.549-183.503 252.549-183.503s-188.63 197.351-167.309 207.036c21.319 9.684 207.114-179.234 207.114-179.234s-119.163 185.04-89.966 191.232c29.194 6.192 175.222-161.182 197.04-254.786"/><path fill="none" stroke="#000" stroke-linecap="round" stroke-linejoin="round" stroke-width="10" d="M79.098-101.022c-99.556 3.592-210.812 77.137-199.891 88.058 10.921 10.921 138.217-53.411 134.122-50.68-4.095 2.73-116.717 79.177-107.161 86.002 9.556 6.825 144.701-75.081 144.701-75.081S-87.518 48.124-79.328 61.775c8.191 13.651 137.023-83.101 137.023-83.101S-49.466 73.89-39.91 80.716C-30.355 87.541 74.759-3.238 74.759-3.238s-72.521 93.339-58.87 98.8c13.65 5.46 97.775-76.275 115.825-126.2" transform="matrix(2.0213 -.2589 .2938 1.78128 698.802 1718.24)"/></g><path fill="none" stroke="#000" stroke-linecap="round" stroke-linejoin="round" stroke-width="10" d="m-.051-5.334-.007 6.609.089 7.075" style="display:block" transform="matrix(2.04253 0 0 1.8 1180.063 676.92)"/><path fill="none" stroke="#000" stroke-linecap="round" stroke-linejoin="round" stroke-width="10" d="m-.051-5.334-.007 6.609.089 7.075" style="display:block" transform="matrix(1.51254 -.30773 .45947 1.75387 1305.444 662.946)"/><path fill="none" stroke="#000" stroke-linecap="round" stroke-linejoin="round" stroke-width="10" d="M11.262-5.119s-17.064-9.556-22.524 19.794" style="display:block" transform="matrix(2.04253 0 0 1.8 1146.735 622.89)"/><path fill="none" stroke="#000" stroke-linecap="round" stroke-linejoin="round" stroke-width="10" d="M11.262-5.119s-17.064-9.556-22.524 19.794" style="display:block" transform="matrix(-1.61632 0 0 1.20715 1287.055 609.255)"/><g style="display:block"><path fill="#B3445F" d="M1215.816 758.218c3.484 9.214 59.948 12.9 156.141 18.429 122.433 7.036 158.01 13.622 179.148 9.831-25.094-18.43-123.659-49.584-211.212-56.518-49.63-3.93-77.375-5.526-77.375-5.526s-16.728 33.784-46.702 33.784z"/><path fill="none" stroke="#000" stroke-linecap="round" stroke-linejoin="round" stroke-width="10" d="M-82.077.482c1.706 5.119 29.35 7.167 76.445 10.238 59.942 3.909 77.36 7.568 87.709 5.462C69.791 5.943 21.535-11.365-21.33-15.217c-24.298-2.183-37.882-3.07-37.882-3.07S-67.402.482-82.077.482z" transform="matrix(2.04253 0 0 1.8 1383.46 757.35)"/><path fill="#B3445F" d="M1266.35 812.59c14.306.156 39.884 7.84 103.52 1.53 111.53-11.057 163.584-22.623 184.722-26.414-35.146-4.704-162.51-15.138-250.065-22.072-49.628-3.93-86.467-6.735-86.467-6.735s3.681 42.937 48.29 53.69z"/><path fill="none" stroke="#000" stroke-linecap="round" stroke-linejoin="round" stroke-width="10" d="M-58.739 12.736c7.004.087 19.527 4.356 50.682.851C46.547 7.444 72.032 1.018 82.381-1.088 65.174-3.701 2.818-9.498-40.048-13.35c-24.297-2.184-42.333-3.742-42.333-3.742s1.802 23.854 23.642 29.828z" transform="matrix(2.04253 0 0 1.8 1386.326 789.664)"/></g><g style="display:block"><path fill="#B3445F" d="M1278.164 693.688c13.94 4.3 53.627-3.324 116.41 13.515 96.195 25.8 143.596 66.96 163.114 79.245-53.675 4.3-110.833-1.844-187.51-9.215-56.535-5.434-153.355-19.657-153.355-19.657s56.461-37.473 61.34-63.888z"/><path fill="none" stroke="#000" stroke-linecap="round" stroke-linejoin="round" stroke-width="10" d="M-53.41-26.038c6.825 2.389 26.255-1.847 56.993 7.508 47.096 14.334 70.303 37.2 79.859 44.025-26.279 2.389-54.263-1.024-91.803-5.119C-36.04 17.357-83.442 9.455-83.442 9.455s27.643-20.818 30.032-35.493z" transform="matrix(2.04253 0 0 1.8 1387.256 740.557)"/></g><g style="display:block"><path fill="#F59B4A" d="M1050.814 1063.526s52.257 10.953 28.934 76.816c-15.11 42.673-136.835 110.126-160.903 203.01-24.07 92.884-7.484 184.186 10.055 241.094 19.593 63.57 28.745 122.812 20.767 152.137-7.978 29.321-48.128 56.27-50.215-6.547-1.632-49.097-.97-82.34-.97-82.34s-43.288 139.711-75.232 128.656c-37.861-13.102 25.77-154.296 26.109-166.578.34-12.283-120.526 125.223-138.27 75.683-17.742-49.537 99.31-135.51 99.31-135.51s-140.93 85.46-149.12 36.124c-8.194-49.334 119.914-103.114 119.914-103.114s-151.986 53.267-150.491-.774c1.494-54.042 145.706-85.358 145.706-85.358S642.223 1411.149 650.473 1372c8.25-39.15 161.47-50.608 161.47-50.608s-126.684 2.195-120.482-49.288c6.201-51.483 144.55-43.596 144.55-43.596s-97.826-4.557-91.758-51.129c6.063-46.568 129.953-34.077 129.953-34.077s-67.06 5.933-68.36-33.422c-1.301-39.353 54.361-65.195 92.633-66.832"/><path fill="none" stroke="#000" stroke-linecap="round" stroke-linejoin="round" stroke-width="10" d="M-197.407-101.701s5.46-30.032 42.318-17.746c23.88 7.959 62.795 76.446 114.669 88.731C11.454-18.43 61.964-29.35 93.361-40.271c35.073-12.2 67.866-18.365 84.248-14.27 16.38 4.095 31.826 26.611-3.037 28.796-27.249 1.708-45.719 1.855-45.719 1.855s78.11 22.527 72.351 40.954c-6.825 21.841-86.002-12.286-92.827-12.286-6.826 0 70.985 66.889 43.683 77.81-27.301 10.921-76.446-54.603-76.446-54.603s49.145 79.175 21.842 84.635c-27.302 5.461-58.699-66.889-58.699-66.889s31.397 86.002 1.365 86.002S-9.023 49.826-9.023 49.826s9.556 76.446-12.285 72.351c-21.842-4.096-30.033-91.463-30.033-91.463s2.73 72.351-25.937 69.621c-28.667-2.73-25.937-81.906-25.937-81.906s-1.364 55.969-27.302 53.238c-25.936-2.729-20.476-73.716-20.476-73.716s4.095 38.224-17.747 39.589c-21.841 1.365-36.857-30.032-38.223-51.874" transform="matrix(-.04976 1.79947 -1.74907 -.03756 863.109 1414.933)"/></g></g></g></g></svg>